<svg
  id="Layer_1"
  xmlns="http://www.w3.org/2000/svg"
  version="1.1"
  xmlns:xlink="http://www.w3.org/1999/xlink"
  viewBox="0 0 792 612"
  style=""
>
  <defs>
    <style>
      .st0 {
        stroke: #fff;
      }

      .st0,
      .st1 {
        fill: none;
        stroke-linecap: round;
        stroke-linejoin: round;
        stroke-width: 4px;
      }

      .st1 {
        stroke: url(#linear-gradient);
      }
    </style>
    <linearGradient
      id="linear-gradient"
      x1="7773"
      y1="321.09"
      x2="29143.61"
      y2="321.09"
      gradientUnits="userSpaceOnUse"
    >
      <stop offset="0" stop-color="#fff"></stop>
      <stop offset="1" stop-color="#000"></stop>
    </linearGradient>
  </defs>
  <g>
    <g>
      <path
        class="st0 ZUsDMNgR_0"
        d="M198.74,436.91c-10.47,4.11-17.1,11.57-19.68,22.56-2.58,10.98.49,20.55,7.47,29.02,4.9,5.95,11.46,9.36,18.95,10.48,5.85.87,11.72.23,17.29-2.25,1.92-.86,3.86-1.81,5.98-2.21"
      ></path>
      <path
        class="st0 ZUsDMNgR_1"
        d="M285.5,111.47c-.18,3.95-1.47,7.69-2.3,11.52-2.16,9.94-4.48,19.84-6.7,29.76-2.64,11.76-5.43,23.49-7.97,35.27-.13.58-.06,1.14-.19,1.69"
      ></path>
      <path
        class="st0 ZUsDMNgR_2"
        d="M72.98,204.83c3.15-1.63,6.64-2.49,9.62-4.53,4.72-3.23,8.83-6.9,10.79-12.5,2.25-6.45-1.64-13.34-8.18-14.13-2.74-.33-5.28.8-7.41,2.4-3.93,2.97-5.84,7.22-6.74,11.96-.76,4-.84,8.05.04,11.99,1.64,7.33,6.84,14.22,15.08,16.29,3.55.9,7.19,1.41,10.59-.87.47-.31,1.42-.17,1.99,0,2,3.84,5.45,5.21,9.26,5.65,4.63.54,9.31.62,13.91-.43"
      ></path>
      <path
        class="st0 ZUsDMNgR_3"
        d="M133.94,148.91c-5.42-2.27-7-8.45-2.36-13.41,2.51-2.69,5.81-4.45,8.84-6.52,3.09-2.1,5.94-4.46,7.19-8.16,1.84-5.4.37-10.25-3.15-14.36-5.5-6.42-12.66-8.1-20.85-6.83-2.91.45-5.75,1.11-8.63,1.64"
      ></path>
      <path
        class="st0 ZUsDMNgR_4"
        d="M70.1,148.19c-1.24,1.84-3.27,2.8-4.79,4.33-6.44,6.44-12.24,13.25-15.43,22.05-2.71,7.47-2.78,14.75,1.13,21.57,3.24,5.65,7.88,9.88,15.26,9.21,2.15-.19,4.39.66,6.48-.52"
      ></path>
      <path
        class="st0 ZUsDMNgR_5"
        d="M305.54,451.31c-1.64-.19-2.49-1.53-2.65-3.84-.36-5.1,2.44-8.73,5.54-12.24,2.03-2.3,4.71-3.91,6.71-6.25,1.92-2.23,3.75-4.51,4.57-7.44,1.79-6.43-1.01-11.34-7.44-13.22-5.5-1.61-10.81-.42-16.06,1.06-.88.25-1.84.18-2.66.63"
      ></path>
      <path
        class="st0 ZUsDMNgR_6"
        d="M333.86,370.19c8.54-3.56,16.8-2.97,24.45,2.2,8.08,5.47,11.46,13.46,10.24,22.98-.82,6.43-3.93,12.01-9.23,16.12-.61.47-1.2.75-1.93.97-1.49.45-1.93,1.65-1.68,3.09,1.42,8.09-4.47,16.75-10.78,19.74-3.88,1.84-7.83,2.6-12.03,2.58"
      ></path>
      <path
        class="st0 ZUsDMNgR_7"
        d="M356.18,412.43c-1.58-3.48-2.61-7.22-5.73-9.87-4.46-3.79-11.66-2.03-13.23,3.39-.68,2.34.89,6.06,3.1,7.94,3.19,2.72,6.81,2.61,10.58,1.89,1.44-.27,2.81-.9,4.32-.71"
      ></path>
      <path
        class="st0 ZUsDMNgR_8"
        d="M383.3,248.87c-9.98,4.57-19.98,9.07-30,13.56-4.4,1.97-8.72,4.1-13.2,5.88"
      ></path>
      <path
        class="st0 ZUsDMNgR_9"
        d="M98.18,400.91c-5.2,1.72-9.97,4.36-14.89,6.71-8.01,3.82-16.02,7.65-23.98,11.56-.81.4-1.58.44-2.41.45"
      ></path>
      <path
        class="st0 ZUsDMNgR_10"
        d="M99.38,214.91c3-2.57,5.56-5.44,6.75-9.35.44-1.45.5-2.88.43-4.33-.09-1.78-1.4-2.16-2.86-2.15-4.17.03-8.21,3.54-8.6,7.67-.28,2.94-.03,5.89,1.88,8.4"
      ></path>
      <path
        class="st0 ZUsDMNgR_11"
        d="M74.42,344.03c-.44-1.52-.51-2.96-.06-4.58.9-3.25,1.65-6.55,2.47-9.82.65-2.62-.2-3.57-2.87-2.85-5.43,1.45-10.74,3.29-16.08,5.02-4.48,1.45-8.93,2.99-13.44,4.32-.71.21-1.37.69-2.16.35"
      ></path>
      <path
        class="st0 ZUsDMNgR_12"
        d="M101.78,323.15c.11,1.04-.04,2.04-.97,2.63-6.33,3.94-11.74,9.1-17.76,13.44-2.65,1.91-4.86,4.48-8.37,5.15-1.03.2-1.26,2.05-2.42,2.66"
      ></path>
      <path
        class="st0 ZUsDMNgR_13"
        d="M310.1,222.11c1.01-.24,1.11-1.29,1.39-1.94,5.88-13.94,21.99-52.6,21.99-52.6l16.66,31.74,33.78-54.68,14.93,31.11s23.02-18.76,34.1-26.56c9.3-6.54,23.44-10.88,25.72-9.87"
      ></path>
      <path
        class="st0 ZUsDMNgR_14"
        d="M81.38,255.95c-7.84-.42-15.69-.59-23.52-1.2"
      ></path>
      <path
        class="st0 ZUsDMNgR_15"
        d="M211.46,481.19c3.95,1.19,8.01,2.12,11.51,4.45,3.1,2.07,6.41,4.04,5.77,8.63,2.58,5.45-.29,9.7-3.14,13.91-.96,1.43-2.29,2.64-2.14,4.57"
      ></path>
    </g>
    <path
      class="st0 ZUsDMNgR_16"
      d="M186.35,180c-.45-3.36-.78-9.09,1.13-15.72.77-2.68,3.64-12.13,12.81-19.13,3.74-2.86,8.87-6.77,16.21-6.48,9.28.37,15.01,7.18,15.89,8.27,6.3,7.75,8.31,21.19,1.13,28.69-6.87,7.19-18.29,4.87-20.75,4.38-1.88-.38-17.88-3.3-20.1-15.08-1.33-7.06,2.95-13.84,7.62-17.51,5.39-4.24,14.46-6.82,19.13-3.08,6.44,5.16,3.52,21.4-4.54,30.8-12.25,14.28-37.89,14.54-41.99,7.29-1.72-3.04.14-7.8,2.27-10.54,5.66-7.27,14.79-2.22,21.07-9.08,4.68-5.11,2.05-10.56,8.28-15.56.95-.76,3.69-2.79,7.45-3.4,8.72-1.43,17.75,5.56,21.88,13.13,5.13,9.4,4.33,22.71-3.08,29.34-1.25,1.11-5.12,4.58-9.4,3.83-4.13-.72-4.57-4.66-14.43-20.85-2.29-3.75-3.59-5.72-4.21-9.09-1.01-5.41.54-10.14,1.79-12.97"
    ></path>
    <path
      class="st0 ZUsDMNgR_17"
      d="M139.1,157.37c.47.25,1.3.61,2.39.68,1.51.1,2.66-.42,3.16-.68"
    ></path>
    <path
      class="st0 ZUsDMNgR_18"
      d="M121.65,477.86c-.77-26.93-.89-33.51-.81-33.52.05,0-.14,2.47.81,5.44,1.7,5.27,5.13,6.28,7.35,10.01,3.47,5.84,2.47,15.88-2.74,18.83-3.51,1.98-8.25.38-10.97-1.41-4.8-3.16-5.89-8.63-7.07-14.58-1.45-7.31-2.88-14.47,1.26-21.33.54-.89,5.37-8.64,13.97-9.47,4.38-.42,11.46.78,12.84,5.19.81,2.61-.38,6.31-2.29,6.78-3.57.88-6.1-10.43-13.71-11.32-4.33-.51-8.28,2.59-8.74,2.96-.65.53-2.88,2.43-4,5.42-3.62,9.71-2.17,19.49,4.8,28.44.53.69-1.25,1.54-1.32,3.12-.14,3.45,2.15,4.02,5.42,5.39-3.3,1.57-7.19,1.16-10.11.09-5.99-2.18-10.53-5.98-12.24-12.43-.26-.98-.4-2.01-.79-2.93-.42-1-1.54-1.51-2.59-1.21-.29.08-.57.21-.78.42-.8.77-1.17,1.94-1.46,3.23-2.72,12,5.97,24.37,17.85,26.17,7.73,1.17,13.97-1.66,19.2-7.2.43-2.95,3.03-4.55,4.3-6.97,2.45-4.66.23-10.96-.26-12.22-.42-1.07-.86-1.9-1.16-2.42-4.59-8.03-7.41-10.14-15.85-20.51-1.43-1.76-2.74-3.41-4.3-3.22-2.3.28-3.5,4.34-3.76,5.31-2.16.37-3.79,1.11-4.97,1.81-8.11,4.86-8.15,16.4-8.13,17.61"
    ></path>
    <path
      class="st0 ZUsDMNgR_19"
      d="M164.53,221.15c-8.32-.62-22.69-.3-34.76,8.56-23.77,17.44-23.95,56.5-13.22,81.29,15.97,36.91,58.16,47.11,88.15,54.36,31.92,7.72,49.57,2.47,57.3-.49,16.16-6.19,33.63-19.49,31.55-27.42-1.22-4.64-9.08-7.28-8.78-7.84.26-.47,5.07,2.55,8.78,3.18,16.3,2.8,44.03-34.93,35.79-47.99-4.77-7.56-21.68-6.84-32.81-1.22-8.19,4.13-21.08,14.86-18.04,26.23,2.35,8.81,13.12,13.76,21.94,13.83,9.41.08,20.09-5.36,22.3-13.62,3.21-11.97-12.9-24.4-22.53-29.87-22.71-12.91-49.33-1.86-53.83.01-17.63,7.32-28.02,21.42-48.79,49.62-18.55,25.19-22.19,37.58-23.69,43.96-2.67,11.42-7.19,30.76,1.65,39.48,18.29,18.04,93.41-9.64,94.4-41.48.6-19.15-25.92-34.67-35.82-40.45-7.04-4.11-32.02-18.7-58.55-10.24-5.88,1.88-19.01,6.06-23.58,17.32-4.35,10.71,1.65,21.53,9.91,36.82,7.24,13.4,20.29,37.54,45.03,45.88,4.21,1.42,2.74.35,20.11,4.53,24.73,5.95,27.58,8.08,31.72,6.15,10.95-5.11,15.54-31.37,6.8-52.03-11.79-27.88-40.07-27.23-42.2-48.72-1.31-13.27,9.07-17.55,10.2-42.48.47-10.48-1.27-11.77-1.7-23.51-.68-18.54-1.43-46.56,13.59-54.95,7.46-4.16,17.32-2.64,23.9,1.04,10.56,5.91,14.91,18.67,17.45,40.59,5.43,46.89,10.45,90.17-17.45,110.73-14.86,10.95-32.31,10.49-49.22,10.04-32.81-.87-55.94-15.64-71.26-25.43-20.51-13.11-31.32-20.02-35.12-33.88-5.9-21.54,9.15-45.25,25.49-57.2,13.36-9.78,26.85-11.17,40.51-12.57,14.18-1.46,48.99-5.04,80.15,16.81,18.42,12.92,45.2,41.52,36.82,62.96-5.54,14.18-24.62,19.23-30.87,20.88-4.46,1.18-31.1,8.23-45.88-7.37-11.26-11.88-8.77-29.63-7.36-39.65,3.09-22.05,16.78-49.04,42.77-59.48,3.84-1.54,27.26-10.95,42.64.99,6.55,5.08,12.83,14.98,10.05,22.8-3.19,8.95-16.54,11.11-24.92,12.46-17.59,2.83-31.93-1.39-37.77-3.18-16.44-5.04-42.16-14.33-74.19-31.59-10-8.26-12.51-21.38-7.28-30.09,6-9.99,19.86-10.26,28.04-7.93,18.4,5.24,23.15,28.81,23.79,32.29,5.12,27.77-16.04,51.74-35.12,73.36-15.64,17.72-28.49,32.28-39.94,28.65-11.94-3.79-16.81-27.49-11.61-43.66,1.17-3.63,4.19-13.03,12.98-17.35.95-.47,5.79-2.76,13.22-1.96,15.7,1.69,26.49,15.42,36.24,28.16,12.01,15.7,18.67,24.4,21.11,38.74.99,5.82,5.26,30.9-10.58,46.48-15.39,15.13-38.95,10.67-54.62,7.71-11.36-2.15-33.82-6.39-38.43-21.42-2.86-9.31,1.51-21.51,7.84-23.51,4.6-1.45,7.7,3.3,19.59,7.84,0,0,8.91,3.4,18.43,4.43,15.09,1.64,20.1-6.58,36.25-9.91,26.93-5.56,50.17,6.22,54.66,8.5,11.05,5.6,18.73,12.54,23.34,17.35,3.51,1.78,8.69,3.58,15.13,4.25,8.48.88,16.21-1.21,22.8-6.89,8.21-7.07,12.88-16.3,16.06-26.41,2.52-8.03,3.65-16.28,3.39-24.72-.05-1.71-.26-3.34-1.22-4.8.57-1.51,1.75-2.37,3.11-3.13,6.75-3.77,13.68-7.12,21.12-9.36,9.68-2.91,19.56-4.87,29.52-6.46,9.39-1.5,18.85-2.55,28.32-3.3,9.18-.72,18.38-1.27,27.59-1.59,9.52-.33,19.04-.57,28.56-.88,9.68-.31,19.35-.94,29.04-.7,7.48.18,14.86.94,21.86,4.02,6.66,2.94,11.86,7.41,15.84,13.47,4.24,6.44,6.29,13.77,8.85,20.9,4.45,12.38,11.05,23.43,19.66,33.39,7.55,8.74,16.28,15.99,26.21,21.78,11.32,6.6,23.47,10.9,36.46,13.03,26.05,4.28,50.52-.13,73.43-13.04,16.19-9.12,28.88-21.96,38.41-37.89,6.38-10.66,10.61-22.21,13.13-34.33.98-4.7,1.79-9.5,1.54-14.38-.1-1.94.33-3.77,1.87-5.27-1.99-1.76-1.77-4.08-1.86-6.25-.43-11.2-3.14-21.85-7.45-32.17-4.72-11.3-11.44-21.28-19.99-29.94-7.58-7.68-16.3-13.85-26.09-18.58-10.15-4.91-20.84-7.78-31.95-8.99-5.55-.61-11.19-.58-16.79-.08-9.1.83-17.92,2.82-26.4,6.25-10.87,4.39-20.69,10.44-29.29,18.46-9.31,8.68-16.72,18.68-22.1,30.24-3.9,8.37-6.52,17.05-7.93,26.17-1.83,11.83-1.25,23.54,1.8,35.02,2.56,9.65,6.91,18.6,12.9,26.65,7.75,10.41,17.39,18.67,29.03,24.47,6.92,3.45,14.15,5.94,21.82,7.26,24.12,4.13,45.77-1.73,65-16.42,13.43-10.26,22.56-23.76,27.38-40.03,1.92-6.47,3.13-13.11,3.16-19.91.02-5.45.22-10.94-.77-16.31-1.9-10.27-5.77-19.77-12.21-28.08-10.33-13.34-24.1-21.3-40.32-25.16-6.92-1.65-14.06-2.04-21.1-1.41-17.33,1.55-32.16,8.59-43.63,21.82-7.56,8.72-12.71,18.87-15.14,30.2-3.81,17.74-1.77,34.51,9.36,49.41,8.54,11.45,20.2,17.65,34.29,19.47,11.57,1.49,22.71.47,33.12-5.28,15.52-8.58,25.34-21.39,28.79-38.89,3.78-19.18-5.99-37.31-21.61-45.57-6.42-3.4-13.33-4.46-20.63-3.94-8.87.63-16.61,3.72-23.52,9.19-7.75,6.12-12.8,13.75-14.22,23.76-1.13,7.93.04,15.36,4.22,22.04,4.66,7.45,11.63,11.4,20.57,11.83,9.6.47,17.72-2.57,23.71-10.15,4.45-5.63,6.19-12.12,4.91-19.41-1.04-5.93-6.93-10.58-13.5-10.38-1.34.04-6.07.07-9.73,3.87-4.23,4.38-3.56,10.09-3.46,10.84"
    ></path>
    <path
      class="st0 ZUsDMNgR_20"
      d="M253.26,447.36c5.74,26.36,7.17,36.57,6.92,39.8-.01.17-.1,1.18.22,1.29,1.39.47,7.25-17.13,9.88-16.55,1.41.31.93,5.59,1.55,13.22.69,8.48,2.38,15.38,3.81,20.12"
    ></path>
    <path
      class="st0 ZUsDMNgR_21"
      d="M301.01,460.1c.57.18,1.2.48,1.27.95.14.91-1.87,2.53-3.1,1.89-.7-.37-1.24-1.51-.73-2.36.46-.77,1.62-1.07,2.55-.47Z"
    ></path>
  </g>
  <path class="st1 ZUsDMNgR_22" d="M29140.99,315.88L29141.61,326.3"></path>
  <style data-made-with="vivus-instant">
    .ZUsDMNgR_0 {
      stroke-dasharray: 109 111;
      stroke-dashoffset: 110;
      animation: ZUsDMNgR_draw 2000ms linear 0ms infinite;
    }
    .ZUsDMNgR_1 {
      stroke-dasharray: 81 83;
      stroke-dashoffset: 82;
      animation: ZUsDMNgR_draw 2000ms linear 45ms infinite;
    }
    .ZUsDMNgR_2 {
      stroke-dasharray: 143 145;
      stroke-dashoffset: 144;
      animation: ZUsDMNgR_draw 2000ms linear 90ms infinite;
    }
    .ZUsDMNgR_3 {
      stroke-dasharray: 86 88;
      stroke-dashoffset: 87;
      animation: ZUsDMNgR_draw 2000ms linear 136ms infinite;
    }
    .ZUsDMNgR_4 {
      stroke-dasharray: 82 84;
      stroke-dashoffset: 83;
      animation: ZUsDMNgR_draw 2000ms linear 181ms infinite;
    }
    .ZUsDMNgR_5 {
      stroke-dasharray: 74 76;
      stroke-dashoffset: 75;
      animation: ZUsDMNgR_draw 2000ms linear 227ms infinite;
    }
    .ZUsDMNgR_6 {
      stroke-dasharray: 114 116;
      stroke-dashoffset: 115;
      animation: ZUsDMNgR_draw 2000ms linear 272ms infinite;
    }
    .ZUsDMNgR_7 {
      stroke-dasharray: 53 55;
      stroke-dashoffset: 54;
      animation: ZUsDMNgR_draw 2000ms linear 318ms infinite;
    }
    .ZUsDMNgR_8 {
      stroke-dasharray: 48 50;
      stroke-dashoffset: 49;
      animation: ZUsDMNgR_draw 2000ms linear 363ms infinite;
    }
    .ZUsDMNgR_9 {
      stroke-dasharray: 46 48;
      stroke-dashoffset: 47;
      animation: ZUsDMNgR_draw 2000ms linear 409ms infinite;
    }
    .ZUsDMNgR_10 {
      stroke-dasharray: 42 44;
      stroke-dashoffset: 43;
      animation: ZUsDMNgR_draw 2000ms linear 454ms infinite;
    }
    .ZUsDMNgR_11 {
      stroke-dasharray: 54 56;
      stroke-dashoffset: 55;
      animation: ZUsDMNgR_draw 2000ms linear 500ms infinite;
    }
    .ZUsDMNgR_12 {
      stroke-dasharray: 39 41;
      stroke-dashoffset: 40;
      animation: ZUsDMNgR_draw 2000ms linear 545ms infinite;
    }
    .ZUsDMNgR_13 {
      stroke-dasharray: 266 268;
      stroke-dashoffset: 267;
      animation: ZUsDMNgR_draw 2000ms linear 590ms infinite;
    }
    .ZUsDMNgR_14 {
      stroke-dasharray: 24 26;
      stroke-dashoffset: 25;
      animation: ZUsDMNgR_draw 2000ms linear 636ms infinite;
    }
    .ZUsDMNgR_15 {
      stroke-dasharray: 44 46;
      stroke-dashoffset: 45;
      animation: ZUsDMNgR_draw 2000ms linear 681ms infinite;
    }
    .ZUsDMNgR_16 {
      stroke-dasharray: 457 459;
      stroke-dashoffset: 458;
      animation: ZUsDMNgR_draw 2000ms linear 727ms infinite;
    }
    .ZUsDMNgR_17 {
      stroke-dasharray: 6 8;
      stroke-dashoffset: 7;
      animation: ZUsDMNgR_draw 2000ms linear 772ms infinite;
    }
    .ZUsDMNgR_18 {
      stroke-dasharray: 423 425;
      stroke-dashoffset: 424;
      animation: ZUsDMNgR_draw 2000ms linear 818ms infinite;
    }
    .ZUsDMNgR_19 {
      stroke-dasharray: 5136 5138;
      stroke-dashoffset: 5137;
      animation: ZUsDMNgR_draw 2000ms linear 863ms infinite;
    }
    .ZUsDMNgR_20 {
      stroke-dasharray: 96 98;
      stroke-dashoffset: 97;
      animation: ZUsDMNgR_draw 2000ms linear 909ms infinite;
    }
    .ZUsDMNgR_21 {
      stroke-dasharray: 12 14;
      stroke-dashoffset: 13;
      animation: ZUsDMNgR_draw 2000ms linear 954ms infinite;
    }
    .ZUsDMNgR_22 {
      stroke-dasharray: 11 13;
      stroke-dashoffset: 12;
      animation: ZUsDMNgR_draw 2000ms linear 1000ms infinite;
    }
    @keyframes ZUsDMNgR_draw {
      100% {
        stroke-dashoffset: 0;
      }
    }
    @keyframes ZUsDMNgR_fade {
      0% {
        stroke-opacity: 1;
      }
      94.44444444444444% {
        stroke-opacity: 1;
      }
      100% {
        stroke-opacity: 0;
      }
    }
  </style>
</svg>
