<svg width="64" height="64" viewBox="0 0 64 64" fill="none" xmlns="http://www.w3.org/2000/svg">
<circle cx="32" cy="32" r="32" fill="white"/>
<g clip-path="url(#clip0_714_571)">
<path d="M22.75 44.2272H37.7507C39.8603 44.2272 41.884 43.3888 43.3764 41.8964L45.8787 39.3938C47.3693 37.9032 48.2062 35.8828 48.2062 33.7763C48.2062 31.799 47.468 29.893 46.1379 28.4309L39.784 21.4865C38.9075 20.61 37.4882 20.61 36.6117 21.4865L36.6021 21.4961C35.7255 22.3726 35.7255 23.7933 36.6021 24.6684L37.0682 25.1363L35.0797 23.1475C34.2029 22.271 32.784 22.271 31.9074 23.1475L31.8978 23.1571C31.0213 24.0337 31.0213 25.4526 31.8978 26.3294L33.8865 28.3179L30.7046 25.1363C29.8281 24.2594 28.4089 24.2594 27.5323 25.1363L27.5227 25.1456C26.6462 26.0224 26.6462 27.4413 27.5227 28.3179L30.7046 31.4998L22.7453 23.5405C21.8688 22.664 20.4496 22.664 19.573 23.5405L19.5634 23.5501C18.6869 24.4266 18.6869 25.8456 19.5634 26.7224L31.5002 38.6589L23.5216 39.9127C22.1662 40.1067 21.1592 41.2663 21.1592 42.6361C21.1592 43.5143 21.872 44.2272 22.75 44.2272Z" fill="#FFCC80"/>
<path d="M37.7507 45.0223H22.75C21.4345 45.0223 20.3637 43.9518 20.3637 42.6359C20.3637 40.8811 21.6731 39.3731 23.4087 39.1249L29.8328 38.1164L19.0018 27.2854C17.8168 26.1001 17.8168 24.1719 19.0018 22.9884C20.1967 21.7934 22.1249 21.7952 23.3084 22.9787L26.1277 25.798C26.2661 25.3269 26.5207 24.8847 26.8912 24.5139C27.9859 23.4163 29.7008 23.3289 30.8923 24.2372C31.0292 23.7551 31.287 23.3018 31.6639 22.9231C32.7601 21.8255 34.4768 21.7363 35.6667 22.6478C35.8004 22.1643 36.058 21.7107 36.4366 21.3323C37.6316 20.1374 39.5597 20.1391 40.7433 21.3227L46.7252 27.8962C48.1919 29.5095 49 31.5984 49 33.778C49 36.1116 48.0917 38.3072 46.4403 39.9568L43.9377 42.4594C42.2849 44.1123 40.0879 45.0223 37.7507 45.0223ZM21.1592 23.6787C20.7887 23.6787 20.4178 23.8203 20.1347 24.102C19.562 24.6762 19.562 25.5958 20.1268 26.1607L32.0633 38.0971C32.2748 38.3089 32.3497 38.6221 32.2573 38.9055C32.1635 39.1901 31.92 39.3987 31.6243 39.4447L23.6458 40.6982C22.6769 40.8369 21.9548 41.6688 21.9548 42.6359C21.9548 43.0752 22.311 43.4315 22.75 43.4315H37.7507C39.6631 43.4315 41.4608 42.6869 42.813 41.3347L45.3156 38.8321C46.6664 37.4816 47.4092 35.6869 47.4092 33.778C47.4092 31.9943 46.7474 30.2858 45.5495 28.9671L39.5929 22.4203C39.0537 21.8858 38.1358 21.8826 37.571 22.4474C37.2878 22.7306 37.1384 23.0932 37.1384 23.4798C37.1384 23.8666 37.2893 24.2308 37.5631 24.5046L37.6316 24.5728C37.9418 24.883 37.9418 25.3875 37.6316 25.6978C37.3277 26.0031 36.8346 26.0077 36.5226 25.7135C36.5226 25.7135 36.5226 25.7121 36.5211 25.7121H36.5194C36.5194 25.7121 36.5194 25.7121 36.5179 25.7103L36.5162 25.7088C36.5162 25.7088 36.5162 25.7088 36.5147 25.7071L34.8458 24.0382C34.2827 23.4751 33.3614 23.4751 32.7983 24.0382C32.2241 24.6127 32.2241 25.5306 32.7886 26.0954L34.4482 27.7547C34.6041 27.9105 34.6818 28.1141 34.6818 28.3178C34.6818 28.5214 34.6041 28.725 34.4497 28.8811C34.1394 29.1914 33.6352 29.1914 33.3249 28.8811L30.0731 25.6293C29.51 25.0659 28.5886 25.0659 28.0255 25.6293C27.4514 26.2035 27.4514 27.1214 28.0159 27.6862L31.2663 30.9366C31.4221 31.0924 31.5002 31.2961 31.5002 31.4997C31.5002 31.7033 31.4221 31.9069 31.2677 32.0628C30.9575 32.373 30.4533 32.373 30.143 32.0628L22.1837 24.1035C21.9006 23.8203 21.5297 23.6787 21.1592 23.6787Z" fill="black"/>
<path d="M18.5484 31.7245C18.4386 31.7245 18.3273 31.7023 18.2207 31.6546C15.6578 30.4946 14 27.9366 14 25.1366C14 21.1895 17.2119 17.9775 21.1591 17.9775C23.9591 17.9775 26.5173 19.6351 27.6756 22.1997C27.8568 22.5991 27.6788 23.0716 27.2776 23.2513C26.8768 23.431 26.4058 23.2528 26.226 22.8537C25.3242 20.8585 23.3354 19.5684 21.1591 19.5684C18.0887 19.5684 15.5908 22.066 15.5908 25.1366C15.5908 27.313 16.881 29.3014 18.8761 30.2036C19.2755 30.3851 19.4535 30.8558 19.2738 31.2566C19.1404 31.5494 18.8508 31.7245 18.5484 31.7245Z" fill="black"/>
</g>
<defs>
<clipPath id="clip0_714_571">
<rect width="35" height="35" fill="white" transform="translate(14 14)"/>
</clipPath>
</defs>
</svg>
