<svg width="64" height="64" viewBox="0 0 64 64" fill="none" xmlns="http://www.w3.org/2000/svg">
<circle cx="32" cy="32" r="32" fill="white"/>
<path d="M35.4638 42.1664C35.4638 44.3658 33.6808 46.1489 31.4813 46.1489C29.2816 46.1489 27.4985 44.3658 27.4985 42.1664C27.4985 39.9667 29.2816 38.1836 31.4813 38.1836C33.6808 38.1836 35.4638 39.9667 35.4638 42.1664Z" fill="#FFA000"/>
<path d="M42.8142 39.6436C40.9871 38.0995 39.9394 35.8436 39.9394 33.4523V30.0833C39.9394 25.4193 36.1441 21.625 31.4812 21.625C26.8181 21.625 23.0227 25.4193 23.0227 30.0833V33.4523C23.0227 35.8436 21.9751 38.1006 20.1374 39.6546C19.6672 40.0558 19.3977 40.6416 19.3977 41.2605C19.3977 42.4265 20.3462 43.375 21.5124 43.375H41.4499C42.6159 43.375 43.5644 42.4265 43.5644 41.2605C43.5644 40.6416 43.295 40.0558 42.8142 39.6436Z" fill="#FFC107"/>
<path d="M43.8664 30.989C43.3661 30.989 42.9601 30.583 42.9601 30.0828C42.9601 26.6124 41.6094 23.3512 39.1564 20.897C38.8024 20.543 38.8024 19.9691 39.1564 19.6151C39.5104 19.2611 40.0843 19.2611 40.4385 19.6151C43.2334 22.4111 44.7726 26.1292 44.7726 30.0828C44.7726 30.583 44.3666 30.989 43.8664 30.989Z" fill="black"/>
<path d="M19.0957 30.9899C18.5955 30.9899 18.1895 30.5839 18.1895 30.0836C18.1895 26.1301 19.7289 22.4119 22.5249 19.6171C22.8789 19.2631 23.453 19.2631 23.8071 19.6171C24.1611 19.9711 24.1611 20.5452 23.8071 20.8992C21.3529 23.352 20.002 26.6133 20.002 30.0836C20.002 30.5839 19.596 30.9899 19.0957 30.9899Z" fill="black"/>
<path d="M31.4812 47C28.9824 47 26.95 44.9676 26.95 42.4688C26.95 41.9685 27.3559 41.5625 27.8562 41.5625C28.3565 41.5625 28.7625 41.9685 28.7625 42.4688C28.7625 43.9684 29.9816 45.1875 31.4812 45.1875C32.9806 45.1875 34.2 43.9684 34.2 42.4688C34.2 41.9685 34.6059 41.5625 35.1062 41.5625C35.6065 41.5625 36.0125 41.9685 36.0125 42.4688C36.0125 44.9676 33.98 47 31.4812 47Z" fill="black"/>
<path d="M41.4499 43.375H21.5124C20.3462 43.375 19.3977 42.4265 19.3977 41.2605C19.3977 40.6416 19.6672 40.0558 20.1374 39.6533C21.9751 38.1006 23.0227 35.8436 23.0227 33.4523V30.0833C23.0227 25.4193 26.817 21.625 31.4812 21.625C36.1452 21.625 39.9394 25.4193 39.9394 30.0833V33.4523C39.9394 35.8436 40.9871 38.1006 42.8129 39.6449C43.295 40.0558 43.5644 40.6416 43.5644 41.2605C43.5644 42.4265 42.6159 43.375 41.4499 43.375ZM31.4812 23.4375C27.8161 23.4375 24.8352 26.4184 24.8352 30.0833V33.4523C24.8352 36.3774 23.5533 39.1398 21.3191 41.0284C21.2768 41.0647 21.2102 41.1397 21.2102 41.2605C21.2102 41.4247 21.348 41.5625 21.5124 41.5625H41.4499C41.6141 41.5625 41.7519 41.4247 41.7519 41.2605C41.7519 41.1397 41.6856 41.0647 41.6455 41.0308C39.4089 39.1398 38.1269 36.3774 38.1269 33.4523V30.0833C38.1269 26.4184 35.146 23.4375 31.4812 23.4375Z" fill="black"/>
<path d="M31.4812 23.4375C30.9809 23.4375 30.575 23.0315 30.575 22.5312V18.9062C30.575 18.406 30.9809 18 31.4812 18C31.9815 18 32.3875 18.406 32.3875 18.9062V22.5312C32.3875 23.0315 31.9815 23.4375 31.4812 23.4375Z" fill="black"/>
</svg>
