<svg width="253" height="445" viewBox="0 0 253 445" fill="none" xmlns="http://www.w3.org/2000/svg" style="">
<path d="M13.3882 415.67C13.3882 415.67 76.1791 415.67 108.126 415.67C140.073 415.67 105.828 432.189 105.828 432.189C105.828 432.189 115.237 437.113 134.165 435.802C153.092 434.49 149.262 441.271 133.096 443.328C127.627 444.023 112.858 438.135 116.295 435.769C119.731 433.404 135.463 430.043 137.296 428.288C139.129 426.527 141.191 423.782 145.62 423.551C148.876 423.383 146.107 420.054 144.411 418.306C143.646 417.515 142.965 416.66 142.36 415.741C139.428 411.299 129.964 397.711 115.662 384.554L100.639 373.376C104.457 383.378 105.375 405.746 102.625 405.45C99.875 405.155 93.7663 406.671 92.5446 406.517C91.3225 406.369 84.2965 405.373 82.9224 408.58C81.5475 411.788 115.913 419.045 118.204 418.813C120.495 418.588 120.724 410.875 117.058 410.412C113.392 409.956 103.923 405.45 104.839 405.148C105.756 404.84 118.815 412.398 117.746 408.278C116.676 404.152 116.676 390.48 116.676 387.807C116.676 385.139 100.778 372.785 100.778 372.785C100.778 372.785 96.5204 369.59 99.5698 367.514C102.62 365.432 107.27 357.957 102.033 360.123C96.7963 362.289 94.9881 357.256 92.0099 357.089C89.0311 356.915 94.7589 369.629 97.966 370.606C101.174 371.576 112.457 357.371 106.329 357.886C102.476 358.214 97.5831 357.14 94.48 356.304C92.7123 355.822 91.5647 354.125 91.7898 352.306C92.0719 350.025 92.4597 347.19 92.9404 343.976C102.528 300.037 106.367 289.142 106.367 289.142C100.563 300.519 93.3081 343.668 92.6202 342.144C91.9332 340.615 92.5446 324.346 93.3838 322.746C94.2244 321.139 103.802 293.738 103.802 293.738C104.754 290.935 105.734 288.474 106.733 286.481C108.215 283.524 108.679 280.169 108.079 276.923C107.7 274.867 107.061 272.668 105.985 270.888M105.985 270.888C102.09 249.818 88.9167 233.884 88.9167 233.884C89.3176 233.029 130.481 229.802 134.203 228.543M105.985 270.888C123.626 255.314 144.16 259.06 144.16 259.06C134.231 248.217 133.172 231.904 133.21 230.676C133.248 229.455 134.203 228.543 134.203 228.543M105.985 270.888C105.985 270.888 123.855 257.068 144.398 259.889C144.398 259.889 153.868 270.964 148.14 283.678C142.413 296.399 137.448 296.167 135.921 299.375C135.921 299.375 129.277 284.559 108.124 284.327C108.124 284.327 125.941 284.257 134.111 299.439C134.487 300.133 134.525 300.962 134.19 301.682C127.789 315.405 111.388 352.563 113.66 357.108C116.409 362.61 133.706 366.158 140.809 383.57C147.911 400.983 165.208 417.708 165.094 419.199C164.979 420.683 145.62 422.863 145.62 422.863C145.62 422.863 163.146 421.146 164.979 420.684C166.812 420.227 173.54 432.523 170.058 434.702C159.711 441.162 153.967 439.356 153.967 439.356L179.733 431.482C179.733 431.482 172.84 419.662 183.835 419.662C194.83 419.662 251.314 419.662 251.314 419.662M134.203 228.543C137.924 227.282 87.3516 233.087 87.3516 233.087C81.3177 229.192 74.7888 208.038 74.7888 208.038C74.7888 208.038 52.4892 212.293 45.5641 200.074C38.6395 187.862 45.7306 175.431 45.7306 175.431C50.6182 168.977 61.8824 169.395 68.7171 173.252C68.7171 173.252 74.8266 177.912 77.9576 177.912C81.089 177.912 84.1719 169.916 89.6804 168.135C92.1627 167.332 88.9168 165.121 86.5116 166.149C84.1055 167.184 77.538 172.339 77.5766 171.574C77.6145 170.809 76.889 166.76 75.4761 167.602C74.0631 168.444 69.1375 172.378 69.9011 173.104C70.6645 173.824 74.3685 177.185 74.3685 177.185L75.6667 177.95C76.8129 177.835 79.6384 181.1 85.4232 179.499C85.4232 179.499 96.3625 181.961 96.8207 184.365C97.2789 186.769 97.6229 188.318 96.8207 188.434C96.0192 188.543 93.3274 189.919 89.9476 189.121C83.6858 188.916 78.1876 192.02 75.3992 193.447C71.0848 195.665 73.3756 202.992 70.0153 198.564C67.0503 194.656 66.4261 197.561 64.9753 196.417C63.5241 195.273 58.727 194.579 54.7945 194.887C50.8615 195.189 54.7675 185.741 56.3834 183.176C63.3379 172.159 78.6611 186.017 75.514 192.676C75.3277 193.068 75.028 193.479 74.7852 193.949C72.8092 197.735 73.139 202.376 75.7669 205.743C78.6825 209.484 83.3725 212.454 87.37 212.486C94.0715 212.544 98.4242 207.678 103.178 207.447C107.932 207.215 116.008 202.864 114.806 193.184C113.602 183.504 101.116 149.888 98.5964 149.257C96.0761 148.628 87.9998 151.546 87.9998 151.546C87.9998 151.546 96.9638 148.653 98.052 148.512C99.1403 148.37 97.451 147.625 97.451 147.625C97.451 147.625 105.928 144.327 107.302 142.868C108.677 141.409 107.101 141.551 107.101 141.551C108.95 139.198 116.139 140.638 116.32 135.271C118.04 114.034 92.6175 123.817 86.2639 105.511C74.5797 71.8431 171.227 117.016 171.712 83.9397C172.754 12.9206 67.8678 97.1613 7.9621 69.2782C-1.09994 65.0552 121.033 184.552 147.443 47.0257C151.176 27.5822 144.799 27.6915 134.112 10.6774C123.425 -6.33015 118.614 4.08256 103.49 13.6471C88.3657 23.2178 113.868 17.8636 109.763 27.685C86.0747 84.3703 113.799 48.7034 147.551 33.3157C170.768 22.7359 183.956 78.7719 175.44 101.789C166.924 124.8 120.483 102.278 117.607 110.659C114.732 119.041 126.007 124.807 136.774 140.304C147.54 155.794 132.354 164.234 112.999 172.127L114.048 152.079C130.043 166.625 162.717 162.678 167.237 146.159C171.758 129.64 148.082 98.8517 135.113 96.3452C122.144 93.8381 146.62 74.4011 148.743 62.9343C150.867 51.4673 111.379 31.728 124.792 19.9399C138.204 8.15139 150.118 7.55361 169.039 24.3877C187.962 41.2216 180.403 57.5799 166.527 72.3957C152.652 87.205 153.215 99.7261 169.675 117.042C186.135 134.352 197.343 129.762 194.826 107.998C192.309 86.2344 176.291 48.8386 178.087 66.9065C179.884 84.9745 195.59 93.4141 187.281 118.263C178.974 143.119 165.073 169.819 152.529 153.615C111.72 100.896 77.8733 1.96803 61.3395 15.7104C39.418 33.9263 142.945 82.8856 114.522 111.412L98.6908 111.193C35.3632 90.7274 37.4875 55.0669 117.549 76.8373C298.164 125.957 68.306 98.9805 112.088 47.3022C120.822 36.9987 94.6708 36.6453 83.8075 17.1887C72.9434 -2.26787 69.1119 18.5513 61.7278 31.5672C54.3443 44.5897 78.3888 79.9673 71.8373 94.5517L76.4477 111.251C51.0991 100.78 55.6902 106.199 19.4546 105.826C19.4546 105.826 5.67141 122.808 24.7912 143.582C37.7006 158.879 60.374 156.411 77.8796 142.091L76.944 165.809C48.8359 178.96 52.1286 174.261 35.404 127.076C18.6793 79.8904 46.9178 128.284 59.7577 127.436C72.5988 126.581 90.3464 119.285 95.7602 97.3286C101.175 75.3716 82.0637 67.9736 95.8238 43.7092C109.585 19.4513 109.989 35.0061 121.314 45.6567C132.639 56.301 139.169 65.4859 116.869 84.1262C94.5668 102.76 83.2198 86.62 74.1794 67.2599C65.1389 47.8934 43.7226 32.152 29.9244 39.6532C16.1268 47.1606 51.1806 78.849 51.1806 78.849C51.1806 78.849 65.6158 104.283 67.2546 129.73C68.8933 155.177 50.8373 133.445 42.403 124.318C33.9692 115.191 3.849 96.936 13.9907 82.1591C24.1325 67.3818 29.3852 90.65 52.4071 90.3413C112.048 89.525 99.1347 57.6311 50.4492 40.4243C29.0015 32.8461 12.0844 83.6564 22.2033 112.979C32.3226 142.296 3.45334 127.519 1.33454 149.36C0.0113515 162.999 64.4743 177.037 75.011 173.624C85.5479 170.217 32.8512 94.3392 35.229 78.0129L72.6036 39.1451C73.6347 16.025 109.823 14.8935 152.395 28.0895C194.966 41.2853 201.772 126.638 194.485 143.626C187.198 160.608 171.987 148.544 167.504 129.415C163.021 110.292 186.695 135.296 173.573 158.982L150.869 115.447C134.074 60.4654 43.9936 84.3441 44.1054 30.6475C44.1261 20.7684 95.4528 58.7042 164.928 15.6454C181.221 5.5412 182.12 24.7663 172.241 33.0902C162.361 41.4075 191.688 106.275 178.11 109.721C147.272 117.556 147.353 157.471 130.504 151.886C113.655 146.307 120.876 138.433 120.161 134.737C119.934 133.567 116.981 131.671 115.865 132.359C114.748 133.047 87.8572 139.892 86.4823 142.379C85.1074 144.873 85.6231 149.829 86.7402 150.89C87.8573 151.944 91.4369 155.344 92.8119 159.123C94.1861 162.903 96.1715 180.09 96.0959 182.301C96.0194 184.519 96.7829 183.144 96.7829 183.144L97.6229 188.144C97.6229 188.144 96.4202 206.817 104.897 205.73C113.374 204.638 116.523 198.454 116.523 198.454C116.523 198.454 129.336 202.157 134.203 228.543Z" stroke="#242222" stroke-width="2" stroke-miterlimit="10" stroke-linecap="round" stroke-linejoin="round" class="UjIiiWfy_0 svg-elem-1"></path>
<style data-made-with="vivus-instant">.UjIiiWfy_0{stroke-dasharray:6581 6583;stroke-dashoffset:6582;animation:UjIiiWfy_draw_0 4430ms linear 0ms infinite,UjIiiWfy_fade 4430ms linear 0ms infinite;}@keyframes UjIiiWfy_draw{100%{stroke-dashoffset:0;}}@keyframes UjIiiWfy_fade{0%{stroke-opacity:1;}95.48532731376974%{stroke-opacity:1;}100%{stroke-opacity:0;}}@keyframes UjIiiWfy_draw_0{4.514672686230249%{stroke-dashoffset: 6582}64.71030850263357%{ stroke-dashoffset: 0;}100%{ stroke-dashoffset: 0;}}</style></svg>
