

<svg width="605" height="406" viewBox="0 0 605 406" fill="none" xmlns="http://www.w3.org/2000/svg"><style>

@-webkit-keyframes animate-svg-stroke-1 {
  0% {
    stroke-dashoffset: 5446.31640625px;
    stroke-dasharray: 5446.31640625px;
  }

  100% {
    stroke-dashoffset: 0;
    stroke-dasharray: 5446.31640625px;
  }
}

@keyframes animate-svg-stroke-1 {
  0% {
    stroke-dashoffset: 5446.31640625px;
    stroke-dasharray: 5446.31640625px;
  }

  100% {
    stroke-dashoffset: 0;
    stroke-dasharray: 5446.31640625px;
  }
}

.svg-elem-1 {
  -webkit-animation: animate-svg-stroke-1 3s cubic-bezier(0.47, 0, 0.745, 0.715) 1s both infinite;
          animation: animate-svg-stroke-1 3s cubic-bezier(0.47, 0, 0.745, 0.715) 1s both infinite;
}
</style>
<path d="M604.718 384.641H562.952C562.952 384.641 599.537 344.018 592.725 321.562C585.913 299.106 573.801 283.967 550.841 289.518C527.88 295.069 399.452 349.695 396.802 354.237C394.153 358.779 393.775 364.834 396.802 364.96C399.83 365.087 404.372 359.283 405.003 361.302C405.634 363.32 404.498 369.628 396.55 370.007C388.602 370.385 377.5 359.409 377.5 356.129C377.5 352.849 383.808 335.944 386.836 332.79C389.864 329.636 413.329 313.993 423.043 309.199C432.757 304.405 451.681 297.214 453.321 297.845C454.961 298.475 475.525 312.983 473.254 314.75C470.983 316.516 439.444 328.375 437.173 327.491C434.902 326.608 429.982 320.553 430.739 320.553C431.496 320.553 437.425 325.978 433.893 330.014C430.36 334.051 418.249 340.36 406.895 344.775C395.541 349.19 373.463 351.587 372.959 354.868C372.454 358.148 369.931 377.828 372.959 381.235C375.987 384.641 380.654 387.542 390.242 387.542C399.83 387.542 506.938 381.613 526.871 374.8C546.804 367.988 576.324 347.298 568.25 348.055C560.176 348.812 539.978 367.097 510.47 374.296C480.962 381.494 383.183 378.552 378.594 380.435C374.005 382.319 311.983 401.461 304.918 403.816C297.853 406.171 279.687 386.659 282.042 378.753C284.397 370.847 301.722 363.951 312.151 364.455C322.58 364.96 347.812 354.363 350.335 353.017C352.858 351.671 366.651 355.246 368.543 354.11C370.436 352.975 373.211 347.045 371.824 345.153C370.436 343.261 337.383 331.654 336.878 324.758C336.373 317.861 340.242 173.705 347.812 168.491C355.381 163.276 390.2 153.856 393.228 154.866C396.256 155.875 442.345 248.264 442.345 254.698C442.345 261.132 442.85 288.508 443.102 290.022C443.355 291.536 449.537 301.629 452.312 300.745C455.087 299.862 519.218 253.773 523.591 255.96C527.965 258.146 546.131 268.071 541.085 268.071C536.038 268.071 523.87 264.538 522.077 260.669C520.284 256.801 517.662 183.924 529.394 159.702C541.127 135.479 555.509 121.097 567.998 128.667C580.488 136.236 576.703 286.868 570.269 282.705C563.835 278.542 571.405 159.323 566.863 137.372C562.321 115.42 527.88 99.5246 519.932 102.931C511.984 106.337 485.87 174.462 479.057 170.677C472.245 166.893 454.709 128.793 456.98 126.018C459.251 123.242 478.427 119.457 484.734 106.337C491.042 93.2166 494.827 78.4982 495.332 81.6943C495.836 84.8903 494.49 91.2823 495.5 94.4783C496.509 97.6743 516.694 102.216 515.18 103.225C513.667 104.235 493.818 98.8518 492.809 99.02C491.799 99.1882 489.276 118.196 464.718 124.083C440.159 129.971 428.721 91.1143 427.375 83.2084C426.029 75.3024 417.619 57.3041 418.964 52.9306C420.31 48.5572 433.935 53.9399 439.822 49.7345C445.71 45.5292 443.859 40.8195 447.392 42.5016C450.924 44.1837 463.035 57.8087 470.773 56.7993C478.511 55.79 483.893 49.5664 483.725 46.2022C483.557 42.838 480.361 45.6976 474.474 50.4073C468.587 55.117 484.735 75.3024 487.089 73.7885C489.445 72.2746 491.968 52.5942 498.36 51.753C504.752 50.9121 508.116 63.6959 504.247 69.5834C500.378 75.4708 494.154 79.8442 493.818 74.1251C493.481 68.4061 493.482 61.8458 498.023 55.4538C502.565 49.0618 508.116 47.2115 504.247 26.0172C500.378 4.82281 478.343 3.81345 471.951 8.52338C465.559 13.2333 453.952 27.3629 458.326 25.5126C462.699 23.6623 475.01 15.1202 474.642 11.2148C474.274 7.30943 471.278 1.29042 457.653 1.6268C444.028 1.96317 435.281 11.2148 436.626 13.7379C437.972 16.2611 442.85 18.9524 441.505 24.335C440.159 29.7177 441.673 38.9694 435.954 37.1191C430.235 35.2688 428.721 29.045 423.506 33.5867C418.291 38.1284 417.955 46.0342 416.441 45.6978C414.927 45.3614 424.515 37.1191 427.88 37.7918C431.244 38.4646 439.15 33.5867 438.981 26.5217C438.813 19.4567 432.253 3.47686 426.702 7.00946C421.151 10.5419 408.199 34.764 406.853 41.3242C405.508 47.8844 406.517 64.2007 403.237 66.2194C399.957 68.2379 389.696 75.1344 390.369 78.3305C391.041 81.5265 394.069 98.1793 397.938 97.6745C401.807 97.1699 422.328 68.7424 419.805 69.4152C417.282 70.0879 399.62 94.9831 398.443 92.7964C397.265 90.6097 390.705 70.5927 388.35 71.7703C385.995 72.9478 320.057 112.813 315.347 133.167C310.637 153.52 327.795 174.378 354.035 169.332C380.276 164.286 418.46 138.045 425.02 141.409C431.58 144.773 447.644 232.713 442.345 236.784C437.047 240.856 402.48 158.314 403.489 156.296C404.498 154.277 419.889 153.52 421.655 145.446C423.422 137.372 428.216 92.7124 424.936 92.7124C421.655 92.7124 398.947 103.31 395.162 105.833C391.378 108.356 354.035 150.24 355.801 150.24C357.568 150.24 383.556 157.81 389.612 179.509C395.667 201.208 402.984 240.695 394.279 267.566C385.574 294.438 380.528 298.853 381.79 302.891C383.051 306.928 391.925 327.618 392.492 322.908C393.06 318.198 386.163 298.517 384.649 300.031C383.136 301.545 377.921 337.71 374.557 338.047C371.193 338.383 344.952 321.898 341.756 323.412C338.56 324.926 309.123 349.317 304.75 351.167C300.376 353.017 255.464 360.25 254.623 367.315C253.782 374.38 256.305 380.435 261.352 380.435C266.398 380.435 279.182 379.931 277.668 378.08C276.154 376.23 252.941 378.753 251.595 381.276C250.25 383.8 252.1 391.369 244.194 392.378C236.288 393.387 157.566 399.275 156.893 396.92C156.221 394.565 151.511 384.641 155.38 382.958C159.248 381.276 242.512 384.809 242.512 386.323C242.512 387.837 242.933 389.939 242.344 390.276C241.755 390.612 160.678 393.808 159.837 392.967C158.996 392.126 122.074 283.042 117.532 281.36C112.991 279.678 1.972 278.332 1.63562 281.696C1.29924 285.06 36.2868 389.182 40.8285 391.201C45.3702 393.219 152.688 397.424 152.352 396.415C152.016 395.406 114.505 286.406 112.486 285.733C110.468 285.06 19.7755 285.733 19.7755 285.733" stroke="#231F20" stroke-width="2" stroke-miterlimit="10" class="svg-elem-1"></path>
</svg>
