<svg width="64" height="64" viewBox="0 0 64 64" fill="none" xmlns="http://www.w3.org/2000/svg">
<circle cx="32" cy="32" r="32" fill="white"/>
<path d="M43.8497 21.869C42.0955 21.7238 40.3612 21.3957 38.6752 20.8901C36.5076 20.2381 34.4376 19.2972 32.5212 18.0927C32.3651 17.9945 32.1845 17.9424 32.0001 17.9424C31.8157 17.9424 31.6351 17.9945 31.4791 18.0927C29.5626 19.2972 27.4927 20.2381 25.3251 20.8901C23.639 21.3957 21.9048 21.7238 20.1505 21.869C19.9051 21.8892 19.6763 22.0009 19.5094 22.182C19.3426 22.3631 19.25 22.6004 19.2501 22.8466V31.1033C19.2437 33.2801 19.7924 35.4226 20.8444 37.3284C21.8964 39.2341 23.417 40.8401 25.2624 41.9947L31.4778 45.9075C31.6329 46.0052 31.8123 46.0574 31.9956 46.0582C32.1789 46.059 32.3588 46.0083 32.5148 45.912L38.6395 42.1313C40.5128 40.9842 42.0591 39.374 43.1294 37.4557C44.1997 35.5375 44.7578 33.3759 44.7501 31.1793V22.8466C44.7501 22.6004 44.6575 22.3632 44.4907 22.1821C44.3239 22.0009 44.0951 21.8892 43.8497 21.869Z" fill="#1ED583"/>
<path d="M30.5834 35.5413C30.3973 35.5418 30.2129 35.5054 30.041 35.4342C29.8691 35.3629 29.713 35.2583 29.5818 35.1263L26.7485 32.2929C26.615 32.1618 26.5088 32.0056 26.436 31.8332C26.3632 31.6609 26.3253 31.4758 26.3245 31.2887C26.3236 31.1016 26.3599 30.9162 26.4311 30.7432C26.5023 30.5701 26.6071 30.4129 26.7393 30.2806C26.8716 30.1484 27.0288 30.0436 27.2019 29.9724C27.3749 29.9012 27.5603 29.8649 27.7474 29.8658C27.9345 29.8666 28.1196 29.9045 28.2919 29.9773C28.4643 30.0501 28.6205 30.1563 28.7516 30.2898L30.5834 32.1214L35.2485 27.4563C35.3797 27.3235 35.5359 27.2178 35.7081 27.1455C35.8803 27.0733 36.0652 27.0357 36.2519 27.0352C36.4387 27.0346 36.6237 27.0709 36.7964 27.1421C36.9691 27.2133 37.1259 27.318 37.258 27.4501C37.3901 27.5821 37.4947 27.739 37.5659 27.9117C37.6371 28.0843 37.6734 28.2694 37.6729 28.4562C37.6723 28.6429 37.6347 28.8277 37.5625 28.9999C37.4902 29.1722 37.3845 29.3284 37.2516 29.4596L31.585 35.1263C31.4538 35.2583 31.2977 35.3629 31.1258 35.4342C30.9538 35.5054 30.7695 35.5418 30.5834 35.5413Z" fill="#F7F7F7"/>
<path d="M32.0001 47.2292C31.7998 47.2291 31.6037 47.1725 31.4342 47.0659L24.7016 42.827C22.7022 41.5764 21.0548 39.8366 19.915 37.7721C18.7752 35.7075 18.1806 33.3864 18.1876 31.0282V22.0833C18.1876 21.8166 18.288 21.5597 18.4686 21.3635C18.6493 21.1674 18.8971 21.0463 19.1629 21.0243C21.0632 20.8677 22.9418 20.5122 24.768 19.9639C27.1163 19.2577 29.3587 18.2383 31.4349 16.9334C31.6042 16.827 31.8001 16.7705 32 16.7705C32.2 16.7705 32.3959 16.827 32.5652 16.9334C34.6411 18.2383 36.8833 19.2577 39.2314 19.9639C41.0579 20.512 42.9367 20.8674 44.8371 21.0243C45.1029 21.0464 45.3507 21.1675 45.5313 21.3636C45.712 21.5598 45.8124 21.8167 45.8126 22.0833V31.1104C45.821 33.4901 45.2163 35.8318 44.0568 37.9099C42.8973 39.988 41.2221 41.7324 39.1927 42.975L32.5582 47.0708C32.3905 47.1744 32.1972 47.2293 32.0001 47.2292ZM20.3126 23.0455V31.0282C20.3068 33.0269 20.8107 34.9942 21.7767 36.744C22.7427 38.4938 24.1389 39.9684 25.8333 41.0286L32.0056 44.9147L38.0776 41.1668C39.7975 40.1134 41.2171 38.6348 42.1997 36.8734C43.1823 35.1121 43.6947 33.1273 43.6876 31.1104V23.0455C41.9709 22.8461 40.2751 22.4959 38.6199 21.999C36.3015 21.3019 34.0781 20.3212 32.0001 19.0792C29.9217 20.3211 27.6981 21.3017 25.3795 21.9989C23.7246 22.496 22.029 22.8462 20.3126 23.0455Z" fill="#232323"/>
</svg>
