<svg width="64" height="64" viewBox="0 0 64 64" fill="none" xmlns="http://www.w3.org/2000/svg">
<circle cx="32" cy="32" r="32" fill="white"/>
<path fill-rule="evenodd" clip-rule="evenodd" d="M25.1054 23.6253H23.4482C22.7276 23.6253 22.7276 22.5205 23.4482 22.5205H25.1054C25.802 22.5205 25.802 23.6253 25.1054 23.6253ZM35.9859 45.7226H16.5067C14.5612 45.7226 13 44.1613 13 42.2398V22.7606C13 20.8391 14.5612 19.2539 16.5067 19.2539H35.9859C37.9074 19.2539 39.4687 20.8391 39.4687 22.7606V31.7917L47.9953 23.265C50.205 21.0553 54 22.6405 54 25.739C54 27.3722 52.9432 28.309 51.8623 29.3178C50.6614 30.4707 41.174 40.1502 40.8617 40.2703L39.4687 40.6786V42.2398C39.4687 44.1613 37.9074 45.7226 35.9859 45.7226ZM38.3878 32.8725V26.8919H14.0808V42.2398C14.0808 43.5609 15.1617 44.6417 16.5067 44.6417H35.9859C37.307 44.6417 38.3878 43.5609 38.3878 42.2398V41.0149L34.8571 42.0477L34.6889 42.0717H30.8699C30.1494 42.0717 30.1494 40.9909 30.8699 40.9909H34.2806C34.5208 40.1742 35.7698 35.7788 35.9619 35.3705C36.058 35.1063 38.0275 33.2328 38.3878 32.8725ZM38.3878 25.811V22.7606C38.3878 21.4396 37.307 20.3588 35.9859 20.3588H16.5067C15.1617 20.3588 14.0808 21.4396 14.0808 22.7606V25.811H38.3878ZM28.2759 34.2176C27.8196 34.2176 27.5554 33.6171 27.8916 33.2809L29.3327 31.8397L27.8916 30.3986C27.3872 29.8942 28.1558 29.1256 28.6602 29.63L30.4856 31.4554C30.7018 31.6716 30.7018 32.0079 30.4856 32.224L28.6602 34.0495C28.5641 34.1695 28.42 34.2176 28.2759 34.2176ZM24.1927 34.2176C24.0486 34.2176 23.9285 34.1695 23.8084 34.0495L21.983 32.224C21.7668 32.0079 21.7668 31.6716 21.983 31.4554L23.8084 29.63C24.3128 29.1256 25.0814 29.8942 24.577 30.3986L23.1359 31.8397L24.577 33.2809C24.9373 33.6171 24.6731 34.2176 24.1927 34.2176ZM25.754 34.2896C25.3937 34.2896 25.1295 33.9294 25.2255 33.5931L26.2103 29.9182C26.3784 29.2217 27.4353 29.5099 27.2671 30.1824L26.2583 33.8813C26.2103 34.1215 25.9941 34.2896 25.754 34.2896ZM34.7129 36.8356H17.7557C17.0592 36.8356 17.0592 35.7308 17.7557 35.7308H34.7129C35.4095 35.7308 35.4095 36.8356 34.7129 36.8356ZM24.4329 39.4537H17.7797C17.0592 39.4537 17.0592 38.3728 17.7797 38.3728H24.4329C25.1535 38.3728 25.1535 39.4537 24.4329 39.4537ZM33.6081 39.4537H28.0357C27.3392 39.4537 27.3392 38.3728 28.0357 38.3728H33.6081C34.3286 38.3728 34.3286 39.4537 33.6081 39.4537ZM21.5987 42.0717H17.7797C17.0592 42.0717 17.0592 40.9909 17.7797 40.9909H21.5987C22.3193 40.9909 22.3193 42.0717 21.5987 42.0717ZM28.1558 42.0717H24.3128C23.6163 42.0717 23.6163 40.9909 24.3128 40.9909H28.1558C28.8524 40.9909 28.8524 42.0717 28.1558 42.0717ZM36.7065 36.6195L35.5056 40.7267L39.6128 39.5017L36.7065 36.6195ZM37.2349 35.5867L40.6456 38.9973L50.7334 28.9335L47.2988 25.4988L37.2349 35.5867ZM51.502 28.1408C52.1986 27.4443 52.8951 26.8438 52.8951 25.739C52.8951 23.6013 50.2771 22.5205 48.7639 24.0336L48.0674 24.7302L51.502 28.1408ZM41.7264 35.0102C41.246 35.0102 40.9818 34.4338 41.3181 34.0975L46.314 29.1016C46.8184 28.5972 47.587 29.3658 47.0826 29.8702L42.1107 34.8661C41.9906 34.9622 41.8465 35.0102 41.7264 35.0102ZM36.082 23.6253H32.0709C31.3743 23.6253 31.3743 22.5205 32.0709 22.5205H36.082C36.8026 22.5205 36.8026 23.6253 36.082 23.6253ZM18.0439 23.6253H16.3866C15.6901 23.6253 15.6901 22.5205 16.3866 22.5205H18.0439C18.7405 22.5205 18.7405 23.6253 18.0439 23.6253ZM21.5747 23.6253H19.9174C19.2209 23.6253 19.2209 22.5205 19.9174 22.5205H21.5747C22.2712 22.5205 22.2712 23.6253 21.5747 23.6253Z" fill="#000002"/>
<path fill-rule="evenodd" clip-rule="evenodd" d="M25.1054 22.5201C25.802 22.5201 25.802 23.6249 25.1054 23.6249H23.4481C22.7276 23.6249 22.7276 22.5201 23.4481 22.5201H25.1054ZM14.0808 25.8107H38.3878V22.7603C38.3878 21.4392 37.3069 20.3584 35.9859 20.3584H16.5067C15.1617 20.3584 14.0808 21.4392 14.0808 22.7603V25.8107ZM32.0709 23.6249C31.3743 23.6249 31.3743 22.5201 32.0709 22.5201H36.082C36.8025 22.5201 36.8025 23.6249 36.082 23.6249H32.0709ZM21.5747 22.5201C22.2712 22.5201 22.2712 23.6249 21.5747 23.6249H19.9174C19.2208 23.6249 19.2208 22.5201 19.9174 22.5201H21.5747ZM18.0439 22.5201C18.7404 22.5201 18.7404 23.6249 18.0439 23.6249H16.3866C15.6901 23.6249 15.6901 22.5201 16.3866 22.5201H18.0439Z" fill="#2BB9C5"/>
<path fill-rule="evenodd" clip-rule="evenodd" d="M38.3878 26.8916H14.0808V42.2396C14.0808 43.5606 15.1617 44.6415 16.5067 44.6415H35.9859C37.3069 44.6415 38.3878 43.5606 38.3878 42.2396V41.0146L34.857 42.0474L34.6889 42.0714H30.8699C30.1494 42.0714 30.1494 40.9906 30.8699 40.9906H34.2806C34.5208 40.174 35.7697 35.7785 35.9619 35.3702C36.058 35.106 38.0275 33.2326 38.3878 32.8723V26.8916ZM30.4856 31.4552C30.7018 31.6713 30.7018 32.0076 30.4856 32.2238L28.6602 34.0492C28.5641 34.1693 28.42 34.2173 28.2759 34.2173C27.8195 34.2173 27.5553 33.6169 27.8916 33.2806L29.3327 31.8395L27.8916 30.3983C27.3872 29.8939 28.1558 29.1253 28.6602 29.6297L30.4856 31.4552ZM27.2671 30.1822L26.2583 33.8811C26.2103 34.1212 25.9941 34.2894 25.7539 34.2894C25.3936 34.2894 25.1294 33.9291 25.2255 33.5928L26.2103 29.918C26.3784 29.2214 27.4352 29.5096 27.2671 30.1822ZM24.577 33.2806C24.9373 33.6169 24.6731 34.2173 24.1927 34.2173C24.0486 34.2173 23.9285 34.1693 23.8084 34.0492L21.983 32.2238C21.7668 32.0076 21.7668 31.6713 21.983 31.4552L23.8084 29.6297C24.3128 29.1253 25.0814 29.8939 24.577 30.3983L23.1359 31.8395L24.577 33.2806ZM17.7557 35.7305H34.7129C35.4095 35.7305 35.4095 36.8354 34.7129 36.8354H17.7557C17.0591 36.8354 17.0591 35.7305 17.7557 35.7305ZM17.7797 38.3726H24.4329C25.1535 38.3726 25.1535 39.4534 24.4329 39.4534H17.7797C17.0591 39.4534 17.0591 38.3726 17.7797 38.3726ZM28.0357 38.3726H33.6081C34.3286 38.3726 34.3286 39.4534 33.6081 39.4534H28.0357C27.3392 39.4534 27.3392 38.3726 28.0357 38.3726ZM17.7797 40.9906H21.5987C22.3192 40.9906 22.3192 42.0714 21.5987 42.0714H17.7797C17.0591 42.0714 17.0591 40.9906 17.7797 40.9906ZM24.3128 40.9906H28.1558C28.8523 40.9906 28.8523 42.0714 28.1558 42.0714H24.3128C23.6163 42.0714 23.6163 40.9906 24.3128 40.9906Z" fill="#BCE2F6"/>
<path fill-rule="evenodd" clip-rule="evenodd" d="M36.7066 36.6191L35.5056 40.7263L39.6128 39.5014L36.7066 36.6191Z" fill="#E3B486"/>
<path fill-rule="evenodd" clip-rule="evenodd" d="M48.0674 24.7299L51.5021 28.1405C52.1986 27.444 52.8952 26.8435 52.8952 25.7387C52.8952 23.601 50.2771 22.5201 48.7639 24.0333L48.0674 24.7299Z" fill="#86E1A4"/>
<path fill-rule="evenodd" clip-rule="evenodd" d="M50.7334 28.9337L47.2987 25.499L37.2349 35.5869L40.6455 38.9976L50.7334 28.9337ZM47.0826 29.8704L42.1107 34.8663C41.9906 34.9624 41.8465 35.0104 41.7264 35.0104C41.246 35.0104 40.9818 34.434 41.3181 34.0977L46.3139 29.1018C46.8183 28.5974 47.5869 29.366 47.0826 29.8704Z" fill="#F1674F"/>
</svg>
