<svg width="280" height="341" viewBox="0 0 280 341" fill="none" xmlns="http://www.w3.org/2000/svg">
<style>


@-webkit-keyframes animate-svg-stroke-1 {
  0% {
    stroke-dashoffset: 4899.22216796875px;
    stroke-dasharray: 4899.22216796875px;
  }

  100% {
    stroke-dashoffset: 0;
    stroke-dasharray: 4899.22216796875px;
  }
}

@keyframes animate-svg-stroke-1 {
  0% {
    stroke-dashoffset: 4899.22216796875px;
    stroke-dasharray: 4899.22216796875px;
  }

  100% {
    stroke-dashoffset: 0;
    stroke-dasharray: 4899.22216796875px;
  }
}

.svg-elem-1 {
  -webkit-animation: animate-svg-stroke-1 3s linear 1s both infinite;
          animation: animate-svg-stroke-1 3s linear 1s both infinite;
}

@-webkit-keyframes animate-svg-stroke-2 {
  0% {
    stroke-dashoffset: 4899.22216796875px;
    stroke-dasharray: 4899.22216796875px;
  }

  100% {
    stroke-dashoffset: 0;
    stroke-dasharray: 4899.22216796875px;
  }
}

@keyframes animate-svg-stroke-2 {
  0% {
    stroke-dashoffset: 4899.22216796875px;
    stroke-dasharray: 4899.22216796875px;
  }

  100% {
    stroke-dashoffset: 0;
    stroke-dasharray: 4899.22216796875px;
  }
}

.svg-elem-2 {
  -webkit-animation: animate-svg-stroke-2 3s linear 1.12s both infinite;
          animation: animate-svg-stroke-2 3s linear 1.12s both infinite;
}
</style>
<mask id="path-1-inside-1_161_419" fill="white">
<path d="M278.726 338.174C255.244 338.135 270.377 338.19 246.056 338.24C212.397 338.307 183.836 338.365 176.773 338.162C177.342 335.559 178.348 329.342 178.983 321.952C179.459 316.433 179.743 310.209 179.517 304.277C179.1 293.457 181.532 284.469 182.791 279.812C183.091 278.709 183.325 277.84 183.446 277.236C183.668 276.125 183.512 275.474 182.764 275.326C182.694 275.314 182.631 275.306 182.581 275.306C181.941 275.306 180.749 276.764 179.63 279.418C178.625 281.796 177.498 285.241 176.645 289.513C175.861 293.442 175.3 298.091 175.273 303.295C175.234 310.232 174.606 317.607 174.076 323.815C173.495 330.605 173.032 336.066 173.795 338.431C165.564 338.529 120.742 338.985 88.2593 339.004C70.8021 339.016 56.9306 338.903 54.3115 338.54C54.3465 337.332 55.2391 334.316 56.5136 330.02C56.6929 329.408 56.8799 328.777 57.0748 328.118C74.345 323.967 92.2036 303.24 106.987 286.083C113.406 278.635 119.241 271.865 124.133 267.488C128.272 263.785 132.353 259.774 136.25 255.756C136.589 255.869 136.897 255.924 137.17 255.908C140.9 255.717 150.34 246.682 157.352 238.564C159.83 235.695 162.021 232.932 163.549 230.722C165.19 228.348 166.098 226.481 165.872 225.581C165.798 225.273 165.63 225.031 165.377 224.864H165.373C163.467 223.589 157.765 229.907 149.751 238.774C145.647 243.319 140.916 248.557 135.853 253.811C134.52 253.035 132.462 251.34 129.878 249.212C127.34 247.119 124.316 244.632 120.898 242.173C117.479 239.714 113.668 237.278 109.544 235.294C99.7454 230.578 87.6435 229.054 80.8422 228.2C78.683 227.927 77.1785 227.931 76.5822 227.873C79.1234 225.265 83.438 217.626 87.0511 210.295C88.7855 206.771 90.3796 203.334 91.5411 200.609C92.7337 197.803 93.4781 195.691 93.4665 194.915C93.4548 194.303 93.1858 193.948 92.6324 193.882C92.5077 193.866 92.379 193.874 92.2504 193.909C91.0733 194.233 86.7626 201.642 82.7365 209.476C79.4313 215.907 76.2431 222.673 75.1089 225.994C74.914 224.579 74.914 222.065 75.0816 218.776C75.37 213.093 76.286 205.302 77.6501 196.895C78.5544 191.333 79.5365 185.522 80.8344 179.855C82.1284 174.207 83.7342 168.711 85.8818 163.762C88.4191 157.915 92.9208 153.059 97.8006 149.352C98.7477 149.165 99.687 148.982 100.619 148.803C107.182 147.524 113.173 146.359 116.525 144.87C118.999 143.771 120.173 142.434 119.397 140.692C119.194 140.24 118.828 139.905 118.317 139.682C117.351 139.261 115.753 139.269 113.757 139.69C111.875 140.084 109.583 140.844 107.1 141.947C103.939 143.35 100.463 145.322 97.1341 147.809C94.4993 148.331 91.8295 148.881 89.261 149.477C85.1451 150.436 81.5516 151.2 78.2659 151.64C78.2114 149.422 78.0321 147.626 77.6969 146.367C74.571 134.647 60.1266 120.35 54.3231 114.605C54.0737 114.356 53.8632 114.149 53.2201 113.502C50.8192 111.105 47.6856 108.237 44.6766 106.44C41.4144 104.495 38.2768 103.801 36.1916 106.136C35.7278 106.654 35.5329 107.379 35.5524 108.256C32.5162 104.62 29.4566 100.991 26.7829 97.8185C22.3864 92.6036 19.0345 88.6281 18.5629 87.9226C17.7093 86.6403 16.2088 84.6097 14.4665 83.304C12.5333 81.8541 10.339 81.2578 8.33176 83.1948C7.66138 82.5985 6.71817 82.0723 5.74767 81.7644C5.63464 81.7294 5.52552 81.6982 5.41249 81.667C3.51826 76.0311 2.32172 70.5823 2.08397 65.6285L3.09733 66.026C13.6559 70.1848 22.3786 73.6224 28.603 74.9944C34.8158 76.3624 39.9801 76.3195 44.8208 76.2806C58.743 76.1675 69.9095 76.074 96.3974 111.694C116.942 139.324 134.227 143.225 148.75 146.503C159.476 148.924 168.658 150.993 176.454 162.429C184.44 174.141 185.024 195.823 185.597 217.209C185.691 220.717 185.788 224.221 185.913 227.623C186.248 236.783 187.082 245.552 187.776 252.876C187.862 253.753 187.944 254.61 188.022 255.444L187.862 256.734C187.055 263.169 186.459 267.94 186.599 270.52C186.7 272.387 187.242 273.354 188.384 273.287C190.302 273.182 190.695 269.889 190.399 264.448C190.259 261.938 189.994 258.905 189.674 255.491C191.49 240.918 194.125 218.585 192.059 194.63C190.27 173.829 184.588 155.744 177.596 140.38C170.615 125.051 162.325 112.419 155.305 102.507C152.113 98.0017 147.997 90.2651 143.086 81.0317C126.693 50.2019 101.492 2.81909 70.3811 0.57409C68.9312 0.468856 67.4813 0.402597 66.0237 0.371416C46.5202 -0.0261363 30.7428 6.60753 19.549 17.3999C8.35126 28.1884 1.74488 43.1239 0.575608 59.3339C0.489861 60.5461 0.431377 61.7933 0.407991 63.0678C0.404094 63.1145 0.404113 63.1574 0.404113 63.2042C0.372933 63.1925 0.345634 63.1808 0.314453 63.1691L0.376828 64.9581C0.376828 64.9581 0.404101 64.9698 0.415794 64.9737C0.571697 70.0678 1.73317 75.6764 3.62349 81.4799C3.01937 81.5306 2.45424 81.7099 1.99043 82.0568C1.56949 82.3725 1.24209 82.8168 1.0589 83.4053C0.51714 85.1164 5.05782 93.9132 10.5144 104.495C11.8708 107.126 13.2895 109.87 14.6887 112.622C16.0918 115.373 17.4833 118.14 18.789 120.818C21.451 126.267 23.4154 130.73 24.9666 134.261C26.6231 138.03 27.8196 140.746 28.9071 142.485C29.975 144.196 32.4422 146.756 35.3692 149.8C41.1649 155.822 48.8159 163.773 50.4334 170.064C51.435 173.969 48.999 186.905 45.3782 201.821C40.2841 222.806 32.8358 247.594 29.25 256.921C26.5919 263.828 26.0307 272.57 26.6153 281.39C27.4065 293.36 30.3102 305.52 32.9371 313.405C33.8297 316.083 34.8002 318.842 36.1448 321.216C37.5363 323.667 39.3175 325.71 41.808 326.848C46.1928 328.855 50.6945 329.284 55.2508 328.5L54.939 329.557C53.5163 334.351 52.5497 337.613 52.6823 338.942C52.7173 339.258 52.8304 339.503 52.998 339.694C53.2006 339.924 53.454 340.049 53.719 340.107C55.6639 340.524 70.0342 340.653 88.2593 340.645C123.938 340.622 174.489 340.072 175.167 340.053C175.354 340.049 175.545 340.025 175.725 339.971C175.873 339.924 176.009 339.858 176.13 339.768C182.573 340.006 211.656 339.947 246.056 339.877C270.377 339.827 255.244 339.772 278.726 339.811H279.545V338.174H278.726ZM150.963 239.877C157.944 232.148 163.042 226.505 164.27 226.212C164.141 226.801 163.381 228.079 162.2 229.794C160.703 231.954 158.556 234.666 156.112 237.492C149.779 244.827 141.547 252.922 137.825 254.123C142.603 249.13 147.066 244.192 150.963 239.877ZM84.1941 210.228C86.6613 205.434 89.1518 200.828 90.8122 198.076C90.5862 198.649 90.3211 199.284 90.0288 199.97C88.8829 202.667 87.3005 206.074 85.5778 209.57C82.4051 216.016 78.8506 222.806 76.9174 225.752C78.1607 222.428 81.1228 216.203 84.1941 210.228ZM107.763 143.444C110.129 142.391 112.307 141.67 114.092 141.296C115.761 140.945 117.02 140.902 117.67 141.187C117.795 141.241 117.873 141.3 117.9 141.358C118.197 142.025 117.398 142.691 115.862 143.373C112.834 144.722 107.279 145.833 101.129 147.033C103.386 145.587 105.646 144.383 107.763 143.444ZM188.294 271.65C188.294 271.65 188.283 271.225 188.236 270.43C188.154 268.938 188.349 266.572 188.696 263.481C188.719 263.843 188.743 264.194 188.758 264.537C189.004 268.957 188.949 271.615 188.294 271.65ZM2.04498 63.099C2.06836 61.9024 2.12683 60.6825 2.21647 59.4469C3.35456 43.6384 9.78556 29.0848 20.6832 18.5809C31.5808 8.08081 46.9567 1.62254 65.9886 2.0084C67.3722 2.03958 68.7948 2.10584 70.2642 2.21107C100.467 4.38981 125.407 51.2893 141.637 81.8034C146.555 91.0563 150.683 98.8124 153.968 103.451C160.93 113.284 169.161 125.819 176.099 141.062C183.021 156.278 188.649 174.18 190.423 194.767C192.145 214.761 190.567 233.657 188.945 247.789C188.376 241.62 187.811 234.705 187.55 227.565C187.421 224.108 187.328 220.643 187.234 217.166C186.654 195.542 186.065 173.611 177.81 161.501C169.652 149.535 160.177 147.4 149.108 144.901C134.859 141.686 117.893 137.854 97.7148 110.716C70.7319 74.4292 59.1912 74.5227 44.8092 74.6397C40.0736 74.6786 35.0184 74.7215 28.9577 73.3886C22.8385 72.04 14.1781 68.6296 3.69367 64.4982L2.0372 63.8473C2.0372 63.5978 2.04108 63.3484 2.04498 63.099ZM78.2854 153.293C81.6919 152.848 85.3907 152.069 89.6352 151.079C91.1825 150.716 92.7688 150.373 94.3551 150.046C90.251 153.605 86.6028 157.989 84.3773 163.115C82.1791 168.178 80.546 173.763 79.2364 179.488C77.9268 185.19 76.9408 191.037 76.0326 196.634C74.6568 205.095 73.733 212.953 73.4407 218.702C73.1523 224.404 73.5888 228.196 74.9374 228.769C75.0348 228.808 75.1479 228.816 75.2687 228.793C76.1612 229.26 78.0516 229.498 80.6435 229.825C87.3434 230.667 99.2661 232.168 108.831 236.771H108.835C116.895 240.649 123.821 246.351 128.837 250.479C131.207 252.431 133.167 254.045 134.707 254.992C130.946 258.862 127.017 262.709 123.037 266.268C118.056 270.727 112.198 277.528 105.748 285.011C91.3891 301.673 74.076 321.765 57.6127 326.286C59.0821 321.231 60.8048 314.984 62.282 307.968C65.6962 291.742 69.0871 272.215 70.8839 257.342C71.6829 250.728 72.1662 245.018 72.2013 240.895C72.2325 237.052 71.7843 234.479 70.7319 233.653C70.7436 233.571 70.7514 233.489 70.7553 233.411C70.7826 232.947 70.7982 232.176 70.8216 231.166C70.9034 227.553 71.0554 220.799 72.0298 212.848C72.5677 208.471 73.0861 204.437 73.6239 200.258C75.8066 183.339 78.2659 164.233 78.2854 153.293ZM7.56005 84.7578C7.61462 84.8279 7.70815 84.976 7.84457 85.1982C8.29279 89.6258 14.0729 99.6465 19.4983 107.789C21.2717 110.451 23.0061 112.926 24.495 114.929C25.9956 116.956 27.2428 118.499 28.0223 119.279C28.7395 119.996 29.3631 120.237 29.8503 119.91C30.9455 119.181 28.2873 115.112 24.7561 109.706C23.1309 107.219 21.3068 104.429 19.6035 101.72C16.3023 96.4622 13.1687 91.0718 11.1497 87.5913C10.3702 86.2506 9.75437 85.1943 9.34903 84.52C9.36851 84.4888 9.39192 84.4616 9.4153 84.4382C10.6742 83.1754 12.1514 83.6158 13.4844 84.6136C15.0317 85.775 16.4114 87.6498 17.2026 88.8346C17.7288 89.6258 21.1041 93.6326 25.5279 98.8787C28.833 102.8 32.7267 107.418 36.4372 111.881C37.5285 114.644 39.5046 117.903 41.656 120.916C42.9422 122.72 44.2869 124.439 45.5224 125.901C46.7696 127.374 47.9233 128.598 48.8237 129.401C49.9423 130.406 50.8777 130.804 51.4662 130.383C52.1639 129.888 51.5715 128.438 50.0709 126.337C47.6232 122.911 42.7707 116.94 37.5869 110.7C36.9906 109.102 36.8503 107.855 37.4116 107.227C38.8225 105.653 41.2351 106.3 43.8348 107.847C46.6878 109.55 49.7201 112.333 52.0547 114.668L53.1695 115.767C58.8794 121.422 73.0977 135.5 76.1106 146.788C76.4263 147.976 76.5978 149.695 76.6445 151.831C73.3004 152.174 70.2486 152.147 67.2319 151.597C63.4006 150.9 59.5849 149.364 55.2586 146.698C50.8816 144.005 45.9823 140.154 40.019 134.857C30.8519 126.715 20.4259 113.039 12.8101 98.6292C10.187 93.6598 7.89523 88.6086 6.11014 83.6743C6.73765 83.9783 7.26773 84.368 7.56005 84.7578ZM11.9097 92.1515C13.7182 95.2384 15.9203 98.9371 18.216 102.593C19.8647 105.216 21.4939 107.718 22.975 109.983C22.289 108.993 21.5796 107.956 20.8664 106.88C17.6275 102.024 14.2054 96.5168 11.9097 92.1515ZM28.9616 118.48C28.9655 118.511 28.9616 118.534 28.946 118.542C28.8291 118.62 28.8759 118.569 28.9616 118.48ZM42.4784 119.24C44.5948 121.851 46.4422 124.193 47.8181 126.037C47.4829 125.663 47.136 125.261 46.7774 124.84C45.5614 123.406 44.2479 121.722 42.9929 119.965C42.8175 119.723 42.6499 119.481 42.4784 119.24ZM50.332 128.769C50.5191 128.906 50.601 128.984 50.5152 129.046C50.4412 129.1 50.4178 128.972 50.332 128.769ZM42.4901 325.359C40.362 324.388 38.8069 322.588 37.5753 320.409C36.2969 318.152 35.3575 315.486 34.4962 312.894C31.9004 305.115 29.0357 293.114 28.2523 281.289C27.6832 272.671 28.2211 264.163 30.7818 257.506C34.3871 248.128 41.8626 223.246 46.9723 202.207C50.6477 187.069 53.0993 173.86 52.0197 169.663C50.2931 162.947 42.4745 154.821 36.5502 148.662C33.6894 145.692 31.2807 143.186 30.3024 141.619C29.2773 139.982 28.1003 137.309 26.4711 133.602C24.9082 130.048 22.9321 125.554 20.2661 120.101C17.5846 114.609 14.6653 108.958 11.9799 103.747C6.69088 93.4922 2.29442 84.9682 2.62961 83.8925C2.70367 83.6548 2.8284 83.4833 2.9804 83.3702C3.20257 83.2026 3.51827 83.1208 3.88074 83.113C3.97818 83.113 4.07953 83.113 4.18086 83.1169C6.0439 88.4839 8.50717 93.9911 11.3641 99.3932C19.0657 113.966 29.6281 127.822 38.9355 136.085C44.969 141.444 49.9423 145.346 54.4011 148.093C58.9106 150.872 62.9056 152.474 66.9474 153.211C70.0888 153.78 73.2381 153.823 76.664 153.48C76.6212 164.214 74.1735 183.222 72.0025 200.056C71.4062 204.698 70.8255 209.18 70.4006 212.649C69.4223 220.623 69.2703 227.471 69.1885 231.131C69.1651 232.09 69.1495 232.819 69.1222 233.322C69.1183 233.38 69.1105 233.439 69.1027 233.501C65.8405 234.573 60.0292 241.697 54.3972 250.249C47.6193 260.534 40.9545 272.948 39.3681 279.141C39.1889 279.839 39.0719 280.463 39.0213 281.008C39.0018 281.211 38.994 281.402 38.994 281.585C38.994 281.924 39.0252 282.232 39.0953 282.501C39.5201 284.204 40.288 284.236 41.3832 282.934C41.8587 282.369 42.4433 281.32 43.141 279.901C43.8036 278.557 44.6065 276.807 45.5224 274.807C47.1126 271.331 49.0575 267.09 51.3142 262.733C55.3989 254.852 60.5632 248.319 64.5153 243.327C67.115 240.041 69.2041 237.398 70.1746 235.368C70.4708 236.136 70.5877 238.069 70.5682 240.883C70.5331 244.909 70.0498 250.564 69.2547 257.151C67.4618 271.993 64.0827 291.466 60.6801 307.637C59.1288 315.007 57.2931 321.547 55.7769 326.723C51.248 327.647 46.793 327.327 42.494 325.359H42.4901ZM68.1011 235.769C67.0643 237.457 65.3221 239.663 63.2252 242.309C59.2302 247.361 53.9996 253.971 49.8526 261.98C47.5959 266.33 45.6354 270.614 44.0296 274.125C43.1332 276.082 42.3498 277.793 41.6677 279.177C41.2858 279.952 40.9467 280.599 40.6582 281.09C40.7011 280.646 40.8024 280.128 40.9506 279.547C42.4979 273.521 49.0614 261.314 55.7613 251.149C60.4813 243.981 65.1935 237.858 68.1011 235.769ZM175.167 338.073C174.524 337.921 175.031 331.957 175.713 323.952C176.243 317.747 176.871 310.381 176.91 303.303C176.941 298.24 177.49 293.691 178.258 289.836C178.999 286.145 179.934 283.109 180.807 280.88C179.474 285.904 177.494 294.33 177.88 304.335C178.102 310.166 177.818 316.332 177.346 321.82C176.664 329.759 175.627 336.171 175.167 338.073Z" class="svg-elem-1"></path>
</mask>
<path d="M278.726 338.174C255.244 338.135 270.377 338.19 246.056 338.24C212.397 338.307 183.836 338.365 176.773 338.162C177.342 335.559 178.348 329.342 178.983 321.952C179.459 316.433 179.743 310.209 179.517 304.277C179.1 293.457 181.532 284.469 182.791 279.812C183.091 278.709 183.325 277.84 183.446 277.236C183.668 276.125 183.512 275.474 182.764 275.326C182.694 275.314 182.631 275.306 182.581 275.306C181.941 275.306 180.749 276.764 179.63 279.418C178.625 281.796 177.498 285.241 176.645 289.513C175.861 293.442 175.3 298.091 175.273 303.295C175.234 310.232 174.606 317.607 174.076 323.815C173.495 330.605 173.032 336.066 173.795 338.431C165.564 338.529 120.742 338.985 88.2593 339.004C70.8021 339.016 56.9306 338.903 54.3115 338.54C54.3465 337.332 55.2391 334.316 56.5136 330.02C56.6929 329.408 56.8799 328.777 57.0748 328.118C74.345 323.967 92.2036 303.24 106.987 286.083C113.406 278.635 119.241 271.865 124.133 267.488C128.272 263.785 132.353 259.774 136.25 255.756C136.589 255.869 136.897 255.924 137.17 255.908C140.9 255.717 150.34 246.682 157.352 238.564C159.83 235.695 162.021 232.932 163.549 230.722C165.19 228.348 166.098 226.481 165.872 225.581C165.798 225.273 165.63 225.031 165.377 224.864H165.373C163.467 223.589 157.765 229.907 149.751 238.774C145.647 243.319 140.916 248.557 135.853 253.811C134.52 253.035 132.462 251.34 129.878 249.212C127.34 247.119 124.316 244.632 120.898 242.173C117.479 239.714 113.668 237.278 109.544 235.294C99.7454 230.578 87.6435 229.054 80.8422 228.2C78.683 227.927 77.1785 227.931 76.5822 227.873C79.1234 225.265 83.438 217.626 87.0511 210.295C88.7855 206.771 90.3796 203.334 91.5411 200.609C92.7337 197.803 93.4781 195.691 93.4665 194.915C93.4548 194.303 93.1858 193.948 92.6324 193.882C92.5077 193.866 92.379 193.874 92.2504 193.909C91.0733 194.233 86.7626 201.642 82.7365 209.476C79.4313 215.907 76.2431 222.673 75.1089 225.994C74.914 224.579 74.914 222.065 75.0816 218.776C75.37 213.093 76.286 205.302 77.6501 196.895C78.5544 191.333 79.5365 185.522 80.8344 179.855C82.1284 174.207 83.7342 168.711 85.8818 163.762C88.4191 157.915 92.9208 153.059 97.8006 149.352C98.7477 149.165 99.687 148.982 100.619 148.803C107.182 147.524 113.173 146.359 116.525 144.87C118.999 143.771 120.173 142.434 119.397 140.692C119.194 140.24 118.828 139.905 118.317 139.682C117.351 139.261 115.753 139.269 113.757 139.69C111.875 140.084 109.583 140.844 107.1 141.947C103.939 143.35 100.463 145.322 97.1341 147.809C94.4993 148.331 91.8295 148.881 89.261 149.477C85.1451 150.436 81.5516 151.2 78.2659 151.64C78.2114 149.422 78.0321 147.626 77.6969 146.367C74.571 134.647 60.1266 120.35 54.3231 114.605C54.0737 114.356 53.8632 114.149 53.2201 113.502C50.8192 111.105 47.6856 108.237 44.6766 106.44C41.4144 104.495 38.2768 103.801 36.1916 106.136C35.7278 106.654 35.5329 107.379 35.5524 108.256C32.5162 104.62 29.4566 100.991 26.7829 97.8185C22.3864 92.6036 19.0345 88.6281 18.5629 87.9226C17.7093 86.6403 16.2088 84.6097 14.4665 83.304C12.5333 81.8541 10.339 81.2578 8.33176 83.1948C7.66138 82.5985 6.71817 82.0723 5.74767 81.7644C5.63464 81.7294 5.52552 81.6982 5.41249 81.667C3.51826 76.0311 2.32172 70.5823 2.08397 65.6285L3.09733 66.026C13.6559 70.1848 22.3786 73.6224 28.603 74.9944C34.8158 76.3624 39.9801 76.3195 44.8208 76.2806C58.743 76.1675 69.9095 76.074 96.3974 111.694C116.942 139.324 134.227 143.225 148.75 146.503C159.476 148.924 168.658 150.993 176.454 162.429C184.44 174.141 185.024 195.823 185.597 217.209C185.691 220.717 185.788 224.221 185.913 227.623C186.248 236.783 187.082 245.552 187.776 252.876C187.862 253.753 187.944 254.61 188.022 255.444L187.862 256.734C187.055 263.169 186.459 267.94 186.599 270.52C186.7 272.387 187.242 273.354 188.384 273.287C190.302 273.182 190.695 269.889 190.399 264.448C190.259 261.938 189.994 258.905 189.674 255.491C191.49 240.918 194.125 218.585 192.059 194.63C190.27 173.829 184.588 155.744 177.596 140.38C170.615 125.051 162.325 112.419 155.305 102.507C152.113 98.0017 147.997 90.2651 143.086 81.0317C126.693 50.2019 101.492 2.81909 70.3811 0.57409C68.9312 0.468856 67.4813 0.402597 66.0237 0.371416C46.5202 -0.0261363 30.7428 6.60753 19.549 17.3999C8.35126 28.1884 1.74488 43.1239 0.575608 59.3339C0.489861 60.5461 0.431377 61.7933 0.407991 63.0678C0.404094 63.1145 0.404113 63.1574 0.404113 63.2042C0.372933 63.1925 0.345634 63.1808 0.314453 63.1691L0.376828 64.9581C0.376828 64.9581 0.404101 64.9698 0.415794 64.9737C0.571697 70.0678 1.73317 75.6764 3.62349 81.4799C3.01937 81.5306 2.45424 81.7099 1.99043 82.0568C1.56949 82.3725 1.24209 82.8168 1.0589 83.4053C0.51714 85.1164 5.05782 93.9132 10.5144 104.495C11.8708 107.126 13.2895 109.87 14.6887 112.622C16.0918 115.373 17.4833 118.14 18.789 120.818C21.451 126.267 23.4154 130.73 24.9666 134.261C26.6231 138.03 27.8196 140.746 28.9071 142.485C29.975 144.196 32.4422 146.756 35.3692 149.8C41.1649 155.822 48.8159 163.773 50.4334 170.064C51.435 173.969 48.999 186.905 45.3782 201.821C40.2841 222.806 32.8358 247.594 29.25 256.921C26.5919 263.828 26.0307 272.57 26.6153 281.39C27.4065 293.36 30.3102 305.52 32.9371 313.405C33.8297 316.083 34.8002 318.842 36.1448 321.216C37.5363 323.667 39.3175 325.71 41.808 326.848C46.1928 328.855 50.6945 329.284 55.2508 328.5L54.939 329.557C53.5163 334.351 52.5497 337.613 52.6823 338.942C52.7173 339.258 52.8304 339.503 52.998 339.694C53.2006 339.924 53.454 340.049 53.719 340.107C55.6639 340.524 70.0342 340.653 88.2593 340.645C123.938 340.622 174.489 340.072 175.167 340.053C175.354 340.049 175.545 340.025 175.725 339.971C175.873 339.924 176.009 339.858 176.13 339.768C182.573 340.006 211.656 339.947 246.056 339.877C270.377 339.827 255.244 339.772 278.726 339.811H279.545V338.174H278.726ZM150.963 239.877C157.944 232.148 163.042 226.505 164.27 226.212C164.141 226.801 163.381 228.079 162.2 229.794C160.703 231.954 158.556 234.666 156.112 237.492C149.779 244.827 141.547 252.922 137.825 254.123C142.603 249.13 147.066 244.192 150.963 239.877ZM84.1941 210.228C86.6613 205.434 89.1518 200.828 90.8122 198.076C90.5862 198.649 90.3211 199.284 90.0288 199.97C88.8829 202.667 87.3005 206.074 85.5778 209.57C82.4051 216.016 78.8506 222.806 76.9174 225.752C78.1607 222.428 81.1228 216.203 84.1941 210.228ZM107.763 143.444C110.129 142.391 112.307 141.67 114.092 141.296C115.761 140.945 117.02 140.902 117.67 141.187C117.795 141.241 117.873 141.3 117.9 141.358C118.197 142.025 117.398 142.691 115.862 143.373C112.834 144.722 107.279 145.833 101.129 147.033C103.386 145.587 105.646 144.383 107.763 143.444ZM188.294 271.65C188.294 271.65 188.283 271.225 188.236 270.43C188.154 268.938 188.349 266.572 188.696 263.481C188.719 263.843 188.743 264.194 188.758 264.537C189.004 268.957 188.949 271.615 188.294 271.65ZM2.04498 63.099C2.06836 61.9024 2.12683 60.6825 2.21647 59.4469C3.35456 43.6384 9.78556 29.0848 20.6832 18.5809C31.5808 8.08081 46.9567 1.62254 65.9886 2.0084C67.3722 2.03958 68.7948 2.10584 70.2642 2.21107C100.467 4.38981 125.407 51.2893 141.637 81.8034C146.555 91.0563 150.683 98.8124 153.968 103.451C160.93 113.284 169.161 125.819 176.099 141.062C183.021 156.278 188.649 174.18 190.423 194.767C192.145 214.761 190.567 233.657 188.945 247.789C188.376 241.62 187.811 234.705 187.55 227.565C187.421 224.108 187.328 220.643 187.234 217.166C186.654 195.542 186.065 173.611 177.81 161.501C169.652 149.535 160.177 147.4 149.108 144.901C134.859 141.686 117.893 137.854 97.7148 110.716C70.7319 74.4292 59.1912 74.5227 44.8092 74.6397C40.0736 74.6786 35.0184 74.7215 28.9577 73.3886C22.8385 72.04 14.1781 68.6296 3.69367 64.4982L2.0372 63.8473C2.0372 63.5978 2.04108 63.3484 2.04498 63.099ZM78.2854 153.293C81.6919 152.848 85.3907 152.069 89.6352 151.079C91.1825 150.716 92.7688 150.373 94.3551 150.046C90.251 153.605 86.6028 157.989 84.3773 163.115C82.1791 168.178 80.546 173.763 79.2364 179.488C77.9268 185.19 76.9408 191.037 76.0326 196.634C74.6568 205.095 73.733 212.953 73.4407 218.702C73.1523 224.404 73.5888 228.196 74.9374 228.769C75.0348 228.808 75.1479 228.816 75.2687 228.793C76.1612 229.26 78.0516 229.498 80.6435 229.825C87.3434 230.667 99.2661 232.168 108.831 236.771H108.835C116.895 240.649 123.821 246.351 128.837 250.479C131.207 252.431 133.167 254.045 134.707 254.992C130.946 258.862 127.017 262.709 123.037 266.268C118.056 270.727 112.198 277.528 105.748 285.011C91.3891 301.673 74.076 321.765 57.6127 326.286C59.0821 321.231 60.8048 314.984 62.282 307.968C65.6962 291.742 69.0871 272.215 70.8839 257.342C71.6829 250.728 72.1662 245.018 72.2013 240.895C72.2325 237.052 71.7843 234.479 70.7319 233.653C70.7436 233.571 70.7514 233.489 70.7553 233.411C70.7826 232.947 70.7982 232.176 70.8216 231.166C70.9034 227.553 71.0554 220.799 72.0298 212.848C72.5677 208.471 73.0861 204.437 73.6239 200.258C75.8066 183.339 78.2659 164.233 78.2854 153.293ZM7.56005 84.7578C7.61462 84.8279 7.70815 84.976 7.84457 85.1982C8.29279 89.6258 14.0729 99.6465 19.4983 107.789C21.2717 110.451 23.0061 112.926 24.495 114.929C25.9956 116.956 27.2428 118.499 28.0223 119.279C28.7395 119.996 29.3631 120.237 29.8503 119.91C30.9455 119.181 28.2873 115.112 24.7561 109.706C23.1309 107.219 21.3068 104.429 19.6035 101.72C16.3023 96.4622 13.1687 91.0718 11.1497 87.5913C10.3702 86.2506 9.75437 85.1943 9.34903 84.52C9.36851 84.4888 9.39192 84.4616 9.4153 84.4382C10.6742 83.1754 12.1514 83.6158 13.4844 84.6136C15.0317 85.775 16.4114 87.6498 17.2026 88.8346C17.7288 89.6258 21.1041 93.6326 25.5279 98.8787C28.833 102.8 32.7267 107.418 36.4372 111.881C37.5285 114.644 39.5046 117.903 41.656 120.916C42.9422 122.72 44.2869 124.439 45.5224 125.901C46.7696 127.374 47.9233 128.598 48.8237 129.401C49.9423 130.406 50.8777 130.804 51.4662 130.383C52.1639 129.888 51.5715 128.438 50.0709 126.337C47.6232 122.911 42.7707 116.94 37.5869 110.7C36.9906 109.102 36.8503 107.855 37.4116 107.227C38.8225 105.653 41.2351 106.3 43.8348 107.847C46.6878 109.55 49.7201 112.333 52.0547 114.668L53.1695 115.767C58.8794 121.422 73.0977 135.5 76.1106 146.788C76.4263 147.976 76.5978 149.695 76.6445 151.831C73.3004 152.174 70.2486 152.147 67.2319 151.597C63.4006 150.9 59.5849 149.364 55.2586 146.698C50.8816 144.005 45.9823 140.154 40.019 134.857C30.8519 126.715 20.4259 113.039 12.8101 98.6292C10.187 93.6598 7.89523 88.6086 6.11014 83.6743C6.73765 83.9783 7.26773 84.368 7.56005 84.7578ZM11.9097 92.1515C13.7182 95.2384 15.9203 98.9371 18.216 102.593C19.8647 105.216 21.4939 107.718 22.975 109.983C22.289 108.993 21.5796 107.956 20.8664 106.88C17.6275 102.024 14.2054 96.5168 11.9097 92.1515ZM28.9616 118.48C28.9655 118.511 28.9616 118.534 28.946 118.542C28.8291 118.62 28.8759 118.569 28.9616 118.48ZM42.4784 119.24C44.5948 121.851 46.4422 124.193 47.8181 126.037C47.4829 125.663 47.136 125.261 46.7774 124.84C45.5614 123.406 44.2479 121.722 42.9929 119.965C42.8175 119.723 42.6499 119.481 42.4784 119.24ZM50.332 128.769C50.5191 128.906 50.601 128.984 50.5152 129.046C50.4412 129.1 50.4178 128.972 50.332 128.769ZM42.4901 325.359C40.362 324.388 38.8069 322.588 37.5753 320.409C36.2969 318.152 35.3575 315.486 34.4962 312.894C31.9004 305.115 29.0357 293.114 28.2523 281.289C27.6832 272.671 28.2211 264.163 30.7818 257.506C34.3871 248.128 41.8626 223.246 46.9723 202.207C50.6477 187.069 53.0993 173.86 52.0197 169.663C50.2931 162.947 42.4745 154.821 36.5502 148.662C33.6894 145.692 31.2807 143.186 30.3024 141.619C29.2773 139.982 28.1003 137.309 26.4711 133.602C24.9082 130.048 22.9321 125.554 20.2661 120.101C17.5846 114.609 14.6653 108.958 11.9799 103.747C6.69088 93.4922 2.29442 84.9682 2.62961 83.8925C2.70367 83.6548 2.8284 83.4833 2.9804 83.3702C3.20257 83.2026 3.51827 83.1208 3.88074 83.113C3.97818 83.113 4.07953 83.113 4.18086 83.1169C6.0439 88.4839 8.50717 93.9911 11.3641 99.3932C19.0657 113.966 29.6281 127.822 38.9355 136.085C44.969 141.444 49.9423 145.346 54.4011 148.093C58.9106 150.872 62.9056 152.474 66.9474 153.211C70.0888 153.78 73.2381 153.823 76.664 153.48C76.6212 164.214 74.1735 183.222 72.0025 200.056C71.4062 204.698 70.8255 209.18 70.4006 212.649C69.4223 220.623 69.2703 227.471 69.1885 231.131C69.1651 232.09 69.1495 232.819 69.1222 233.322C69.1183 233.38 69.1105 233.439 69.1027 233.501C65.8405 234.573 60.0292 241.697 54.3972 250.249C47.6193 260.534 40.9545 272.948 39.3681 279.141C39.1889 279.839 39.0719 280.463 39.0213 281.008C39.0018 281.211 38.994 281.402 38.994 281.585C38.994 281.924 39.0252 282.232 39.0953 282.501C39.5201 284.204 40.288 284.236 41.3832 282.934C41.8587 282.369 42.4433 281.32 43.141 279.901C43.8036 278.557 44.6065 276.807 45.5224 274.807C47.1126 271.331 49.0575 267.09 51.3142 262.733C55.3989 254.852 60.5632 248.319 64.5153 243.327C67.115 240.041 69.2041 237.398 70.1746 235.368C70.4708 236.136 70.5877 238.069 70.5682 240.883C70.5331 244.909 70.0498 250.564 69.2547 257.151C67.4618 271.993 64.0827 291.466 60.6801 307.637C59.1288 315.007 57.2931 321.547 55.7769 326.723C51.248 327.647 46.793 327.327 42.494 325.359H42.4901ZM68.1011 235.769C67.0643 237.457 65.3221 239.663 63.2252 242.309C59.2302 247.361 53.9996 253.971 49.8526 261.98C47.5959 266.33 45.6354 270.614 44.0296 274.125C43.1332 276.082 42.3498 277.793 41.6677 279.177C41.2858 279.952 40.9467 280.599 40.6582 281.09C40.7011 280.646 40.8024 280.128 40.9506 279.547C42.4979 273.521 49.0614 261.314 55.7613 251.149C60.4813 243.981 65.1935 237.858 68.1011 235.769ZM175.167 338.073C174.524 337.921 175.031 331.957 175.713 323.952C176.243 317.747 176.871 310.381 176.91 303.303C176.941 298.24 177.49 293.691 178.258 289.836C178.999 286.145 179.934 283.109 180.807 280.88C179.474 285.904 177.494 294.33 177.88 304.335C178.102 310.166 177.818 316.332 177.346 321.82C176.664 329.759 175.627 336.171 175.167 338.073Z" stroke="black" stroke-width="2" mask="url(#path-1-inside-1_161_419)" class="svg-elem-2"></path>
</svg>
