<svg width="312" height="673" viewBox="0 0 312 673" fill="none" xmlns="http://www.w3.org/2000/svg">
<g clip-path="url(#clip0_61_33751)">
<rect x="0.921875" y="0.201172" width="310.527" height="672.395" rx="35.5469" fill="#FFF4EE"/>
<g clip-path="url(#clip1_61_33751)">
<g opacity="0.8">
<g filter="url(#filter0_f_61_33751)">
<circle cx="23.8712" cy="107.548" r="107.649" fill="#FFCFC3"/>
</g>
</g>
<g opacity="0.8">
<g filter="url(#filter1_f_61_33751)">
<circle cx="311.213" cy="39.4483" r="107.649" fill="#FFCFC3"/>
</g>
</g>
<g opacity="0.8">
<g filter="url(#filter2_f_61_33751)">
<circle cx="23.8712" cy="-26.8232" r="107.649" fill="#FFCFC3"/>
</g>
</g>
<g opacity="0.8">
<g filter="url(#filter3_f_61_33751)">
<circle cx="311.686" cy="565.249" r="107.649" fill="#FFCFC3"/>
</g>
</g>
</g>
<rect x="281.559" y="16.209" width="14.9053" height="6.07254" rx="1.1041" fill="#151515"/>
<path fill-rule="evenodd" clip-rule="evenodd" d="M269.414 16.4435C271.257 16.4436 273.028 17.1508 274.364 18.4191C274.464 18.517 274.625 18.5158 274.724 18.4163L275.685 17.4472C275.735 17.3968 275.763 17.3284 275.763 17.2573C275.762 17.1863 275.733 17.1183 275.683 17.0684C272.178 13.7129 266.65 13.7129 263.145 17.0684C263.095 17.1182 263.066 17.1862 263.065 17.2573C263.065 17.3284 263.093 17.3967 263.143 17.4472L264.104 18.4163C264.203 18.5159 264.364 18.5172 264.465 18.4191C265.8 17.1507 267.572 16.4435 269.414 16.4435ZM269.414 19.597C270.427 19.5969 271.403 19.9728 272.153 20.6517C272.254 20.748 272.414 20.7459 272.513 20.647L273.473 19.6779C273.524 19.627 273.552 19.5581 273.551 19.4864C273.55 19.4147 273.521 19.3464 273.469 19.2966C271.184 17.1731 267.646 17.1731 265.361 19.2966C265.31 19.3464 265.28 19.4148 265.28 19.4865C265.279 19.5581 265.307 19.6271 265.358 19.6779L266.317 20.647C266.416 20.7459 266.576 20.748 266.678 20.6517C267.428 19.9733 268.403 19.5974 269.414 19.597ZM271.337 21.718C271.339 21.7899 271.31 21.8592 271.259 21.9095L269.599 23.5839C269.55 23.6331 269.484 23.6608 269.414 23.6608C269.345 23.6608 269.279 23.6331 269.23 23.5839L267.569 21.9095C267.518 21.8591 267.49 21.7898 267.491 21.718C267.493 21.6461 267.524 21.578 267.577 21.5299C268.638 20.6337 270.191 20.6337 271.251 21.5299C271.305 21.5781 271.336 21.6462 271.337 21.718Z" fill="#151515"/>
<path fill-rule="evenodd" clip-rule="evenodd" d="M258.097 14.8291H257.269C256.811 14.8291 256.441 15.1998 256.441 15.6572V22.8338C256.441 23.2911 256.811 23.6619 257.269 23.6619H258.097C258.554 23.6619 258.925 23.2911 258.925 22.8338V15.6572C258.925 15.1998 258.554 14.8291 258.097 14.8291ZM253.404 16.7618H254.232C254.69 16.7618 255.061 17.1326 255.061 17.5899V22.8343C255.061 23.2917 254.69 23.6624 254.232 23.6624H253.404C252.947 23.6624 252.576 23.2917 252.576 22.8343V17.5899C252.576 17.1326 252.947 16.7618 253.404 16.7618ZM250.368 18.6929H249.54C249.083 18.6929 248.712 19.0636 248.712 19.521V22.8333C248.712 23.2906 249.083 23.6613 249.54 23.6613H250.368C250.825 23.6613 251.196 23.2906 251.196 22.8333V19.521C251.196 19.0636 250.825 18.6929 250.368 18.6929ZM246.504 20.349H245.676C245.218 20.349 244.848 20.7198 244.848 21.1771V22.8333C244.848 23.2906 245.218 23.6613 245.676 23.6613H246.504C246.961 23.6613 247.332 23.2906 247.332 22.8333V21.1771C247.332 20.7198 246.961 20.349 246.504 20.349Z" fill="#151515"/>
<path d="M32.9169 23.7833C31.4168 23.7833 30.2451 22.8889 30.013 21.5756H31.4621C31.6432 22.1927 32.2263 22.6002 32.9395 22.6002C34.1452 22.6002 34.8698 21.4681 34.8472 19.4925C34.8472 19.4925 34.8415 19.4925 34.8358 19.4925H34.8302H34.8245C34.5075 20.2907 33.6698 20.8284 32.6112 20.8284C31.0602 20.8284 29.8998 19.6793 29.8998 18.1283C29.8998 16.4754 31.1847 15.281 32.9508 15.281C34.1509 15.281 35.1245 15.8584 35.668 16.8999C36.0529 17.5679 36.251 18.4227 36.251 19.4416C36.251 22.1644 35.0113 23.7833 32.9169 23.7833ZM32.9565 19.685C33.8905 19.685 34.5981 19.0057 34.5981 18.1057C34.5981 17.1943 33.8849 16.4811 32.9678 16.4811C32.0565 16.4811 31.3376 17.1886 31.3376 18.083C31.3376 19.0057 32.0282 19.685 32.9565 19.685ZM38.0683 22.4247C37.6098 22.4247 37.2532 22.0681 37.2532 21.6096C37.2532 21.1568 37.6098 20.7945 38.0683 20.7945C38.5212 20.7945 38.8778 21.1568 38.8778 21.6096C38.8778 22.0681 38.5212 22.4247 38.0683 22.4247ZM38.0683 18.3377C37.6098 18.3377 37.2532 17.9755 37.2532 17.5226C37.2532 17.0698 37.6098 16.7075 38.0683 16.7075C38.5212 16.7075 38.8778 17.0698 38.8778 17.5226C38.8778 17.9755 38.5212 18.3377 38.0683 18.3377ZM43.8933 23.6191V22.0738H39.8177V20.8171C40.5253 19.4812 41.4366 18.0264 43.2084 15.4508H45.2859V20.8794H46.384V22.0738H45.2859V23.6191H43.8933ZM41.1423 20.8737V20.9133H43.916V16.532H43.8933C42.5744 18.4453 41.7932 19.651 41.1423 20.8737ZM49.1353 23.6191V16.8433H49.1014L46.99 18.3264V16.9509L49.124 15.4508H50.5675V23.6191H49.1353Z" fill="#151515"/>
<path d="M95.0448 442.441V422.453H98.326V439.652H106.816V442.441H95.0448ZM115.976 427.02C117.325 427.02 118.483 427.298 119.449 427.854C120.415 428.41 121.158 429.198 121.678 430.219C122.197 431.24 122.457 432.461 122.457 433.883V435.605H112.353C112.39 437.073 112.782 438.203 113.529 438.996C114.286 439.789 115.343 440.186 116.701 440.186C117.667 440.186 118.533 440.094 119.299 439.912C120.073 439.721 120.871 439.443 121.691 439.078V441.689C120.935 442.045 120.165 442.305 119.381 442.469C118.597 442.633 117.658 442.715 116.564 442.715C115.079 442.715 113.771 442.428 112.64 441.854C111.519 441.27 110.64 440.404 110.002 439.256C109.373 438.107 109.058 436.681 109.058 434.977C109.058 433.281 109.346 431.841 109.92 430.656C110.494 429.471 111.301 428.569 112.34 427.949C113.379 427.329 114.591 427.02 115.976 427.02ZM115.976 429.439C114.965 429.439 114.144 429.768 113.515 430.424C112.896 431.08 112.531 432.042 112.422 433.309H119.312C119.303 432.552 119.176 431.882 118.93 431.299C118.693 430.715 118.328 430.26 117.836 429.932C117.353 429.604 116.733 429.439 115.976 429.439ZM131.713 440.117C132.132 440.117 132.547 440.081 132.957 440.008C133.367 439.926 133.741 439.83 134.078 439.721V442.154C133.723 442.309 133.262 442.441 132.697 442.551C132.132 442.66 131.544 442.715 130.933 442.715C130.077 442.715 129.307 442.574 128.623 442.291C127.939 441.999 127.397 441.503 126.996 440.801C126.595 440.099 126.394 439.128 126.394 437.889V429.754H124.33V428.318L126.545 427.184L127.598 423.943H129.621V427.307H133.955V429.754H129.621V437.848C129.621 438.613 129.812 439.183 130.195 439.557C130.578 439.93 131.084 440.117 131.713 440.117ZM144.756 442.441V422.453H148.037V442.441H144.756ZM158.619 440.117C159.038 440.117 159.453 440.081 159.863 440.008C160.273 439.926 160.647 439.83 160.984 439.721V442.154C160.629 442.309 160.168 442.441 159.603 442.551C159.038 442.66 158.45 442.715 157.84 442.715C156.983 442.715 156.213 442.574 155.529 442.291C154.846 441.999 154.303 441.503 153.902 440.801C153.501 440.099 153.301 439.128 153.301 437.889V429.754H151.236V428.318L153.451 427.184L154.504 423.943H156.527V427.307H160.861V429.754H156.527V437.848C156.527 438.613 156.719 439.183 157.101 439.557C157.484 439.93 157.99 440.117 158.619 440.117ZM189.408 432.42C189.408 433.96 189.212 435.364 188.82 436.631C188.437 437.889 187.859 438.973 187.084 439.885C186.309 440.787 185.338 441.484 184.172 441.977C183.005 442.469 181.638 442.715 180.07 442.715C178.475 442.715 177.09 442.469 175.914 441.977C174.747 441.484 173.777 440.783 173.002 439.871C172.236 438.96 171.662 437.87 171.279 436.604C170.896 435.337 170.705 433.933 170.705 432.393C170.705 430.333 171.042 428.537 171.717 427.006C172.4 425.465 173.435 424.271 174.82 423.424C176.215 422.567 177.974 422.139 180.098 422.139C182.176 422.139 183.903 422.562 185.279 423.41C186.655 424.258 187.685 425.452 188.369 426.992C189.062 428.523 189.408 430.333 189.408 432.42ZM174.15 432.42C174.15 433.96 174.36 435.296 174.779 436.426C175.198 437.547 175.841 438.413 176.707 439.023C177.582 439.625 178.703 439.926 180.07 439.926C181.446 439.926 182.568 439.625 183.433 439.023C184.299 438.413 184.937 437.547 185.348 436.426C185.758 435.296 185.963 433.96 185.963 432.42C185.963 430.077 185.493 428.245 184.555 426.924C183.625 425.593 182.139 424.928 180.098 424.928C178.73 424.928 177.605 425.229 176.721 425.83C175.846 426.432 175.198 427.293 174.779 428.414C174.36 429.526 174.15 430.861 174.15 432.42ZM206.566 427.307V442.441H204.037L203.599 440.404H203.422C203.103 440.924 202.697 441.357 202.205 441.703C201.713 442.04 201.166 442.291 200.564 442.455C199.963 442.628 199.329 442.715 198.664 442.715C197.525 442.715 196.549 442.523 195.738 442.141C194.936 441.749 194.321 441.147 193.892 440.336C193.464 439.525 193.25 438.477 193.25 437.191V427.307H196.476V436.59C196.476 437.766 196.713 438.645 197.187 439.229C197.67 439.812 198.418 440.104 199.43 440.104C200.405 440.104 201.18 439.903 201.754 439.502C202.328 439.101 202.734 438.508 202.971 437.725C203.217 436.941 203.34 435.979 203.34 434.84V427.307H206.566ZM216.807 440.117C217.226 440.117 217.64 440.081 218.051 440.008C218.461 439.926 218.834 439.83 219.172 439.721V442.154C218.816 442.309 218.356 442.441 217.791 442.551C217.226 442.66 216.638 442.715 216.027 442.715C215.17 442.715 214.4 442.574 213.717 442.291C213.033 441.999 212.491 441.503 212.09 440.801C211.689 440.099 211.488 439.128 211.488 437.889V429.754H209.424V428.318L211.639 427.184L212.691 423.943H214.715V427.307H219.049V429.754H214.715V437.848C214.715 438.613 214.906 439.183 215.289 439.557C215.672 439.93 216.178 440.117 216.807 440.117Z" fill="black"/>
<path d="M40.5137 468.02V479.332C40.5137 480.327 40.2611 481.095 39.7559 481.637C39.2559 482.178 38.5397 482.449 37.6074 482.449C37.1178 482.449 36.7324 482.379 36.4512 482.238V481.105C36.8262 481.21 37.2116 481.262 37.6074 481.262C38.123 481.262 38.5137 481.105 38.7793 480.793C39.0501 480.48 39.1855 480.03 39.1855 479.441V468.02H40.5137ZM50.4277 479.441H49.3574L49.1699 478.293H49.0996C48.834 478.715 48.4668 479.038 47.998 479.262C47.5293 479.486 46.9902 479.598 46.3809 479.598C45.3236 479.598 44.5397 479.35 44.0293 478.855C43.5189 478.355 43.2637 477.564 43.2637 476.48V470.879H44.5762V476.434C44.5762 477.137 44.735 477.66 45.0527 478.004C45.3757 478.342 45.873 478.512 46.5449 478.512C47.4408 478.512 48.0944 478.267 48.5059 477.777C48.9225 477.283 49.1309 476.483 49.1309 475.379V470.879H50.4277V479.441ZM60.2402 479.441H59.1855L59.0137 478.293H58.9434C58.3392 479.163 57.459 479.598 56.3027 479.598C55.1517 479.598 54.2637 479.215 53.6387 478.449C53.0189 477.678 52.709 476.59 52.709 475.184C52.709 473.772 53.0215 472.676 53.6465 471.895C54.2715 471.113 55.1517 470.723 56.2871 470.723C57.4277 470.723 58.3079 471.145 58.9277 471.988H59.0293L58.9746 471.371L58.9434 470.77V467.285H60.2402V479.441ZM58.9434 475.457V475.184C58.9434 473.97 58.7402 473.105 58.334 472.59C57.9434 472.074 57.3001 471.816 56.4043 471.816C55.6439 471.816 55.0605 472.111 54.6543 472.699C54.2533 473.283 54.0527 474.118 54.0527 475.207C54.0527 476.296 54.2533 477.118 54.6543 477.676C55.0553 478.233 55.6439 478.512 56.4199 478.512C57.3053 478.512 57.946 478.272 58.3418 477.793C58.7428 477.309 58.9434 476.53 58.9434 475.457ZM65.498 478.082H67.0137C67.9408 478.082 68.6517 478.277 69.1465 478.668C69.6465 479.059 69.8965 479.626 69.8965 480.371C69.8965 481.319 69.5163 482.04 68.7559 482.535C67.9954 483.035 66.8861 483.285 65.4277 483.285C64.3079 483.285 63.4434 483.077 62.834 482.66C62.2298 482.243 61.9277 481.655 61.9277 480.895C61.9277 480.374 62.0944 479.923 62.4277 479.543C62.7663 479.163 63.235 478.905 63.834 478.77C63.6048 478.665 63.4173 478.509 63.2715 478.301C63.1309 478.092 63.0605 477.845 63.0605 477.559C63.0605 477.267 63.1413 477.004 63.3027 476.77C63.4694 476.53 63.735 476.301 64.0996 476.082C63.6621 475.905 63.3001 475.595 63.0137 475.152C62.7376 474.71 62.5996 474.21 62.5996 473.652C62.5996 472.72 62.8809 471.999 63.4434 471.488C64.0059 470.978 64.8027 470.723 65.834 470.723C66.2715 470.723 66.6751 470.775 67.0449 470.879H70.0059V471.707L68.4199 471.887C68.7949 472.361 68.9824 472.931 68.9824 473.598C68.9824 474.436 68.696 475.105 68.123 475.605C67.5501 476.105 66.7637 476.355 65.7637 476.355C65.5241 476.355 65.2845 476.335 65.0449 476.293C64.4928 476.579 64.2168 476.947 64.2168 477.395C64.2168 477.634 64.3158 477.809 64.5137 477.918C64.7116 478.027 65.0397 478.082 65.498 478.082ZM65.7793 471.676C65.1647 471.676 64.6934 471.84 64.3652 472.168C64.0423 472.496 63.8809 472.97 63.8809 473.59C63.8809 474.204 64.0475 474.668 64.3809 474.98C64.7194 475.288 65.1934 475.441 65.8027 475.441C67.0684 475.441 67.7012 474.827 67.7012 473.598C67.7012 472.316 67.0605 471.676 65.7793 471.676ZM66.5996 479.246H65.0449C64.4512 479.246 63.9902 479.387 63.6621 479.668C63.3392 479.949 63.1777 480.337 63.1777 480.832C63.1777 481.806 63.9329 482.293 65.4434 482.293C66.5111 482.293 67.3105 482.134 67.8418 481.816C68.3783 481.499 68.6465 481.053 68.6465 480.48C68.6465 480.012 68.5033 479.689 68.2168 479.512C67.9303 479.335 67.3913 479.246 66.5996 479.246ZM81.0762 470.723C82.0553 470.723 82.7819 470.975 83.2559 471.48C83.735 471.986 83.9746 472.777 83.9746 473.855V479.441H82.6777V473.871C82.6777 473.184 82.5293 472.673 82.2324 472.34C81.9408 472.001 81.4902 471.832 80.8809 471.832C80.0736 471.832 79.4772 472.064 79.0918 472.527C78.7064 472.986 78.5137 473.697 78.5137 474.66V479.441H77.2168V473.871C77.2168 473.184 77.0684 472.673 76.7715 472.34C76.4798 472.001 76.0267 471.832 75.4121 471.832C74.5944 471.832 73.998 472.074 73.623 472.559C73.248 473.043 73.0605 473.84 73.0605 474.949V479.441H71.7637V470.879H72.8184L73.0293 472.051H73.0918C73.3366 471.634 73.6803 471.309 74.123 471.074C74.571 470.84 75.071 470.723 75.623 470.723C76.9564 470.723 77.8314 471.207 78.248 472.176H78.3105C78.5658 471.723 78.9355 471.368 79.4199 471.113C79.9095 470.853 80.4616 470.723 81.0762 470.723ZM90.2715 479.598C89.0059 479.598 88.0059 479.212 87.2715 478.441C86.5423 477.665 86.1777 476.59 86.1777 475.215C86.1777 473.84 86.5163 472.749 87.1934 471.941C87.8757 471.129 88.7715 470.723 89.8809 470.723C90.9954 470.723 91.8626 471.079 92.4824 471.793C93.1074 472.486 93.4199 473.413 93.4199 474.574V475.395H87.5215C87.5475 476.395 87.8001 477.158 88.2793 477.684C88.7585 478.204 89.4486 478.465 90.3496 478.465C91.2507 478.465 92.1491 478.272 93.0449 477.887V479.043C92.5918 479.241 92.1569 479.382 91.7402 479.465C91.3288 479.553 90.8392 479.598 90.2715 479.598ZM92.0293 474.34C92.0293 473.527 91.847 472.905 91.4824 472.473C91.1178 472.035 90.5944 471.816 89.9121 471.816C89.235 471.816 88.6908 472.038 88.2793 472.48C87.8678 472.923 87.6257 473.543 87.5527 474.34H92.0293ZM99.6855 470.723C100.727 470.723 101.506 470.975 102.021 471.48C102.537 471.986 102.795 472.777 102.795 473.855V479.441H101.498V473.902C101.498 473.199 101.337 472.678 101.014 472.34C100.696 472.001 100.201 471.832 99.5293 471.832C98.6283 471.832 97.9694 472.074 97.5527 472.559C97.1413 473.043 96.9355 473.84 96.9355 474.949V479.441H95.6387V470.879H96.6934L96.9043 472.051H96.9668C97.2324 471.629 97.6022 471.303 98.0762 471.074C98.5553 470.84 99.0918 470.723 99.6855 470.723ZM106.857 470.879H109.342V471.887H106.857V476.926C106.857 477.436 106.977 477.832 107.217 478.113C107.462 478.389 107.795 478.527 108.217 478.527C108.639 478.527 109.035 478.475 109.404 478.371V479.371C109.279 479.434 109.076 479.486 108.795 479.527C108.514 479.574 108.264 479.598 108.045 479.598C106.389 479.598 105.561 478.725 105.561 476.98V471.887H104.334V471.262L105.561 470.723L106.107 468.895H106.857V470.879ZM114.24 475.746H110.404V474.559H114.24V475.746ZM116.662 470.355C116.662 468.251 117.581 467.199 119.42 467.199C119.863 467.199 120.394 467.29 121.014 467.473L120.678 468.512C120.188 468.35 119.761 468.27 119.396 468.27C118.907 468.27 118.545 468.434 118.311 468.762C118.076 469.09 117.959 469.611 117.959 470.324V470.879H120.139V471.887H117.959V479.441H116.662V471.887H115.131V471.301L116.662 470.832V470.355ZM125.607 470.723C125.982 470.723 126.324 470.754 126.631 470.816L126.451 472.02C126.097 471.941 125.785 471.902 125.514 471.902C124.816 471.902 124.222 472.184 123.732 472.746C123.243 473.303 122.998 474.004 122.998 474.848V479.441H121.701V470.879H122.771L122.92 472.465H122.982C123.3 471.902 123.683 471.473 124.131 471.176C124.584 470.874 125.076 470.723 125.607 470.723ZM131.85 479.598C130.584 479.598 129.584 479.212 128.85 478.441C128.12 477.665 127.756 476.59 127.756 475.215C127.756 473.84 128.094 472.749 128.771 471.941C129.454 471.129 130.35 470.723 131.459 470.723C132.574 470.723 133.441 471.079 134.061 471.793C134.686 472.486 134.998 473.413 134.998 474.574V475.395H129.1C129.126 476.395 129.378 477.158 129.857 477.684C130.337 478.204 131.027 478.465 131.928 478.465C132.829 478.465 133.727 478.272 134.623 477.887V479.043C134.17 479.241 133.735 479.382 133.318 479.465C132.907 479.553 132.417 479.598 131.85 479.598ZM133.607 474.34C133.607 473.527 133.425 472.905 133.061 472.473C132.696 472.035 132.173 471.816 131.49 471.816C130.813 471.816 130.269 472.038 129.857 472.48C129.446 472.923 129.204 473.543 129.131 474.34H133.607ZM140.834 479.598C139.568 479.598 138.568 479.212 137.834 478.441C137.105 477.665 136.74 476.59 136.74 475.215C136.74 473.84 137.079 472.749 137.756 471.941C138.438 471.129 139.334 470.723 140.443 470.723C141.558 470.723 142.425 471.079 143.045 471.793C143.67 472.486 143.982 473.413 143.982 474.574V475.395H138.084C138.11 476.395 138.363 477.158 138.842 477.684C139.321 478.204 140.011 478.465 140.912 478.465C141.813 478.465 142.712 478.272 143.607 477.887V479.043C143.154 479.241 142.719 479.382 142.303 479.465C141.891 479.553 141.402 479.598 140.834 479.598ZM142.592 474.34C142.592 473.527 142.41 472.905 142.045 472.473C141.68 472.035 141.157 471.816 140.475 471.816C139.798 471.816 139.253 472.038 138.842 472.48C138.43 472.923 138.188 473.543 138.115 474.34H142.592ZM153.748 479.441H152.232L148.982 470.879H150.373L152.217 475.957C152.644 477.176 152.889 477.947 152.951 478.27H153.014C153.066 477.999 153.24 477.444 153.537 476.605C153.834 475.762 154.524 473.853 155.607 470.879H156.998L153.748 479.441ZM161.99 479.598C160.725 479.598 159.725 479.212 158.99 478.441C158.261 477.665 157.896 476.59 157.896 475.215C157.896 473.84 158.235 472.749 158.912 471.941C159.594 471.129 160.49 470.723 161.6 470.723C162.714 470.723 163.581 471.079 164.201 471.793C164.826 472.486 165.139 473.413 165.139 474.574V475.395H159.24C159.266 476.395 159.519 477.158 159.998 477.684C160.477 478.204 161.167 478.465 162.068 478.465C162.969 478.465 163.868 478.272 164.764 477.887V479.043C164.311 479.241 163.876 479.382 163.459 479.465C163.048 479.553 162.558 479.598 161.99 479.598ZM163.748 474.34C163.748 473.527 163.566 472.905 163.201 472.473C162.837 472.035 162.313 471.816 161.631 471.816C160.954 471.816 160.41 472.038 159.998 472.48C159.587 472.923 159.344 473.543 159.271 474.34H163.748ZM171.404 470.723C172.446 470.723 173.225 470.975 173.74 471.48C174.256 471.986 174.514 472.777 174.514 473.855V479.441H173.217V473.902C173.217 473.199 173.055 472.678 172.732 472.34C172.415 472.001 171.92 471.832 171.248 471.832C170.347 471.832 169.688 472.074 169.271 472.559C168.86 473.043 168.654 473.84 168.654 474.949V479.441H167.357V470.879H168.412L168.623 472.051H168.686C168.951 471.629 169.321 471.303 169.795 471.074C170.274 470.84 170.811 470.723 171.404 470.723ZM178.576 470.879H181.061V471.887H178.576V476.926C178.576 477.436 178.696 477.832 178.936 478.113C179.18 478.389 179.514 478.527 179.936 478.527C180.357 478.527 180.753 478.475 181.123 478.371V479.371C180.998 479.434 180.795 479.486 180.514 479.527C180.232 479.574 179.982 479.598 179.764 479.598C178.107 479.598 177.279 478.725 177.279 476.98V471.887H176.053V471.262L177.279 470.723L177.826 468.895H178.576V470.879ZM182.732 468.559C182.732 468.272 182.803 468.059 182.943 467.918C183.084 467.772 183.266 467.699 183.49 467.699C183.714 467.699 183.899 467.772 184.045 467.918C184.191 468.064 184.264 468.277 184.264 468.559C184.264 468.84 184.191 469.056 184.045 469.207C183.899 469.353 183.714 469.426 183.49 469.426C183.266 469.426 183.084 469.353 182.943 469.207C182.803 469.056 182.732 468.84 182.732 468.559ZM184.139 479.441H182.842V470.879H184.139V479.441ZM190.936 470.723C191.977 470.723 192.756 470.975 193.271 471.48C193.787 471.986 194.045 472.777 194.045 473.855V479.441H192.748V473.902C192.748 473.199 192.587 472.678 192.264 472.34C191.946 472.001 191.451 471.832 190.779 471.832C189.878 471.832 189.219 472.074 188.803 472.559C188.391 473.043 188.186 473.84 188.186 474.949V479.441H186.889V470.879H187.943L188.154 472.051H188.217C188.482 471.629 188.852 471.303 189.326 471.074C189.805 470.84 190.342 470.723 190.936 470.723ZM199.217 478.082H200.732C201.66 478.082 202.37 478.277 202.865 478.668C203.365 479.059 203.615 479.626 203.615 480.371C203.615 481.319 203.235 482.04 202.475 482.535C201.714 483.035 200.605 483.285 199.146 483.285C198.027 483.285 197.162 483.077 196.553 482.66C195.949 482.243 195.646 481.655 195.646 480.895C195.646 480.374 195.813 479.923 196.146 479.543C196.485 479.163 196.954 478.905 197.553 478.77C197.324 478.665 197.136 478.509 196.99 478.301C196.85 478.092 196.779 477.845 196.779 477.559C196.779 477.267 196.86 477.004 197.021 476.77C197.188 476.53 197.454 476.301 197.818 476.082C197.381 475.905 197.019 475.595 196.732 475.152C196.456 474.71 196.318 474.21 196.318 473.652C196.318 472.72 196.6 471.999 197.162 471.488C197.725 470.978 198.521 470.723 199.553 470.723C199.99 470.723 200.394 470.775 200.764 470.879H203.725V471.707L202.139 471.887C202.514 472.361 202.701 472.931 202.701 473.598C202.701 474.436 202.415 475.105 201.842 475.605C201.269 476.105 200.482 476.355 199.482 476.355C199.243 476.355 199.003 476.335 198.764 476.293C198.212 476.579 197.936 476.947 197.936 477.395C197.936 477.634 198.035 477.809 198.232 477.918C198.43 478.027 198.758 478.082 199.217 478.082ZM199.498 471.676C198.883 471.676 198.412 471.84 198.084 472.168C197.761 472.496 197.6 472.97 197.6 473.59C197.6 474.204 197.766 474.668 198.1 474.98C198.438 475.288 198.912 475.441 199.521 475.441C200.787 475.441 201.42 474.827 201.42 473.598C201.42 472.316 200.779 471.676 199.498 471.676ZM200.318 479.246H198.764C198.17 479.246 197.709 479.387 197.381 479.668C197.058 479.949 196.896 480.337 196.896 480.832C196.896 481.806 197.652 482.293 199.162 482.293C200.23 482.293 201.029 482.134 201.561 481.816C202.097 481.499 202.365 481.053 202.365 480.48C202.365 480.012 202.222 479.689 201.936 479.512C201.649 479.335 201.11 479.246 200.318 479.246ZM211.803 478.527C213.209 478.527 213.912 478.09 213.912 477.215C213.912 476.882 213.766 476.598 213.475 476.363C213.188 476.124 212.626 475.842 211.787 475.52C210.985 475.223 210.415 474.962 210.076 474.738C209.743 474.514 209.495 474.264 209.334 473.988C209.173 473.712 209.092 473.376 209.092 472.98C209.092 472.288 209.376 471.738 209.943 471.332C210.511 470.926 211.271 470.723 212.225 470.723C213.178 470.723 214.097 470.91 214.982 471.285L214.521 472.34C213.667 471.991 212.912 471.816 212.256 471.816C211.605 471.816 211.12 471.91 210.803 472.098C210.485 472.285 210.326 472.551 210.326 472.895C210.326 473.124 210.383 473.319 210.498 473.48C210.613 473.642 210.8 473.796 211.061 473.941C211.321 474.087 211.824 474.298 212.568 474.574C213.584 474.944 214.269 475.316 214.623 475.691C214.982 476.066 215.162 476.538 215.162 477.105C215.162 477.902 214.863 478.517 214.264 478.949C213.67 479.382 212.821 479.598 211.717 479.598C210.618 479.598 209.751 479.418 209.115 479.059V477.855C210.001 478.303 210.896 478.527 211.803 478.527ZM218.561 472.051C219.186 471.165 220.071 470.723 221.217 470.723C222.368 470.723 223.253 471.111 223.873 471.887C224.493 472.663 224.803 473.754 224.803 475.16C224.803 476.566 224.488 477.658 223.857 478.434C223.232 479.21 222.347 479.598 221.201 479.598C220.055 479.598 219.175 479.178 218.561 478.34H218.467C218.529 478.84 218.561 479.314 218.561 479.762V483.285H217.264V470.879H218.318L218.498 472.051H218.561ZM218.561 475.152C218.561 476.35 218.761 477.212 219.162 477.738C219.563 478.254 220.206 478.512 221.092 478.512C221.837 478.512 222.415 478.215 222.826 477.621C223.243 477.022 223.451 476.194 223.451 475.137C223.451 474.074 223.243 473.259 222.826 472.691C222.415 472.118 221.826 471.832 221.061 471.832C220.18 471.832 219.545 472.074 219.154 472.559C218.764 473.043 218.566 473.811 218.561 474.863V475.152ZM227.396 471.473C228.292 470.983 229.256 470.738 230.287 470.738C231.318 470.738 232.076 470.967 232.561 471.426C233.05 471.879 233.295 472.603 233.295 473.598V479.441H232.342L232.084 478.223H232.021C231.594 478.759 231.167 479.124 230.74 479.316C230.318 479.504 229.79 479.598 229.154 479.598C228.305 479.598 227.639 479.379 227.154 478.941C226.67 478.499 226.428 477.876 226.428 477.074C226.428 475.35 227.813 474.444 230.584 474.355L232.037 474.309V473.777C232.037 473.1 231.891 472.605 231.6 472.293C231.313 471.975 230.829 471.816 230.146 471.816C229.464 471.816 228.68 472.033 227.795 472.465L227.396 471.473ZM227.795 477.09C227.795 477.553 227.936 477.91 228.217 478.16C228.498 478.405 228.896 478.527 229.412 478.527C230.219 478.527 230.852 478.306 231.311 477.863C231.774 477.415 232.006 476.796 232.006 476.004V475.23L230.709 475.285C229.678 475.322 228.933 475.483 228.475 475.77C228.021 476.051 227.795 476.491 227.795 477.09ZM239.404 479.598C238.165 479.598 237.204 479.217 236.521 478.457C235.844 477.697 235.506 476.608 235.506 475.191C235.506 473.775 235.85 472.676 236.537 471.895C237.23 471.113 238.214 470.723 239.49 470.723C239.886 470.723 240.287 470.767 240.693 470.855C241.105 470.939 241.438 471.043 241.693 471.168L241.295 472.27C241.003 472.155 240.696 472.061 240.373 471.988C240.05 471.915 239.745 471.879 239.459 471.879C237.719 471.879 236.85 472.986 236.85 475.199C236.85 476.257 237.063 477.066 237.49 477.629C237.917 478.186 238.545 478.465 239.373 478.465C240.081 478.465 240.813 478.311 241.568 478.004V479.152C240.985 479.449 240.264 479.598 239.404 479.598ZM247.209 479.598C245.943 479.598 244.943 479.212 244.209 478.441C243.48 477.665 243.115 476.59 243.115 475.215C243.115 473.84 243.454 472.749 244.131 471.941C244.813 471.129 245.709 470.723 246.818 470.723C247.933 470.723 248.8 471.079 249.42 471.793C250.045 472.486 250.357 473.413 250.357 474.574V475.395H244.459C244.485 476.395 244.738 477.158 245.217 477.684C245.696 478.204 246.386 478.465 247.287 478.465C248.188 478.465 249.087 478.272 249.982 477.887V479.043C249.529 479.241 249.094 479.382 248.678 479.465C248.266 479.553 247.777 479.598 247.209 479.598ZM248.967 474.34C248.967 473.527 248.785 472.905 248.42 472.473C248.055 472.035 247.532 471.816 246.85 471.816C246.173 471.816 245.628 472.038 245.217 472.48C244.805 472.923 244.563 473.543 244.49 474.34H248.967ZM254.74 478.527C256.146 478.527 256.85 478.09 256.85 477.215C256.85 476.882 256.704 476.598 256.412 476.363C256.126 476.124 255.563 475.842 254.725 475.52C253.923 475.223 253.352 474.962 253.014 474.738C252.68 474.514 252.433 474.264 252.271 473.988C252.11 473.712 252.029 473.376 252.029 472.98C252.029 472.288 252.313 471.738 252.881 471.332C253.449 470.926 254.209 470.723 255.162 470.723C256.115 470.723 257.035 470.91 257.92 471.285L257.459 472.34C256.605 471.991 255.85 471.816 255.193 471.816C254.542 471.816 254.058 471.91 253.74 472.098C253.423 472.285 253.264 472.551 253.264 472.895C253.264 473.124 253.321 473.319 253.436 473.48C253.55 473.642 253.738 473.796 253.998 473.941C254.258 474.087 254.761 474.298 255.506 474.574C256.521 474.944 257.206 475.316 257.561 475.691C257.92 476.066 258.1 476.538 258.1 477.105C258.1 477.902 257.8 478.517 257.201 478.949C256.607 479.382 255.758 479.598 254.654 479.598C253.555 479.598 252.688 479.418 252.053 479.059V477.855C252.938 478.303 253.834 478.527 254.74 478.527ZM267.396 479.598C266.271 479.598 265.402 479.322 264.787 478.77C264.173 478.217 263.865 477.454 263.865 476.48C263.865 475.809 264.045 475.21 264.404 474.684C264.769 474.163 265.42 473.637 266.357 473.105C265.93 472.632 265.633 472.264 265.467 472.004C265.113 471.447 264.936 470.887 264.936 470.324C264.936 469.543 265.191 468.934 265.701 468.496C266.212 468.059 266.904 467.84 267.779 467.84C268.66 467.84 269.339 468.056 269.818 468.488C270.303 468.921 270.545 469.527 270.545 470.309C270.545 470.866 270.37 471.384 270.021 471.863C269.667 472.327 269.081 472.801 268.264 473.285L271.443 476.34C271.928 475.803 272.308 474.949 272.584 473.777H273.896C273.548 475.257 273.014 476.387 272.295 477.168L274.631 479.441H272.842L271.396 478.051C270.777 478.603 270.152 478.999 269.521 479.238C268.896 479.478 268.188 479.598 267.396 479.598ZM269.256 470.285C269.256 469.868 269.12 469.535 268.85 469.285C268.584 469.035 268.222 468.91 267.764 468.91C267.305 468.91 266.933 469.035 266.646 469.285C266.36 469.535 266.217 469.855 266.217 470.246C266.217 470.637 266.308 470.991 266.49 471.309C266.673 471.626 266.995 472.022 267.459 472.496C268.146 472.095 268.618 471.73 268.873 471.402C269.128 471.074 269.256 470.702 269.256 470.285ZM265.811 477.902C266.222 478.257 266.761 478.434 267.428 478.434C268.688 478.434 269.727 478.033 270.545 477.23L267.139 473.918C266.576 474.262 266.175 474.551 265.936 474.785C265.451 475.243 265.209 475.788 265.209 476.418C265.209 477.048 265.41 477.543 265.811 477.902ZM88.9434 498.082H90.459C91.3861 498.082 92.097 498.277 92.5918 498.668C93.0918 499.059 93.3418 499.626 93.3418 500.371C93.3418 501.319 92.9616 502.04 92.2012 502.535C91.4408 503.035 90.3314 503.285 88.873 503.285C87.7533 503.285 86.8887 503.077 86.2793 502.66C85.6751 502.243 85.373 501.655 85.373 500.895C85.373 500.374 85.5397 499.923 85.873 499.543C86.2116 499.163 86.6803 498.905 87.2793 498.77C87.0501 498.665 86.8626 498.509 86.7168 498.301C86.5762 498.092 86.5059 497.845 86.5059 497.559C86.5059 497.267 86.5866 497.004 86.748 496.77C86.9147 496.53 87.1803 496.301 87.5449 496.082C87.1074 495.905 86.7454 495.595 86.459 495.152C86.1829 494.71 86.0449 494.21 86.0449 493.652C86.0449 492.72 86.3262 491.999 86.8887 491.488C87.4512 490.978 88.248 490.723 89.2793 490.723C89.7168 490.723 90.1204 490.775 90.4902 490.879H93.4512V491.707L91.8652 491.887C92.2402 492.361 92.4277 492.931 92.4277 493.598C92.4277 494.436 92.1413 495.105 91.5684 495.605C90.9954 496.105 90.209 496.355 89.209 496.355C88.9694 496.355 88.7298 496.335 88.4902 496.293C87.9382 496.579 87.6621 496.947 87.6621 497.395C87.6621 497.634 87.7611 497.809 87.959 497.918C88.1569 498.027 88.485 498.082 88.9434 498.082ZM89.2246 491.676C88.61 491.676 88.1387 491.84 87.8105 492.168C87.4876 492.496 87.3262 492.97 87.3262 493.59C87.3262 494.204 87.4928 494.668 87.8262 494.98C88.1647 495.288 88.6387 495.441 89.248 495.441C90.5137 495.441 91.1465 494.827 91.1465 493.598C91.1465 492.316 90.5059 491.676 89.2246 491.676ZM90.0449 499.246H88.4902C87.8965 499.246 87.4355 499.387 87.1074 499.668C86.7845 499.949 86.623 500.337 86.623 500.832C86.623 501.806 87.3783 502.293 88.8887 502.293C89.9564 502.293 90.7559 502.134 91.2871 501.816C91.8236 501.499 92.0918 501.053 92.0918 500.48C92.0918 500.012 91.9486 499.689 91.6621 499.512C91.3757 499.335 90.8366 499.246 90.0449 499.246ZM102.279 499.441H101.209L101.021 498.293H100.951C100.686 498.715 100.318 499.038 99.8496 499.262C99.3809 499.486 98.8418 499.598 98.2324 499.598C97.1751 499.598 96.3913 499.35 95.8809 498.855C95.3704 498.355 95.1152 497.564 95.1152 496.48V490.879H96.4277V496.434C96.4277 497.137 96.5866 497.66 96.9043 498.004C97.2272 498.342 97.7246 498.512 98.3965 498.512C99.2923 498.512 99.946 498.267 100.357 497.777C100.774 497.283 100.982 496.483 100.982 495.379V490.879H102.279V499.441ZM104.928 488.559C104.928 488.272 104.998 488.059 105.139 487.918C105.279 487.772 105.462 487.699 105.686 487.699C105.91 487.699 106.094 487.772 106.24 487.918C106.386 488.064 106.459 488.277 106.459 488.559C106.459 488.84 106.386 489.056 106.24 489.207C106.094 489.353 105.91 489.426 105.686 489.426C105.462 489.426 105.279 489.353 105.139 489.207C104.998 489.056 104.928 488.84 104.928 488.559ZM106.334 499.441H105.037V490.879H106.334V499.441ZM116.139 499.441H115.084L114.912 498.293H114.842C114.238 499.163 113.357 499.598 112.201 499.598C111.05 499.598 110.162 499.215 109.537 498.449C108.917 497.678 108.607 496.59 108.607 495.184C108.607 493.772 108.92 492.676 109.545 491.895C110.17 491.113 111.05 490.723 112.186 490.723C113.326 490.723 114.206 491.145 114.826 491.988H114.928L114.873 491.371L114.842 490.77V487.285H116.139V499.441ZM114.842 495.457V495.184C114.842 493.97 114.639 493.105 114.232 492.59C113.842 492.074 113.199 491.816 112.303 491.816C111.542 491.816 110.959 492.111 110.553 492.699C110.152 493.283 109.951 494.118 109.951 495.207C109.951 496.296 110.152 497.118 110.553 497.676C110.954 498.233 111.542 498.512 112.318 498.512C113.204 498.512 113.844 498.272 114.24 497.793C114.641 497.309 114.842 496.53 114.842 495.457ZM122.514 499.598C121.248 499.598 120.248 499.212 119.514 498.441C118.785 497.665 118.42 496.59 118.42 495.215C118.42 493.84 118.758 492.749 119.436 491.941C120.118 491.129 121.014 490.723 122.123 490.723C123.238 490.723 124.105 491.079 124.725 491.793C125.35 492.486 125.662 493.413 125.662 494.574V495.395H119.764C119.79 496.395 120.042 497.158 120.521 497.684C121.001 498.204 121.691 498.465 122.592 498.465C123.493 498.465 124.391 498.272 125.287 497.887V499.043C124.834 499.241 124.399 499.382 123.982 499.465C123.571 499.553 123.081 499.598 122.514 499.598ZM124.271 494.34C124.271 493.527 124.089 492.905 123.725 492.473C123.36 492.035 122.837 491.816 122.154 491.816C121.477 491.816 120.933 492.038 120.521 492.48C120.11 492.923 119.868 493.543 119.795 494.34H124.271ZM134.936 499.441H133.881L133.709 498.293H133.639C133.035 499.163 132.154 499.598 130.998 499.598C129.847 499.598 128.959 499.215 128.334 498.449C127.714 497.678 127.404 496.59 127.404 495.184C127.404 493.772 127.717 492.676 128.342 491.895C128.967 491.113 129.847 490.723 130.982 490.723C132.123 490.723 133.003 491.145 133.623 491.988H133.725L133.67 491.371L133.639 490.77V487.285H134.936V499.441ZM133.639 495.457V495.184C133.639 493.97 133.436 493.105 133.029 492.59C132.639 492.074 131.995 491.816 131.1 491.816C130.339 491.816 129.756 492.111 129.35 492.699C128.949 493.283 128.748 494.118 128.748 495.207C128.748 496.296 128.949 497.118 129.35 497.676C129.751 498.233 130.339 498.512 131.115 498.512C132.001 498.512 132.641 498.272 133.037 497.793C133.438 497.309 133.639 496.53 133.639 495.457ZM145.756 490.723C146.131 490.723 146.472 490.754 146.779 490.816L146.6 492.02C146.245 491.941 145.933 491.902 145.662 491.902C144.964 491.902 144.37 492.184 143.881 492.746C143.391 493.303 143.146 494.004 143.146 494.848V499.441H141.85V490.879H142.92L143.068 492.465H143.131C143.449 491.902 143.831 491.473 144.279 491.176C144.732 490.874 145.225 490.723 145.756 490.723ZM151.998 499.598C150.732 499.598 149.732 499.212 148.998 498.441C148.269 497.665 147.904 496.59 147.904 495.215C147.904 493.84 148.243 492.749 148.92 491.941C149.602 491.129 150.498 490.723 151.607 490.723C152.722 490.723 153.589 491.079 154.209 491.793C154.834 492.486 155.146 493.413 155.146 494.574V495.395H149.248C149.274 496.395 149.527 497.158 150.006 497.684C150.485 498.204 151.175 498.465 152.076 498.465C152.977 498.465 153.876 498.272 154.771 497.887V499.043C154.318 499.241 153.883 499.382 153.467 499.465C153.055 499.553 152.566 499.598 151.998 499.598ZM153.756 494.34C153.756 493.527 153.574 492.905 153.209 492.473C152.844 492.035 152.321 491.816 151.639 491.816C150.962 491.816 150.417 492.038 150.006 492.48C149.594 492.923 149.352 493.543 149.279 494.34H153.756ZM157.748 490.355C157.748 488.251 158.667 487.199 160.506 487.199C160.949 487.199 161.48 487.29 162.1 487.473L161.764 488.512C161.274 488.35 160.847 488.27 160.482 488.27C159.993 488.27 159.631 488.434 159.396 488.762C159.162 489.09 159.045 489.611 159.045 490.324V490.879H161.225V491.887H159.045V499.441H157.748V491.887H156.217V491.301L157.748 490.832V490.355ZM164.084 499.441H162.787V487.285H164.084V499.441ZM170.451 499.598C169.186 499.598 168.186 499.212 167.451 498.441C166.722 497.665 166.357 496.59 166.357 495.215C166.357 493.84 166.696 492.749 167.373 491.941C168.055 491.129 168.951 490.723 170.061 490.723C171.175 490.723 172.042 491.079 172.662 491.793C173.287 492.486 173.6 493.413 173.6 494.574V495.395H167.701C167.727 496.395 167.98 497.158 168.459 497.684C168.938 498.204 169.628 498.465 170.529 498.465C171.43 498.465 172.329 498.272 173.225 497.887V499.043C172.771 499.241 172.337 499.382 171.92 499.465C171.508 499.553 171.019 499.598 170.451 499.598ZM172.209 494.34C172.209 493.527 172.027 492.905 171.662 492.473C171.298 492.035 170.774 491.816 170.092 491.816C169.415 491.816 168.87 492.038 168.459 492.48C168.048 492.923 167.805 493.543 167.732 494.34H172.209ZM179.24 499.598C178.001 499.598 177.04 499.217 176.357 498.457C175.68 497.697 175.342 496.608 175.342 495.191C175.342 493.775 175.686 492.676 176.373 491.895C177.066 491.113 178.05 490.723 179.326 490.723C179.722 490.723 180.123 490.767 180.529 490.855C180.941 490.939 181.274 491.043 181.529 491.168L181.131 492.27C180.839 492.155 180.532 492.061 180.209 491.988C179.886 491.915 179.581 491.879 179.295 491.879C177.555 491.879 176.686 492.986 176.686 495.199C176.686 496.257 176.899 497.066 177.326 497.629C177.753 498.186 178.381 498.465 179.209 498.465C179.917 498.465 180.649 498.311 181.404 498.004V499.152C180.821 499.449 180.1 499.598 179.24 499.598ZM184.818 490.879H187.303V491.887H184.818V496.926C184.818 497.436 184.938 497.832 185.178 498.113C185.423 498.389 185.756 498.527 186.178 498.527C186.6 498.527 186.995 498.475 187.365 498.371V499.371C187.24 499.434 187.037 499.486 186.756 499.527C186.475 499.574 186.225 499.598 186.006 499.598C184.35 499.598 183.521 498.725 183.521 496.98V491.887H182.295V491.262L183.521 490.723L184.068 488.895H184.818V490.879ZM188.975 488.559C188.975 488.272 189.045 488.059 189.186 487.918C189.326 487.772 189.508 487.699 189.732 487.699C189.956 487.699 190.141 487.772 190.287 487.918C190.433 488.064 190.506 488.277 190.506 488.559C190.506 488.84 190.433 489.056 190.287 489.207C190.141 489.353 189.956 489.426 189.732 489.426C189.508 489.426 189.326 489.353 189.186 489.207C189.045 489.056 188.975 488.84 188.975 488.559ZM190.381 499.441H189.084V490.879H190.381V499.441ZM192.646 495.152C192.646 493.757 192.993 492.671 193.686 491.895C194.383 491.113 195.342 490.723 196.561 490.723C197.785 490.723 198.745 491.121 199.443 491.918C200.157 492.71 200.514 493.796 200.514 495.176C200.514 496.556 200.162 497.639 199.459 498.426C198.756 499.207 197.785 499.598 196.545 499.598C196.524 499.598 196.503 499.598 196.482 499.598C195.352 499.598 194.43 499.197 193.717 498.395C193.003 497.592 192.646 496.548 192.646 495.262C192.646 495.225 192.646 495.189 192.646 495.152ZM196.561 491.832C194.847 491.832 193.99 492.939 193.99 495.152C193.99 496.246 194.209 497.079 194.646 497.652C195.089 498.225 195.732 498.512 196.576 498.512C197.425 498.512 198.068 498.228 198.506 497.66C198.949 497.087 199.17 496.254 199.17 495.16C199.17 494.066 198.949 493.238 198.506 492.676C198.068 492.113 197.42 491.832 196.561 491.832ZM206.85 490.723C207.891 490.723 208.67 490.975 209.186 491.48C209.701 491.986 209.959 492.777 209.959 493.855V499.441H208.662V493.902C208.662 493.199 208.501 492.678 208.178 492.34C207.86 492.001 207.365 491.832 206.693 491.832C205.792 491.832 205.133 492.074 204.717 492.559C204.305 493.043 204.1 493.84 204.1 494.949V499.441H202.803V490.879H203.857L204.068 492.051H204.131C204.396 491.629 204.766 491.303 205.24 491.074C205.719 490.84 206.256 490.723 206.85 490.723ZM214.795 498.527C216.201 498.527 216.904 498.09 216.904 497.215C216.904 496.882 216.758 496.598 216.467 496.363C216.18 496.124 215.618 495.842 214.779 495.52C213.977 495.223 213.407 494.962 213.068 494.738C212.735 494.514 212.488 494.264 212.326 493.988C212.165 493.712 212.084 493.376 212.084 492.98C212.084 492.288 212.368 491.738 212.936 491.332C213.503 490.926 214.264 490.723 215.217 490.723C216.17 490.723 217.089 490.91 217.975 491.285L217.514 492.34C216.66 491.991 215.904 491.816 215.248 491.816C214.597 491.816 214.113 491.91 213.795 492.098C213.477 492.285 213.318 492.551 213.318 492.895C213.318 493.124 213.376 493.319 213.49 493.48C213.605 493.642 213.792 493.796 214.053 493.941C214.313 494.087 214.816 494.298 215.561 494.574C216.576 494.944 217.261 495.316 217.615 495.691C217.975 496.066 218.154 496.538 218.154 497.105C218.154 497.902 217.855 498.517 217.256 498.949C216.662 499.382 215.813 499.598 214.709 499.598C213.61 499.598 212.743 499.418 212.107 499.059V497.855C212.993 498.303 213.889 498.527 214.795 498.527ZM220.068 498.629C220.068 498.275 220.146 498.007 220.303 497.824C220.464 497.642 220.693 497.551 220.99 497.551C221.292 497.551 221.527 497.642 221.693 497.824C221.865 498.007 221.951 498.27 221.951 498.613C221.951 498.952 221.865 499.212 221.693 499.395C221.527 499.577 221.298 499.668 221.006 499.668C220.714 499.668 220.485 499.582 220.318 499.41C220.152 499.238 220.068 498.978 220.068 498.629Z" fill="#5B5F5F"/>
<rect x="16.9219" y="579.441" width="278.527" height="45" rx="22.5" fill="#2B6F71"/>
<path d="M135.52 602.374V604.85H140.827V605.941H134.301V597.702H140.814V598.794H135.52V601.307H139.849V602.374H135.52ZM148.207 599.606L145.49 603.072L143.37 605.941H141.885L144.767 602.285L146.735 599.606H148.207ZM141.885 599.606H143.396L145.49 602.298L148.347 605.941H146.874L144.691 603.085L141.885 599.606ZM153.053 606.081C152.562 606.081 152.152 605.975 151.822 605.764C151.492 605.552 151.233 605.277 151.047 604.938C150.861 604.6 150.726 604.24 150.641 603.859C150.556 603.478 150.514 603.119 150.514 602.78C150.514 602.323 150.552 601.896 150.628 601.498C150.713 601.1 150.848 600.749 151.035 600.444C151.221 600.139 151.479 599.902 151.809 599.733C152.139 599.564 152.554 599.479 153.053 599.479C153.603 599.479 154.098 599.623 154.539 599.911C154.979 600.19 155.33 600.58 155.592 601.079C155.863 601.578 155.999 602.145 155.999 602.78C155.999 603.432 155.863 604.007 155.592 604.507C155.321 604.998 154.962 605.383 154.513 605.662C154.073 605.941 153.586 606.081 153.053 606.081ZM152.71 605.015C153.117 605.015 153.476 604.922 153.79 604.735C154.103 604.541 154.344 604.278 154.513 603.948C154.691 603.61 154.78 603.22 154.78 602.78C154.78 602.128 154.598 601.591 154.234 601.168C153.878 600.745 153.371 600.533 152.71 600.533C152.313 600.533 151.957 600.626 151.644 600.812C151.339 600.998 151.098 601.261 150.92 601.599C150.742 601.938 150.654 602.332 150.654 602.78C150.654 603.203 150.73 603.584 150.882 603.923C151.043 604.253 151.276 604.519 151.58 604.723C151.885 604.917 152.262 605.015 152.71 605.015ZM149.435 599.606H150.603L150.654 601.041V608.481H149.435V599.606ZM157.398 597.067H158.616V605.941H157.398V597.067ZM163.417 606.081C162.8 606.081 162.233 605.95 161.716 605.687C161.2 605.425 160.789 605.048 160.485 604.558C160.18 604.067 160.028 603.478 160.028 602.793C160.028 602.099 160.18 601.506 160.485 601.015C160.789 600.516 161.2 600.135 161.716 599.873C162.233 599.61 162.8 599.479 163.417 599.479C164.035 599.479 164.598 599.61 165.106 599.873C165.614 600.135 166.02 600.516 166.325 601.015C166.63 601.506 166.782 602.099 166.782 602.793C166.782 603.478 166.63 604.067 166.325 604.558C166.02 605.048 165.614 605.425 165.106 605.687C164.598 605.95 164.035 606.081 163.417 606.081ZM163.417 605.027C163.798 605.027 164.15 604.943 164.471 604.773C164.801 604.596 165.064 604.342 165.258 604.012C165.461 603.673 165.563 603.267 165.563 602.793C165.563 602.31 165.461 601.9 165.258 601.561C165.064 601.223 164.801 600.965 164.471 600.787C164.15 600.609 163.798 600.52 163.417 600.52C163.037 600.52 162.681 600.609 162.351 600.787C162.021 600.956 161.754 601.21 161.551 601.549C161.348 601.887 161.246 602.302 161.246 602.793C161.246 603.267 161.344 603.673 161.538 604.012C161.742 604.342 162.008 604.596 162.338 604.773C162.668 604.943 163.028 605.027 163.417 605.027ZM168.057 599.606H169.276V605.941H168.057V599.606ZM171.422 600.685C170.981 600.685 170.605 600.787 170.292 600.99C169.987 601.193 169.741 601.443 169.555 601.739C169.377 602.035 169.259 602.319 169.2 602.59L169.187 601.866C169.196 601.781 169.217 601.65 169.251 601.472C169.293 601.286 169.365 601.079 169.466 600.85C169.568 600.622 169.703 600.406 169.873 600.203C170.042 599.991 170.254 599.818 170.507 599.682C170.761 599.547 171.066 599.479 171.422 599.479V600.685ZM177.408 603.885H178.564C178.496 604.299 178.335 604.672 178.081 605.002C177.827 605.332 177.493 605.594 177.078 605.789C176.664 605.984 176.177 606.081 175.618 606.081C174.958 606.081 174.37 605.941 173.854 605.662C173.337 605.383 172.931 604.998 172.635 604.507C172.339 604.016 172.19 603.445 172.19 602.793C172.19 602.133 172.334 601.557 172.622 601.066C172.91 600.567 173.308 600.177 173.815 599.898C174.323 599.619 174.903 599.479 175.555 599.479C176.24 599.479 176.816 599.615 177.281 599.885C177.747 600.156 178.09 600.558 178.31 601.092C178.538 601.616 178.631 602.272 178.589 603.059H173.397C173.439 603.44 173.553 603.779 173.739 604.075C173.934 604.371 174.188 604.604 174.501 604.773C174.823 604.943 175.191 605.027 175.606 605.027C176.071 605.027 176.46 604.922 176.774 604.71C177.087 604.498 177.298 604.223 177.408 603.885ZM175.568 600.52C175.017 600.52 174.56 600.668 174.196 600.965C173.832 601.252 173.591 601.637 173.473 602.12H177.37C177.336 601.604 177.15 601.21 176.812 600.939C176.473 600.66 176.058 600.52 175.568 600.52Z" fill="white"/>
<rect opacity="0.1" x="100.441" y="661.676" width="110.962" height="4.14036" rx="2.07018" fill="#2F3131"/>
<path d="M109.081 308.718C130.29 317.549 149.548 313.746 168.581 310.928C178.638 309.438 188.884 309.122 199.408 309.232C210.14 309.343 220.699 309.132 230.446 306.26C263.606 296.487 280.437 251.853 261.468 210.594C250.19 186.065 226.618 174.907 205.291 171.171C162.606 163.695 150.206 148.129 118.451 159.057C88.8669 169.238 37.5412 190.094 48.3288 248.159C52.3277 269.686 91.274 301.303 109.081 308.718Z" fill="#EFD9CD"/>
<path d="M181.504 217.125C181.504 217.125 183.784 198.681 185.865 190.484C186.594 187.612 183.788 178.663 183.788 178.663C165.16 169.688 165.278 169.677 164.461 168.859C159.795 164.192 162.846 146.317 162.846 146.317H144.895C144.895 146.317 149.044 162.909 143.736 169.397C142.466 170.948 124.472 178.395 124.472 178.395L124.659 196.463L128.676 219.512L181.504 217.125Z" fill="#E6996B"/>
<path d="M236.073 295.95C236.049 296.637 235.972 297.324 235.84 298.023C235.153 301.638 217.712 303.58 198.287 304.661C191.756 305.026 184.999 305.294 178.581 305.492C173.269 305.659 168.179 305.784 163.644 305.874C160.674 305.934 157.938 305.988 155.53 306.023C152.052 306.089 149.25 306.131 147.392 306.179C142.904 306.065 134.372 305.958 124.669 305.641C122.649 305.575 120.582 305.497 118.491 305.413C115.569 305.294 112.605 305.15 109.659 304.983C104.879 304.715 100.165 304.374 95.8029 303.937C84.0262 302.773 74.8842 300.944 74.3288 298.022C73.7789 295.136 74.4183 292.369 76.0616 289.812C78.6605 285.761 83.7933 282.236 90.7541 279.631C100.242 276.075 110.765 270.877 119.136 265.948C119.232 265.894 119.321 265.84 119.411 265.786C120.952 264.878 122.416 263.976 123.79 263.098L140.538 266.486L140.102 263.97L188.177 263.098C188.44 263.265 188.703 263.432 188.972 263.606C191.141 264.974 193.525 266.384 196.052 267.8C203.814 272.144 212.902 276.518 221.213 279.631C231.496 283.485 236.324 289.341 236.073 295.95Z" fill="#005CE1"/>
<path d="M119.41 265.787C118.088 267.886 171.082 273.953 172.957 277.621C173.85 279.368 150.215 279.327 141.687 285.012C137.407 287.865 132.399 289.359 130.758 291.203C124.186 298.587 87.2946 287.668 91.089 298.279L76.0615 289.813C78.6605 285.761 83.7932 282.236 90.754 279.631C100.344 276.034 110.991 270.765 119.41 265.787Z" fill="#3480FF"/>
<path d="M236.074 295.948C230.38 295.231 186.42 312.985 184.329 308.385C180.535 300.044 182.653 294.232 175.485 288.675C171.492 285.579 158.571 279.872 154.26 280.336C132.146 282.714 123.768 277.232 173.211 266.186C178.188 265.074 189.853 264.637 188.973 263.605C197.798 269.162 210.196 275.502 221.215 279.631C231.496 283.484 236.324 289.34 236.074 295.948Z" fill="#3480FF"/>
<path d="M196.052 267.8C188.559 272.108 173.49 279.158 157.292 277.557C138.369 275.687 129.03 273.13 119.136 265.948C119.232 265.894 119.321 265.84 119.411 265.786C120.952 264.878 122.416 263.976 123.79 263.098L140.538 266.486L140.102 263.97L188.177 263.098C188.44 263.265 188.703 263.432 188.972 263.606C191.141 264.974 193.525 266.384 196.052 267.8Z" fill="#2E353D"/>
<path d="M208.69 314.876C207.011 315.151 203.289 316.992 199.596 317.655C197.792 317.984 195.993 318.312 194.446 318.611C189.732 319.519 158.345 317.35 143.156 317.882C127.968 318.408 120.331 318.933 120.331 318.933L118.67 306.738L118.563 305.943L118.491 305.412L118.228 303.482L124.107 299.568L126.718 297.83L126.915 297.698C126.915 297.698 146.722 303.847 154.645 305.818C154.95 305.896 155.249 305.962 155.53 306.021C157.651 306.493 159.24 306.607 160.56 306.511C161.738 306.433 162.705 306.182 163.643 305.871C165.203 305.352 166.702 304.665 168.997 304.252C171.464 303.81 175.026 304.527 178.581 305.489C182.901 306.654 187.221 308.19 189.569 308.477C193.854 309.003 197.014 309.558 201.197 310.436C201.281 310.454 201.364 310.472 201.442 310.49C202.972 310.824 203.533 311.07 205.308 310.502C206.861 310.006 208.397 310.293 209.532 311.452C209.759 311.679 209.968 311.942 210.159 312.24C211.313 314.04 211.188 314.464 208.69 314.876Z" fill="#E6996B"/>
<path d="M208.69 314.877C207.011 315.152 203.289 316.993 199.596 317.656C197.792 317.985 195.993 318.313 194.446 318.612C189.731 319.52 158.344 317.351 143.156 317.883C127.968 318.409 120.331 318.934 120.331 318.934L118.67 306.739L118.562 305.945C121.986 302.527 125.153 299.372 126.718 297.83C127.304 297.251 127.668 296.898 127.728 296.856C127.668 296.922 127.411 297.191 126.915 297.699C121.047 303.692 122.165 316.723 122.165 316.723C122.165 316.723 121.914 319.251 127.978 317.984C134.043 316.723 159.562 315.462 169.164 315.713C178.766 315.965 187.866 314.954 184.58 313.945C181.945 313.133 173.939 312.487 160.56 306.512C161.737 306.434 162.705 306.183 163.643 305.873C165.203 305.353 166.702 304.666 168.997 304.253C171.464 303.811 175.026 304.528 178.581 305.49C182.901 306.655 187.221 308.191 189.569 308.478C193.853 309.004 197.014 309.559 201.197 310.437C201.281 310.455 201.364 310.473 201.442 310.491C202.972 310.826 203.533 311.071 205.308 310.503C206.861 310.007 208.397 310.294 209.532 311.453C209.759 311.68 209.968 311.943 210.159 312.242C211.313 314.041 211.187 314.465 208.69 314.877Z" fill="#C47755"/>
<path d="M208.69 314.876C207.011 315.151 177.955 311.979 163.059 308.961C152.771 306.882 135.317 303.374 124.108 299.568L126.917 297.698C126.917 297.698 146.724 303.847 154.647 305.818C162.57 307.79 163.538 305.226 168.999 304.253C174.466 303.279 185.287 307.951 189.571 308.477C193.855 309.003 197.016 309.558 201.199 310.436C202.92 310.794 203.445 311.099 205.309 310.502C207.174 309.904 209.002 310.442 210.161 312.24C211.313 314.04 211.188 314.464 208.69 314.876Z" fill="#2E353D"/>
<path d="M191.529 298.375L186.916 313.271C186.916 313.271 179.472 311.496 164.576 308.485C149.68 305.468 119.781 295.71 115.515 293.506C111.254 291.301 104.855 288.134 102.572 287.035C100.296 285.929 100.296 285.487 101.915 284.095C102.244 283.808 102.584 283.582 102.937 283.414C104.299 282.744 105.769 282.924 107.06 283.796C108.679 284.902 109.265 284.753 111.021 284.896C115.282 285.242 118.472 285.607 122.726 286.318C126.981 287.024 138.686 285.608 143.651 288.093C148.616 290.573 146.841 294.475 154.997 294.827C163.159 295.186 183.725 292.347 183.725 292.347L191.529 298.375Z" fill="#E6996B"/>
<path d="M191.529 298.374L186.916 313.27C186.916 313.27 179.472 311.495 164.576 308.484C149.68 305.467 119.781 295.71 115.515 293.505C111.254 291.3 104.855 288.134 102.572 287.034C100.296 285.929 100.296 285.487 101.915 284.094C102.244 283.808 102.584 283.581 102.937 283.413C103.463 284.172 102.616 285.586 103.088 285.896C104.606 286.906 121.245 295.281 134.675 299.162C178.389 311.797 184.329 308.383 184.329 308.383C185.591 304.342 184.329 295.501 183.725 292.346L191.529 298.374Z" fill="#C47755"/>
<path d="M183.728 292.343C185.856 296.244 186.92 313.268 186.92 313.268C186.92 313.268 205.007 315.396 217.065 313.268C229.124 311.14 234.443 307.948 236.926 300.501C239.409 293.053 233.623 286.781 229.367 283.589C225.111 280.397 216.002 282.413 208.554 285.251C201.105 288.087 183.728 292.343 183.728 292.343Z" fill="#3480FF"/>
<path d="M229.366 283.589C225.11 280.397 216.001 282.413 208.553 285.251C201.105 288.087 183.728 292.343 183.728 292.343C183.831 292.533 183.931 292.762 184.029 293.01C192.27 291.72 201.425 290.078 205.142 288.662C212.59 285.824 221.699 283.808 225.955 287C230.211 290.192 235.997 296.464 233.514 303.912C232.948 305.611 232.232 307.087 231.324 308.381C234.042 306.446 235.785 303.924 236.926 300.501C239.408 293.053 233.622 286.781 229.366 283.589Z" fill="#5494FF"/>
<path d="M126.912 297.7C124.172 301.199 120.327 318.935 120.327 318.935C120.327 318.935 102.136 318.064 90.591 313.985C79.0461 309.905 74.3223 305.884 73.0967 298.129C71.8712 290.374 79.1 285.825 83.8225 283.375C88.5445 280.926 96.7083 283.723 103.589 287.745C110.469 291.767 126.912 297.7 126.912 297.7Z" fill="#3480FF"/>
<path d="M144.024 114.318C144.024 113.055 143.645 112.549 142.823 112.36C142.002 112.17 141.181 110.212 141.939 109.454C141.939 109.454 140.739 108.507 142.002 106.548C143.266 104.59 145.919 104.717 145.919 104.717C145.919 104.717 146.109 103.579 147.498 103.264C148.888 102.948 149.267 103.769 149.267 103.769C149.267 103.769 150.029 101.885 151.478 101.306C154.005 100.295 155.774 100.8 157.416 101.748C159.059 102.695 158.617 103.896 158.617 103.896C158.617 103.896 159.791 103.009 161.08 103.454C162.912 104.085 162.344 105.728 162.344 105.728C162.344 105.728 163.986 105.602 164.492 107.371C164.997 109.139 163.986 109.519 163.986 109.519C163.986 109.519 165.692 110.087 165.692 111.54C165.692 112.993 162.027 112.93 161.901 114.32C161.775 115.709 156.469 116.657 156.469 116.657L144.024 114.318Z" fill="#2E353D"/>
<path d="M163.292 114.53C163.292 114.53 163.113 111.075 160.423 110.384C157.734 109.694 149.667 110.384 147.516 110.73C145.365 111.076 143.572 112.112 143.393 114.3C143.393 114.3 154.687 112.572 163.292 114.53Z" fill="#CF1D42"/>
<path d="M169.198 139.12C169.198 139.12 173.14 137.661 173.589 141.445C173.963 144.598 172.498 145.464 170.55 148.433C169.228 150.448 167.168 149.631 167.168 149.631L169.198 139.12Z" fill="#E6996B"/>
<path d="M169.993 140.851C170.814 139.714 171.825 140.472 172.268 141.547C172.71 142.621 171.699 144.01 171.699 144.01C171.699 144.01 172.268 142.052 171.447 141.547C170.626 141.041 168.608 142.481 169.301 143.846C169.994 145.211 171.005 145.337 170.373 146.032C169.741 146.727 170.437 147.485 169.363 147.801C168.289 148.116 168.794 147.548 168.731 145.906C168.667 144.263 168.667 145.906 168.794 144.263C168.919 142.621 169.287 141.83 169.993 140.851Z" fill="#C47755"/>
<path d="M138.17 139.12C138.17 139.12 134.228 137.661 133.779 141.445C133.405 144.598 134.87 145.464 136.819 148.433C138.141 150.448 140.2 149.631 140.2 149.631L138.17 139.12Z" fill="#E6996B"/>
<path d="M137.375 140.851C136.554 139.714 135.543 140.472 135.1 141.547C134.658 142.621 135.669 144.01 135.669 144.01C135.669 144.01 135.1 142.052 135.922 141.547C136.743 141.041 138.761 142.481 138.067 143.846C137.375 145.211 136.364 145.337 136.995 146.032C137.627 146.727 136.932 147.485 138.006 147.801C139.08 148.116 138.575 147.548 138.638 145.906C138.701 144.263 138.701 145.906 138.575 144.263C138.449 142.621 138.081 141.83 137.375 140.851Z" fill="#C47755"/>
<path d="M145.927 165.942C155.194 167.746 162.027 163.076 161.993 162.613C161.446 155.34 162.846 146.314 162.846 146.314H144.895C144.895 146.314 147.513 157.92 145.927 165.942Z" fill="#A46A49"/>
<path d="M167.135 154.682C166.063 156.842 160.424 163.494 156.224 165.145C155.391 165.473 154.541 165.62 152.959 165.266C147.593 164.064 142.17 157.68 140.364 154.485C139.026 152.112 138.796 148.819 138.552 144.735C138.302 140.656 136.966 135.251 137.184 132.096C137.522 127.214 143.333 123.31 147.182 122.659C165.123 119.627 170.722 126.633 170.277 130.033C169.672 134.662 169.437 139.622 169.3 143.847C169.197 147.031 168.13 152.678 167.135 154.682Z" fill="#E6996B"/>
<path d="M162.453 142.943C162.453 142.943 161.137 143.573 159.394 143.23C159.394 143.23 161.101 145.453 162.453 142.943Z" fill="#C47755"/>
<path d="M156.176 140.095C155.955 140.013 156.921 137.346 159.156 136.715C162.435 135.79 165.057 138.835 165.057 138.835C165.057 138.835 160.187 141.585 156.176 140.095Z" fill="#C47755"/>
<path d="M156.177 140.096C156.177 140.096 158.041 141.152 160.531 141.041C164.398 140.869 165.945 138.549 165.945 138.549C165.945 138.549 161.963 140.955 156.177 140.096Z" fill="#2E353D"/>
<path d="M162.168 133.667C161.245 133.664 160.287 133.538 159.25 133.574L157.781 134.653L158.744 133.602C158.609 133.614 158.469 133.636 158.331 133.656L156.693 135.226L157.225 134.249C157.134 134.27 157.043 134.285 156.95 134.31C156.321 134.477 155.885 135.729 155.885 135.729C159.712 135.098 160.805 135.092 162.33 135.034C164.066 134.968 165.642 136.208 165.642 136.208C165.021 135.105 163.597 133.671 162.168 133.667Z" fill="#2E353D"/>
<path d="M145.431 142.943C145.431 142.943 146.747 143.573 148.491 143.23C148.491 143.23 146.783 145.453 145.431 142.943Z" fill="#C47755"/>
<path d="M151.707 140.095C151.929 140.013 150.963 137.346 148.728 136.715C145.449 135.79 142.827 138.835 142.827 138.835C142.827 138.835 147.697 141.585 151.707 140.095Z" fill="#C47755"/>
<path d="M151.708 140.096C151.708 140.096 149.843 141.152 147.353 141.041C143.486 140.869 141.939 138.549 141.939 138.549C141.939 138.549 145.921 140.955 151.708 140.096Z" fill="#2E353D"/>
<path d="M145.717 133.667C146.639 133.664 147.598 133.538 148.635 133.574L150.104 134.653L149.14 133.602C149.276 133.614 149.415 133.636 149.554 133.656L151.192 135.226L150.66 134.249C150.751 134.27 150.841 134.285 150.934 134.31C151.563 134.477 151.999 135.729 151.999 135.729C148.172 135.098 147.079 135.092 145.554 135.034C143.818 134.968 142.242 136.208 142.242 136.208C142.863 135.105 144.288 133.671 145.717 133.667Z" fill="#2E353D"/>
<path d="M150.334 154.829C149.934 154.776 149.735 154.744 149.338 154.667C149.338 154.667 150.472 156.883 152.245 157.879C153.554 158.614 155.173 158.45 156.379 157.771C157.584 157.091 159.286 154.522 159.286 154.522C159.286 154.522 157.151 155.292 155.849 155.116C154.547 154.94 150.334 154.829 150.334 154.829Z" fill="#CF1D42"/>
<path d="M151.827 154.269C152.707 154.1 153.131 154.022 153.521 154.063C153.923 154.197 154.375 154.213 154.784 154.11C155.533 153.871 156.268 154.081 156.678 154.137C158.551 154.39 159.286 154.523 159.286 154.523C159.286 154.523 158.768 154.892 157.984 155.03C157.268 155.156 156.728 155.418 155.984 155.549C155.394 155.652 155.109 155.618 154.329 155.622C153.159 155.629 153.065 155.64 152 155.485C150.87 155.32 149.957 155.123 149.284 154.654C149.284 154.654 150.183 154.585 151.827 154.269Z" fill="#CF1D42"/>
<path d="M149.944 155.051C150.101 155.158 151.34 155.796 152.642 156.008C154.042 156.236 155.009 156.101 155.738 155.997C156.896 155.83 158.446 155.038 158.446 155.038C158.446 155.038 156.625 155.585 155.21 155.398C153.136 155.124 153.214 155.52 151.552 155.372C150.86 155.31 149.944 155.051 149.944 155.051Z" fill="#AB162C"/>
<path d="M168.875 120.51C166.98 117.667 167.668 117.772 166.032 115.582C164.05 112.929 160.726 112.55 159.21 112.36C158.564 112.279 155.522 110.844 147.751 112.36C146.252 112.653 142.634 112.739 140.929 115.582C139.523 117.926 139.982 117.667 138.087 120.51C136.191 123.352 133.159 126.005 133.917 131.88C134.675 137.755 136.57 138.892 136.57 138.892C138.276 140.03 138.553 144.733 138.553 144.733C138.553 144.733 139.603 140.977 138.17 139.117C136.737 137.257 139.91 133.346 141.687 130.553C143.014 128.469 142.825 127.332 143.014 124.868C143.212 122.297 150.192 124.461 152.49 123.162C152.861 122.952 153.188 122.694 153.481 122.403C153.774 122.694 154.101 122.952 154.472 123.162C156.771 124.461 163.75 122.297 163.948 124.868C164.138 127.331 163.948 128.469 165.275 130.553C167.051 133.346 170.224 137.257 168.792 139.117C167.359 140.977 168.409 144.733 168.409 144.733C168.409 144.733 168.686 140.03 170.392 138.892C170.392 138.892 172.287 137.755 173.045 131.88C173.802 126.005 170.77 123.352 168.875 120.51Z" fill="#2E353D"/>
<path d="M147.183 122.657C143.899 123.036 144.151 124.931 144.404 127.206C144.657 129.48 143.52 132.891 141.245 134.028C141.245 134.028 146.299 131.628 145.541 127.711C144.783 123.794 148.699 122.91 148.699 122.91L147.183 122.657Z" fill="#2E353D"/>
<path d="M151.089 101.968C149.46 101.392 147.758 101.999 146.728 103.369C145.322 105.239 145.523 107.687 145.945 109.848C146.009 110.17 146.484 110.016 146.429 109.702C146.122 107.953 145.899 106.057 146.688 104.392C147.485 102.711 149.174 101.701 151.005 102.337C151.236 102.416 151.315 102.047 151.089 101.968Z" fill="#2E353D"/>
<path d="M147.229 103.351C143.15 102.512 140.106 106.891 142.454 110.386C142.642 110.665 143.085 110.395 142.9 110.111C140.867 106.972 143.419 102.992 147.143 103.734C147.39 103.783 147.478 103.401 147.229 103.351Z" fill="#2E353D"/>
<path d="M144.087 109.051C141.549 107.936 140.423 110.912 140.652 112.929C140.874 114.882 141.263 116.578 140.785 118.539C140.332 120.402 139.352 122.029 137.987 123.362C137.687 123.655 138.165 124.099 138.464 123.806C140.114 122.184 141.236 120.098 141.573 117.798C141.735 116.699 141.697 115.601 141.518 114.506C141.389 113.723 141.178 112.942 141.178 112.145C141.176 110.798 141.956 108.649 143.862 109.486C144.147 109.612 144.376 109.179 144.087 109.051Z" fill="#2E353D"/>
<path d="M139.544 137.625C139.206 135.401 137.858 133.475 135.86 132.446C135.653 132.34 135.485 132.66 135.693 132.767C138.519 134.23 140.03 137.784 138.847 140.803C137.733 143.644 134.841 145.312 133.681 148.173C131.93 152.49 133.103 157.687 136.581 160.782C136.786 160.965 137.077 160.654 136.872 160.469C134.622 158.441 133.397 155.552 133.346 152.531C133.289 149.077 134.874 146.616 137.079 144.119C138.743 142.235 139.938 140.22 139.544 137.625Z" fill="#2E353D"/>
<path d="M171.48 147.047C170.448 144.769 168.803 142.954 167.639 140.775C165.987 137.681 168.102 135.208 170.342 133.189C170.524 133.025 170.243 132.765 170.062 132.929C168.545 134.314 166.778 135.99 166.619 138.176C166.46 140.373 168.067 142.078 169.205 143.776C172.452 148.622 173.699 154.499 173.008 160.264C172.978 160.514 173.359 160.607 173.395 160.35C174.04 155.831 173.367 151.207 171.48 147.047Z" fill="#2E353D"/>
<path d="M174.22 127.803C173.192 124.412 169.007 123.688 167.327 120.77C167.184 120.522 166.808 120.755 166.949 121.003C168.349 123.455 171.235 124.256 172.936 126.406C175.985 130.261 171.877 134.278 169.172 136.775C168.914 137.014 169.308 137.363 169.567 137.143C172.198 134.905 175.375 131.612 174.22 127.803Z" fill="#2E353D"/>
<path d="M144.031 116.64C144.082 116.331 143.605 116.221 143.553 116.533C142.992 119.904 138.903 119.906 136.455 121.127C134.621 122.042 133.221 123.712 132.567 125.648C131.183 129.741 133.636 134.052 137.657 135.356C137.954 135.453 138.051 134.986 137.762 134.886C132.79 133.166 131.051 126.884 134.75 123.012C137.287 120.356 143.315 120.991 144.031 116.64Z" fill="#2E353D"/>
<path d="M163.316 103.743C161.909 102.112 159.246 102.245 157.826 103.764C157.687 103.912 157.918 104.127 158.058 103.979C159.387 102.558 161.95 102.501 163.158 104.139C164.241 105.607 163.774 107.811 162.321 108.832C162.108 108.982 162.321 109.328 162.533 109.177C164.224 107.975 164.72 105.371 163.316 103.743Z" fill="#2E353D"/>
<path d="M169.699 109.402C167.616 112.687 162.813 111.699 162.044 107.942C161.988 107.671 161.582 107.798 161.635 108.065C162.471 112.311 167.839 113.223 170.151 109.637C170.328 109.363 169.875 109.127 169.699 109.402Z" fill="#2E353D"/>
<path d="M171.681 114.623C171.101 115.409 170.322 116.594 169.277 116.765C167.717 117.019 167.07 116.013 166.724 114.723C166.413 113.566 166.203 112.383 165.144 111.661C163.217 110.346 160.833 111.576 160.44 113.77C160.396 114.018 160.778 114.105 160.824 113.856C161.328 111.136 164.924 110.774 165.909 113.395C166.294 114.42 166.281 115.674 167.015 116.547C168.686 118.536 170.975 116.393 172.04 114.956C172.225 114.706 171.867 114.37 171.681 114.623Z" fill="#2E353D"/>
<path d="M154.21 113.592C153.37 111.407 151.315 107.642 148.348 109.304C146.955 110.085 146.852 111.957 146.598 113.351C146.137 115.882 145.663 118.411 145.227 120.947C145.175 121.248 145.635 121.356 145.693 121.052C146.266 118.064 146.735 115.055 147.334 112.073C147.725 110.127 149.097 108.771 151.108 109.832C152.558 110.598 153.179 112.301 153.726 113.738C153.842 114.041 154.327 113.896 154.21 113.592Z" fill="#2E353D"/>
<path d="M145.45 106.576C143.771 106.332 142.413 107.43 141.825 108.961C140.966 111.195 142.197 117.324 138.269 116.816C138.003 116.781 137.909 117.193 138.177 117.226C139.884 117.436 141.09 116.148 141.483 114.572C141.79 113.343 141.668 112.054 141.792 110.802C141.986 108.867 143.013 106.531 145.385 106.865C145.573 106.892 145.64 106.603 145.45 106.576Z" fill="#2E353D"/>
<path d="M139.872 118.77C138.756 116.627 135.693 116.752 134.544 118.801C133.027 121.505 135.124 124.211 137.691 125.086C137.877 125.15 137.997 124.831 137.811 124.759C135.81 123.995 134.004 122.145 134.585 119.834C135.164 117.532 138.314 116.689 139.498 119C139.627 119.253 140.003 119.02 139.872 118.77Z" fill="#2E353D"/>
<path d="M154.122 100.833C152.599 99.1305 150.057 99.1199 148.156 100.217C145.545 101.724 144.685 104.968 144.204 107.729C144.157 107.997 144.571 108.092 144.618 107.822C145.029 105.464 145.648 102.862 147.493 101.184C149.253 99.582 152.197 99.2075 153.905 101.068C154.045 101.22 154.259 100.985 154.122 100.833Z" fill="#2E353D"/>
<path d="M165.991 116.106C165.785 116.027 165.622 116.332 165.83 116.414C168.692 117.535 170.327 120.6 169.641 123.603C169.583 123.854 169.975 123.943 170.032 123.691C170.745 120.53 169.02 117.273 165.991 116.106Z" fill="#2E353D"/>
<path d="M249.93 286.126C248.585 286.293 244.432 285.767 242.957 285.277C241.535 284.805 238.834 283.981 238.667 283.933C238.853 284.064 241.78 286.162 243.202 286.872C244.679 287.607 246.889 287.607 247.995 287.978C249.1 288.348 248.975 289.818 248.365 290.188C247.75 290.558 243.699 289.818 241.978 289.328C240.299 288.85 236.882 286.854 236.702 286.753C236.803 286.884 238.447 288.987 239.277 289.944C240.132 290.924 241.978 292.029 242.097 292.645C242.222 293.26 241.362 293.63 240.382 293.63C239.6 293.63 238.13 292.011 236.941 291.031C236.63 290.775 236.337 290.565 236.08 290.434C234.855 289.818 230.434 286.998 228.097 285.893C226.221 285.002 222.122 279.977 219.051 276.835C218.304 276.07 217.623 275.419 217.043 274.959C214.097 272.628 194.942 253.61 192.115 249.135C190.209 246.123 189.164 241.433 187.694 236.886C186.989 234.734 185.161 227.218 183.428 219.911C182.37 215.447 181.349 211.062 180.644 208.026C180.076 205.552 179.712 203.975 179.712 203.975L183.787 178.665C185.914 180.792 191.118 181.497 193.717 190.484C196.323 199.47 202.232 233.988 203.176 236.587C204.119 239.192 211.69 248.883 214.761 255.271C217.832 261.653 226.819 270.167 226.819 270.167C226.819 270.167 230.368 267.801 234.861 268.984C237.108 269.575 241.004 268.625 242.659 268.392C244.314 268.153 245.144 268.865 244.792 269.808C244.511 270.555 243.645 271.129 242.593 271.595C242.241 271.757 241.858 271.906 241.476 272.043C241.392 272.073 241.309 272.103 241.225 272.133C240.287 272.462 239.343 272.737 238.643 272.999C236.749 273.71 235.805 274.893 235.805 274.893C235.805 274.893 237.801 276.554 239.396 277.17C240.005 277.409 240.257 277.946 240.334 278.526C240.459 279.458 240.131 280.486 240.131 280.486C240.131 280.486 240.257 280.611 240.795 280.88C241.344 281.155 242.33 281.586 244.063 282.207C247.505 283.438 248.735 283.635 249.99 283.761C252.356 283.993 251.824 285.887 249.93 286.126Z" fill="#E6996B"/>
<path d="M185.83 188.413C185.536 189.369 181.844 202.006 183.428 219.907C182.37 215.444 181.349 211.058 180.644 208.023C181.748 201.499 183.559 194.967 185.83 188.413Z" fill="#C47755"/>
<path d="M244.744 279.536C243.663 280.456 241.769 280.773 240.794 280.88C240.424 280.922 240.185 280.934 240.185 280.934L239.653 278.383L239.396 277.17C241.404 277.702 242.294 277.266 243.059 276.937C243.161 276.895 243.215 276.824 243.239 276.728C243.412 276.095 242.044 274.428 241.553 273.692C241.219 273.184 241.045 272.658 241.183 272.234C241.195 272.199 241.207 272.162 241.225 272.133C241.279 272.008 241.369 271.894 241.494 271.792C241.602 271.697 241.739 271.619 241.912 271.553C242.091 271.487 242.324 271.506 242.594 271.595C243.884 272.019 245.982 274.027 246.346 275.574C246.781 277.444 246.07 278.412 244.744 279.536Z" fill="#E6996B"/>
<path d="M228.675 276.927C231.96 277.685 232.212 279.959 233.223 282.233C234.234 284.507 235.245 285.392 235.245 285.392C235.245 285.392 233.855 282.359 233.602 279.706C233.35 277.053 228.675 276.927 228.675 276.927Z" fill="#C47755"/>
<path d="M240.68 278.568C240.56 278.556 240.441 278.544 240.334 278.526C240.083 278.49 239.856 278.442 239.652 278.382C237.997 277.917 237.818 276.829 236.635 276.291C235.835 275.927 234.107 275.861 232.793 275.867C233.534 275.712 234.376 275.348 234.992 274.523C237.214 271.559 240.483 271.678 241.493 271.792C241.684 271.816 241.798 271.84 241.798 271.84C241.69 271.906 241.582 271.978 241.475 272.043C241.374 272.109 241.278 272.168 241.182 272.234C241.194 272.198 241.206 272.162 241.224 272.132C240.286 272.461 239.342 272.736 238.643 272.999C236.748 273.709 235.805 274.893 235.805 274.893C235.805 274.893 237.8 276.554 239.396 277.169C241.403 277.701 242.293 277.265 243.058 276.936C243.16 276.894 243.214 276.823 243.238 276.727C243.256 276.775 243.261 276.817 243.268 276.864C243.387 277.952 243.333 278.819 240.68 278.568Z" fill="#C47755"/>
<path d="M58.2311 286.124C59.5757 286.291 63.7284 285.765 65.2038 285.275C66.626 284.803 69.3264 283.979 69.4936 283.931C69.3083 284.062 66.3805 286.16 64.9583 286.87C63.4823 287.605 61.2716 287.605 60.1663 287.976C59.0609 288.346 59.1862 289.816 59.7955 290.186C60.4111 290.557 64.4617 289.816 66.1826 289.326C67.8616 288.848 71.2791 286.852 71.4588 286.751C71.3574 286.882 69.7141 288.985 68.8837 289.942C68.0288 290.922 66.1827 292.027 66.0637 292.643C65.9384 293.258 66.7983 293.628 67.7783 293.628C68.5612 293.628 70.031 292.009 71.2202 291.029C71.5308 290.773 71.8239 290.563 72.0807 290.432C73.3056 289.816 77.727 286.996 80.0635 285.891C81.9397 285 86.0386 279.975 89.1097 276.833C89.8568 276.068 90.5375 275.417 91.1174 274.957C94.0633 272.626 113.219 253.608 116.045 249.133C117.952 246.121 118.997 241.431 120.467 236.884C121.172 234.733 123 227.216 124.733 219.909C125.79 215.445 126.812 211.06 127.517 208.024C128.084 205.551 128.449 203.973 128.449 203.973L124.47 178.393C121.661 179.765 117.042 181.495 114.443 190.481C111.838 199.468 105.929 233.985 104.985 236.584C104.041 239.19 96.4706 248.881 93.3995 255.269C90.3284 261.65 81.3417 270.165 81.3417 270.165C81.3417 270.165 77.7927 267.799 73.2994 268.982C71.053 269.573 67.1571 268.623 65.5019 268.39C63.8467 268.151 63.0163 268.862 63.3689 269.806C63.6495 270.553 64.5162 271.127 65.5677 271.592C65.9203 271.754 66.3029 271.903 66.6849 272.041C66.7688 272.071 66.8521 272.1 66.936 272.13C67.8742 272.459 68.8179 272.734 69.5174 272.997C71.4112 273.707 72.3556 274.891 72.3556 274.891C72.3556 274.891 70.3597 276.552 68.7647 277.167C68.1553 277.407 67.9042 277.944 67.8266 278.524C67.7013 279.456 68.0295 280.483 68.0295 280.483C68.0295 280.483 67.9042 280.609 67.3663 280.878C66.8164 281.153 65.8307 281.583 64.0979 282.204C60.656 283.435 59.4254 283.632 58.1704 283.758C55.8051 283.991 56.3367 285.885 58.2311 286.124Z" fill="#E6996B"/>
<path d="M122.331 188.412C122.624 189.368 126.317 202.006 124.733 219.906C125.791 215.443 126.813 211.057 127.518 208.022C126.412 201.498 124.602 194.966 122.331 188.412Z" fill="#C47755"/>
<path d="M63.4176 279.533C64.4992 280.453 66.393 280.77 67.3668 280.878C67.7375 280.92 67.9761 280.931 67.9761 280.931L68.5078 278.38L68.7646 277.167C66.7568 277.699 65.8669 277.263 65.1016 276.934C65.0002 276.892 64.9463 276.821 64.9225 276.725C64.7491 276.092 66.1174 274.425 66.6078 273.689C66.9422 273.182 67.1157 272.655 66.9779 272.232C66.966 272.196 66.9541 272.16 66.9359 272.13C66.8821 272.005 66.7925 271.891 66.6673 271.789C66.5595 271.694 66.4224 271.616 66.2489 271.55C66.0698 271.484 65.8368 271.503 65.5676 271.592C64.2769 272.016 62.1795 274.024 61.8151 275.571C61.3804 277.441 62.0912 278.409 63.4176 279.533Z" fill="#E6996B"/>
<path d="M79.486 276.925C76.2007 277.683 75.9483 279.957 74.9376 282.231C73.9268 284.505 72.916 285.39 72.916 285.39C72.916 285.39 74.3057 282.358 74.5587 279.704C74.811 277.051 79.486 276.925 79.486 276.925Z" fill="#C47755"/>
<path d="M67.48 278.566C67.5996 278.554 67.7192 278.542 67.8263 278.524C68.0774 278.488 68.3041 278.44 68.5077 278.38C70.1628 277.915 70.3419 276.827 71.5249 276.289C72.3253 275.925 74.0525 275.859 75.367 275.865C74.6261 275.71 73.7838 275.346 73.1682 274.521C70.9456 271.557 67.6772 271.676 66.6671 271.79C66.4761 271.814 66.3621 271.838 66.3621 271.838C66.4698 271.904 66.5769 271.976 66.6846 272.041C66.7861 272.107 66.8819 272.166 66.9777 272.232C66.9658 272.196 66.9539 272.16 66.9358 272.131C67.8739 272.459 68.8176 272.734 69.5172 272.997C71.4109 273.707 72.3553 274.891 72.3553 274.891C72.3553 274.891 70.3595 276.552 68.7644 277.167C66.7567 277.699 65.8667 277.263 65.1015 276.934C65 276.893 64.9462 276.821 64.9224 276.725C64.9042 276.773 64.8986 276.815 64.8923 276.862C64.7733 277.95 64.8272 278.817 67.48 278.566Z" fill="#C47755"/>
<path d="M180.536 243.402C179.826 237.018 178.643 230.431 181.954 216.094C183.382 209.912 184.015 206.93 182.623 203.141C181.883 201.128 179.949 196.425 178.833 192.907C176.66 186.056 176.949 177.557 177.729 175.215L175.199 174.097C175.199 174.097 173.498 192.719 169.768 196.191C165.525 200.142 159.316 201.558 155.143 201.567C150.387 201.575 144.361 201.099 139.507 196.773C136.141 193.773 132.287 174.694 132.287 174.694L129.621 175.977C130.423 178.381 130.506 189.685 127.853 195.181C126.103 198.805 124.315 201.709 123.683 203.71C122.546 207.311 123.5 212.374 125.209 218.484C127.972 228.355 127.337 237.019 126.628 243.403C125.918 249.787 119.589 265.5 119.589 265.5C119.589 265.5 134.076 273.578 155.71 273.933C177.344 273.578 188.693 263.263 188.693 263.263C188.693 263.263 181.244 249.786 180.536 243.402Z" fill="#FD603A"/>
<path d="M75.3713 301.54C74.1457 293.786 81.3745 289.237 86.0971 286.787C90.819 284.337 98.9828 287.134 105.863 291.156C110.304 293.751 120.216 296.434 126.693 298.012C126.767 297.9 126.841 297.793 126.913 297.7C126.913 297.7 110.469 291.767 103.589 287.745C96.7083 283.723 88.5451 280.926 83.8225 283.375C79.1 285.825 71.8712 290.374 73.0967 298.129C73.6128 301.391 74.7507 303.992 76.7528 306.215C76.094 304.814 75.6449 303.27 75.3713 301.54Z" fill="#5494FF"/>
<path d="M131.264 223.608C147.562 225.503 147.562 221.713 154.385 222.092C161.207 222.471 163.246 226.548 173.336 223.23C183.427 219.911 169.546 228.536 161.207 228.536C152.869 228.536 152.49 226.262 144.909 227.02C137.328 227.778 131.264 223.608 131.264 223.608Z" fill="#BA472B"/>
<path d="M153.751 141.835C153.751 145.417 151.445 147.656 151.445 149.223C151.445 150.79 154.52 150.79 154.52 150.79" stroke="#2E353D" stroke-width="0.8504" stroke-miterlimit="10"/>
</g>
<defs>
<filter id="filter0_f_61_33751" x="-383.778" y="-300.102" width="815.299" height="815.299" filterUnits="userSpaceOnUse" color-interpolation-filters="sRGB">
<feFlood flood-opacity="0" result="BackgroundImageFix"/>
<feBlend mode="normal" in="SourceGraphic" in2="BackgroundImageFix" result="shape"/>
<feGaussianBlur stdDeviation="150" result="effect1_foregroundBlur_61_33751"/>
</filter>
<filter id="filter1_f_61_33751" x="-96.4365" y="-368.201" width="815.299" height="815.299" filterUnits="userSpaceOnUse" color-interpolation-filters="sRGB">
<feFlood flood-opacity="0" result="BackgroundImageFix"/>
<feBlend mode="normal" in="SourceGraphic" in2="BackgroundImageFix" result="shape"/>
<feGaussianBlur stdDeviation="150" result="effect1_foregroundBlur_61_33751"/>
</filter>
<filter id="filter2_f_61_33751" x="-383.778" y="-434.473" width="815.299" height="815.299" filterUnits="userSpaceOnUse" color-interpolation-filters="sRGB">
<feFlood flood-opacity="0" result="BackgroundImageFix"/>
<feBlend mode="normal" in="SourceGraphic" in2="BackgroundImageFix" result="shape"/>
<feGaussianBlur stdDeviation="150" result="effect1_foregroundBlur_61_33751"/>
</filter>
<filter id="filter3_f_61_33751" x="-95.9639" y="157.6" width="815.299" height="815.299" filterUnits="userSpaceOnUse" color-interpolation-filters="sRGB">
<feFlood flood-opacity="0" result="BackgroundImageFix"/>
<feBlend mode="normal" in="SourceGraphic" in2="BackgroundImageFix" result="shape"/>
<feGaussianBlur stdDeviation="150" result="effect1_foregroundBlur_61_33751"/>
</filter>
<clipPath id="clip0_61_33751">
<rect x="0.921875" y="0.201172" width="310.527" height="672.395" rx="35.5469" fill="white"/>
</clipPath>
<clipPath id="clip1_61_33751">
<rect width="311" height="673" fill="white" transform="translate(0.685547 -0.101562)"/>
</clipPath>
</defs>
</svg>
