<svg width="311" height="673" viewBox="0 0 311 673" fill="none" xmlns="http://www.w3.org/2000/svg">
<g clip-path="url(#clip0_61_33422)">
<rect x="0.105469" y="0.201172" width="310.527" height="672.395" rx="35.5469" fill="#EAF8FF"/>
<g clip-path="url(#clip1_61_33422)">
<g opacity="0.8">
<g filter="url(#filter0_f_61_33422)">
<circle cx="23.0548" cy="107.548" r="107.649" fill="#CFFCF9"/>
</g>
</g>
<g opacity="0.8">
<g filter="url(#filter1_f_61_33422)">
<circle cx="310.397" cy="39.4483" r="107.649" fill="#CFFCF9"/>
</g>
</g>
<g opacity="0.8">
<g filter="url(#filter2_f_61_33422)">
<circle cx="23.0548" cy="-26.8232" r="107.649" fill="#CFFCF9"/>
</g>
</g>
<g opacity="0.8">
<g filter="url(#filter3_f_61_33422)">
<circle cx="310.869" cy="565.249" r="107.649" fill="#CFFCF9"/>
</g>
</g>
</g>
<rect x="280.742" y="16.209" width="14.9053" height="6.07254" rx="1.1041" fill="#151515"/>
<path fill-rule="evenodd" clip-rule="evenodd" d="M268.598 16.4435C270.44 16.4436 272.212 17.1508 273.547 18.4191C273.648 18.517 273.808 18.5158 273.907 18.4163L274.868 17.4472C274.919 17.3968 274.947 17.3284 274.946 17.2573C274.946 17.1863 274.917 17.1183 274.866 17.0684C271.362 13.7129 265.833 13.7129 262.329 17.0684C262.278 17.1182 262.249 17.1862 262.249 17.2573C262.249 17.3284 262.276 17.3967 262.327 17.4472L263.288 18.4163C263.387 18.5159 263.548 18.5172 263.648 18.4191C264.983 17.1507 266.755 16.4435 268.598 16.4435ZM268.598 19.597C269.61 19.5969 270.586 19.9728 271.336 20.6517C271.438 20.748 271.598 20.7459 271.697 20.647L272.657 19.6779C272.707 19.627 272.735 19.5581 272.735 19.4864C272.734 19.4147 272.704 19.3464 272.653 19.2966C270.368 17.1731 266.83 17.1731 264.545 19.2966C264.493 19.3464 264.464 19.4148 264.463 19.4865C264.463 19.5581 264.491 19.6271 264.541 19.6779L265.501 20.647C265.6 20.7459 265.76 20.748 265.861 20.6517C266.611 19.9733 267.586 19.5974 268.598 19.597ZM270.521 21.718C270.522 21.7899 270.494 21.8592 270.443 21.9095L268.782 23.5839C268.734 23.6331 268.667 23.6608 268.598 23.6608C268.529 23.6608 268.462 23.6331 268.414 23.5839L266.753 21.9095C266.702 21.8591 266.673 21.7898 266.675 21.718C266.676 21.6461 266.707 21.578 266.761 21.5299C267.821 20.6337 269.374 20.6337 270.435 21.5299C270.488 21.5781 270.519 21.6462 270.521 21.718Z" fill="#151515"/>
<path fill-rule="evenodd" clip-rule="evenodd" d="M257.28 14.8291H256.452C255.995 14.8291 255.624 15.1998 255.624 15.6572V22.8338C255.624 23.2911 255.995 23.6619 256.452 23.6619H257.28C257.738 23.6619 258.108 23.2911 258.108 22.8338V15.6572C258.108 15.1998 257.738 14.8291 257.28 14.8291ZM252.588 16.7618H253.416C253.873 16.7618 254.244 17.1326 254.244 17.5899V22.8343C254.244 23.2917 253.873 23.6624 253.416 23.6624H252.588C252.131 23.6624 251.76 23.2917 251.76 22.8343V17.5899C251.76 17.1326 252.131 16.7618 252.588 16.7618ZM249.552 18.6929H248.724C248.266 18.6929 247.896 19.0636 247.896 19.521V22.8333C247.896 23.2906 248.266 23.6613 248.724 23.6613H249.552C250.009 23.6613 250.38 23.2906 250.38 22.8333V19.521C250.38 19.0636 250.009 18.6929 249.552 18.6929ZM245.687 20.349H244.859C244.402 20.349 244.031 20.7198 244.031 21.1771V22.8333C244.031 23.2906 244.402 23.6613 244.859 23.6613H245.687C246.145 23.6613 246.515 23.2906 246.515 22.8333V21.1771C246.515 20.7198 246.145 20.349 245.687 20.349Z" fill="#151515"/>
<path d="M32.1005 23.7833C30.6004 23.7833 29.4287 22.8889 29.1966 21.5756H30.6457C30.8268 22.1927 31.4099 22.6002 32.1231 22.6002C33.3288 22.6002 34.0534 21.4681 34.0308 19.4925C34.0308 19.4925 34.0251 19.4925 34.0194 19.4925H34.0138H34.0081C33.6911 20.2907 32.8533 20.8284 31.7948 20.8284C30.2438 20.8284 29.0834 19.6793 29.0834 18.1283C29.0834 16.4754 30.3683 15.281 32.1344 15.281C33.3345 15.281 34.3081 15.8584 34.8516 16.8999C35.2365 17.5679 35.4346 18.4227 35.4346 19.4416C35.4346 22.1644 34.1949 23.7833 32.1005 23.7833ZM32.1401 19.685C33.0741 19.685 33.7817 19.0057 33.7817 18.1057C33.7817 17.1943 33.0685 16.4811 32.1514 16.4811C31.2401 16.4811 30.5212 17.1886 30.5212 18.083C30.5212 19.0057 31.2118 19.685 32.1401 19.685ZM37.2519 22.4247C36.7934 22.4247 36.4368 22.0681 36.4368 21.6096C36.4368 21.1568 36.7934 20.7945 37.2519 20.7945C37.7048 20.7945 38.0614 21.1568 38.0614 21.6096C38.0614 22.0681 37.7048 22.4247 37.2519 22.4247ZM37.2519 18.3377C36.7934 18.3377 36.4368 17.9755 36.4368 17.5226C36.4368 17.0698 36.7934 16.7075 37.2519 16.7075C37.7048 16.7075 38.0614 17.0698 38.0614 17.5226C38.0614 17.9755 37.7048 18.3377 37.2519 18.3377ZM43.0769 23.6191V22.0738H39.0013V20.8171C39.7089 19.4812 40.6202 18.0264 42.392 15.4508H44.4695V20.8794H45.5676V22.0738H44.4695V23.6191H43.0769ZM40.3259 20.8737V20.9133H43.0996V16.532H43.0769C41.758 18.4453 40.9768 19.651 40.3259 20.8737ZM48.3189 23.6191V16.8433H48.285L46.1735 18.3264V16.9509L48.3076 15.4508H49.7511V23.6191H48.3189Z" fill="#151515"/>
<path d="M64.8202 432.42C64.8202 433.979 64.6197 435.4 64.2186 436.686C63.8176 437.971 63.216 439.069 62.4139 439.98C61.6118 440.892 60.6001 441.58 59.3788 442.045L64.1366 447.199H59.7616L56.0018 442.701C55.9107 442.701 55.8195 442.701 55.7284 442.701C55.6463 442.71 55.5643 442.715 55.4823 442.715C53.8872 442.715 52.5018 442.469 51.326 441.977C50.1594 441.484 49.1887 440.783 48.4139 439.871C47.6483 438.96 47.0741 437.87 46.6913 436.604C46.3085 435.337 46.1171 433.933 46.1171 432.393C46.1171 430.333 46.4543 428.537 47.1288 427.006C47.8124 425.465 48.8469 424.271 50.2323 423.424C51.6268 422.567 53.3859 422.139 55.5096 422.139C57.5878 422.139 59.315 422.562 60.6913 423.41C62.0676 424.258 63.0975 425.452 63.7811 426.992C64.4738 428.523 64.8202 430.333 64.8202 432.42ZM49.5624 432.42C49.5624 433.96 49.772 435.296 50.1913 436.426C50.6105 437.547 51.2531 438.413 52.119 439.023C52.994 439.625 54.1151 439.926 55.4823 439.926C56.8586 439.926 57.9797 439.625 58.8456 439.023C59.7115 438.413 60.3495 437.547 60.7596 436.426C61.1698 435.296 61.3749 433.96 61.3749 432.42C61.3749 430.077 60.9055 428.245 59.9667 426.924C59.037 425.593 57.5513 424.928 55.5096 424.928C54.1424 424.928 53.0168 425.229 52.1327 425.83C51.2577 426.432 50.6105 427.293 50.1913 428.414C49.772 429.526 49.5624 430.861 49.5624 432.42ZM81.9784 427.307V442.441H79.4491L79.0116 440.404H78.8338C78.5148 440.924 78.1092 441.357 77.6171 441.703C77.1249 442.04 76.578 442.291 75.9764 442.455C75.3749 442.628 74.7414 442.715 74.076 442.715C72.9367 442.715 71.9615 442.523 71.1503 442.141C70.3482 441.749 69.7329 441.147 69.3046 440.336C68.8762 439.525 68.662 438.477 68.662 437.191V427.307H71.8885V436.59C71.8885 437.766 72.1255 438.645 72.5995 439.229C73.0825 439.812 73.8299 440.104 74.8417 440.104C75.8169 440.104 76.5917 439.903 77.1659 439.502C77.7401 439.101 78.1457 438.508 78.3827 437.725C78.6288 436.941 78.7518 435.979 78.7518 434.84V427.307H81.9784ZM89.7987 427.307V442.441H86.5858V427.307H89.7987ZM88.2128 421.51C88.7049 421.51 89.1288 421.642 89.4842 421.906C89.8488 422.171 90.0311 422.626 90.0311 423.273C90.0311 423.911 89.8488 424.367 89.4842 424.641C89.1288 424.905 88.7049 425.037 88.2128 425.037C87.7023 425.037 87.2694 424.905 86.9139 424.641C86.5676 424.367 86.3944 423.911 86.3944 423.273C86.3944 422.626 86.5676 422.171 86.9139 421.906C87.2694 421.642 87.7023 421.51 88.2128 421.51ZM100.435 427.02C101.784 427.02 102.942 427.298 103.908 427.854C104.874 428.41 105.617 429.198 106.137 430.219C106.656 431.24 106.916 432.461 106.916 433.883V435.605H96.8124C96.8488 437.073 97.2407 438.203 97.9881 438.996C98.7447 439.789 99.8019 440.186 101.16 440.186C102.126 440.186 102.992 440.094 103.758 439.912C104.532 439.721 105.33 439.443 106.15 439.078V441.689C105.394 442.045 104.624 442.305 103.84 442.469C103.056 442.633 102.117 442.715 101.023 442.715C99.5376 442.715 98.2297 442.428 97.0995 441.854C95.9784 441.27 95.0988 440.404 94.4608 439.256C93.8319 438.107 93.5174 436.681 93.5174 434.977C93.5174 433.281 93.8046 431.841 94.3788 430.656C94.953 429.471 95.7596 428.569 96.7987 427.949C97.8378 427.329 99.05 427.02 100.435 427.02ZM100.435 429.439C99.4237 429.439 98.6034 429.768 97.9745 430.424C97.3547 431.08 96.9901 432.042 96.8807 433.309H103.771C103.762 432.552 103.635 431.882 103.389 431.299C103.152 430.715 102.787 430.26 102.295 429.932C101.812 429.604 101.192 429.439 100.435 429.439ZM116.172 440.117C116.591 440.117 117.006 440.081 117.416 440.008C117.826 439.926 118.2 439.83 118.537 439.721V442.154C118.182 442.309 117.721 442.441 117.156 442.551C116.591 442.66 116.003 442.715 115.392 442.715C114.536 442.715 113.765 442.574 113.082 442.291C112.398 441.999 111.856 441.503 111.455 440.801C111.054 440.099 110.853 439.128 110.853 437.889V429.754H108.789V428.318L111.004 427.184L112.057 423.943H114.08V427.307H118.414V429.754H114.08V437.848C114.08 438.613 114.271 439.183 114.654 439.557C115.037 439.93 115.543 440.117 116.172 440.117ZM134.875 431.572L139.619 422.453H143.16L136.515 434.676V442.441H133.248V434.799L126.59 422.453H130.158L134.875 431.572ZM158.855 434.84C158.855 436.098 158.691 437.214 158.363 438.189C158.035 439.165 157.557 439.99 156.928 440.664C156.299 441.329 155.542 441.84 154.658 442.195C153.774 442.542 152.776 442.715 151.664 442.715C150.625 442.715 149.672 442.542 148.807 442.195C147.941 441.84 147.189 441.329 146.551 440.664C145.922 439.99 145.434 439.165 145.088 438.189C144.741 437.214 144.568 436.098 144.568 434.84C144.568 433.172 144.855 431.759 145.43 430.602C146.013 429.435 146.842 428.546 147.918 427.936C148.993 427.325 150.274 427.02 151.76 427.02C153.154 427.02 154.385 427.325 155.451 427.936C156.517 428.546 157.351 429.435 157.953 430.602C158.555 431.768 158.855 433.181 158.855 434.84ZM147.877 434.84C147.877 435.943 148.009 436.886 148.273 437.67C148.547 438.454 148.966 439.055 149.531 439.475C150.096 439.885 150.825 440.09 151.719 440.09C152.612 440.09 153.341 439.885 153.906 439.475C154.471 439.055 154.886 438.454 155.15 437.67C155.415 436.886 155.547 435.943 155.547 434.84C155.547 433.737 155.415 432.803 155.15 432.037C154.886 431.262 154.471 430.674 153.906 430.273C153.341 429.863 152.607 429.658 151.705 429.658C150.374 429.658 149.404 430.105 148.793 430.998C148.182 431.891 147.877 433.172 147.877 434.84ZM175.74 427.307V442.441H173.211L172.773 440.404H172.596C172.277 440.924 171.871 441.357 171.379 441.703C170.887 442.04 170.34 442.291 169.738 442.455C169.137 442.628 168.503 442.715 167.838 442.715C166.698 442.715 165.723 442.523 164.912 442.141C164.11 441.749 163.495 441.147 163.066 440.336C162.638 439.525 162.424 438.477 162.424 437.191V427.307H165.65V436.59C165.65 437.766 165.887 438.645 166.361 439.229C166.844 439.812 167.592 440.104 168.603 440.104C169.579 440.104 170.353 439.903 170.928 439.502C171.502 439.101 171.907 438.508 172.144 437.725C172.39 436.941 172.514 435.979 172.514 434.84V427.307H175.74ZM188.017 427.02C188.273 427.02 188.551 427.033 188.851 427.061C189.152 427.088 189.412 427.124 189.631 427.17L189.33 430.178C189.139 430.123 188.902 430.082 188.619 430.055C188.346 430.027 188.099 430.014 187.881 430.014C187.307 430.014 186.76 430.109 186.24 430.301C185.721 430.483 185.26 430.766 184.859 431.148C184.458 431.522 184.144 431.992 183.916 432.557C183.688 433.122 183.574 433.778 183.574 434.525V442.441H180.348V427.307H182.863L183.301 429.973H183.451C183.752 429.435 184.126 428.943 184.572 428.496C185.019 428.049 185.529 427.694 186.103 427.43C186.687 427.156 187.325 427.02 188.017 427.02ZM208.662 442.441L202.906 425.748H202.783C202.81 426.122 202.842 426.632 202.879 427.279C202.915 427.926 202.947 428.619 202.974 429.357C203.002 430.096 203.015 430.802 203.015 431.477V442.441H200.035V422.453H204.642L210.18 438.408H210.262L215.99 422.453H220.584V442.441H217.453V431.312C217.453 430.702 217.462 430.041 217.48 429.33C217.508 428.619 217.535 427.945 217.562 427.307C217.599 426.669 217.626 426.158 217.644 425.775H217.535L211.56 442.441H208.662ZM228.732 427.307V442.441H225.519V427.307H228.732ZM227.146 421.51C227.639 421.51 228.062 421.642 228.418 421.906C228.782 422.171 228.965 422.626 228.965 423.273C228.965 423.911 228.782 424.367 228.418 424.641C228.062 424.905 227.639 425.037 227.146 425.037C226.636 425.037 226.203 424.905 225.848 424.641C225.501 424.367 225.328 423.911 225.328 423.273C225.328 422.626 225.501 422.171 225.848 421.906C226.203 421.642 226.636 421.51 227.146 421.51ZM241.228 427.02C242.933 427.02 244.259 427.462 245.207 428.346C246.164 429.221 246.642 430.629 246.642 432.57V442.441H243.43V433.172C243.43 431.996 243.188 431.117 242.705 430.533C242.222 429.941 241.474 429.645 240.463 429.645C238.995 429.645 237.974 430.096 237.4 430.998C236.835 431.9 236.553 433.208 236.553 434.922V442.441H233.34V427.307H235.842L236.293 429.357H236.471C236.799 428.829 237.204 428.396 237.687 428.059C238.18 427.712 238.726 427.452 239.328 427.279C239.939 427.106 240.572 427.02 241.228 427.02ZM256.226 442.715C254.422 442.715 252.973 442.059 251.879 440.746C250.794 439.424 250.252 437.479 250.252 434.908C250.252 432.311 250.803 430.346 251.906 429.016C253.018 427.685 254.481 427.02 256.295 427.02C257.06 427.02 257.73 427.124 258.305 427.334C258.879 427.535 259.371 427.808 259.781 428.154C260.2 428.501 260.556 428.888 260.848 429.316H260.998C260.952 429.034 260.898 428.628 260.834 428.1C260.779 427.562 260.752 427.065 260.752 426.609V421.168H263.978V442.441H261.463L260.889 440.377H260.752C260.478 440.814 260.132 441.211 259.713 441.566C259.303 441.913 258.81 442.191 258.236 442.4C257.671 442.61 257.001 442.715 256.226 442.715ZM257.129 440.104C258.505 440.104 259.476 439.707 260.041 438.914C260.606 438.121 260.898 436.932 260.916 435.346V434.922C260.916 433.227 260.642 431.928 260.096 431.025C259.549 430.114 258.551 429.658 257.101 429.658C255.944 429.658 255.06 430.128 254.449 431.066C253.848 431.996 253.547 433.295 253.547 434.963C253.547 436.631 253.848 437.907 254.449 438.791C255.06 439.666 255.953 440.104 257.129 440.104Z" fill="black"/>
<path d="M56.7988 479.441H55.4707V472.082C55.4707 471.28 55.5072 470.363 55.5801 469.332H55.5176L51.6035 479.441H50.541L46.666 469.316H46.6035C46.6764 470.15 46.7129 471.103 46.7129 472.176V479.441H45.4863V468.02H47.4863L51.1035 477.441H51.166L54.8145 468.02H56.7988V479.441ZM63.3613 479.598C62.0957 479.598 61.0957 479.212 60.3613 478.441C59.6322 477.665 59.2676 476.59 59.2676 475.215C59.2676 473.84 59.6061 472.749 60.2832 471.941C60.9655 471.129 61.8613 470.723 62.9707 470.723C64.0853 470.723 64.9525 471.079 65.5723 471.793C66.1973 472.486 66.5098 473.413 66.5098 474.574V475.395H60.6113C60.6374 476.395 60.89 477.158 61.3691 477.684C61.8483 478.204 62.5384 478.465 63.4395 478.465C64.3405 478.465 65.2389 478.272 66.1348 477.887V479.043C65.6816 479.241 65.2467 479.382 64.8301 479.465C64.4186 479.553 63.929 479.598 63.3613 479.598ZM65.1191 474.34C65.1191 473.527 64.9368 472.905 64.5723 472.473C64.2077 472.035 63.6842 471.816 63.002 471.816C62.3249 471.816 61.7806 472.038 61.3691 472.48C60.9577 472.923 60.7155 473.543 60.6426 474.34H65.1191ZM75.7832 479.441H74.7285L74.5566 478.293H74.4863C73.8822 479.163 73.002 479.598 71.8457 479.598C70.6947 479.598 69.8066 479.215 69.1816 478.449C68.5618 477.678 68.252 476.59 68.252 475.184C68.252 473.772 68.5645 472.676 69.1895 471.895C69.8145 471.113 70.6947 470.723 71.8301 470.723C72.9707 470.723 73.8509 471.145 74.4707 471.988H74.5723L74.5176 471.371L74.4863 470.77V467.285H75.7832V479.441ZM74.4863 475.457V475.184C74.4863 473.97 74.2832 473.105 73.877 472.59C73.4863 472.074 72.8431 471.816 71.9473 471.816C71.1868 471.816 70.6035 472.111 70.1973 472.699C69.7962 473.283 69.5957 474.118 69.5957 475.207C69.5957 476.296 69.7962 477.118 70.1973 477.676C70.5983 478.233 71.1868 478.512 71.9629 478.512C72.8483 478.512 73.4889 478.272 73.8848 477.793C74.2858 477.309 74.4863 476.53 74.4863 475.457ZM78.4316 468.559C78.4316 468.272 78.502 468.059 78.6426 467.918C78.7832 467.772 78.9655 467.699 79.1895 467.699C79.4134 467.699 79.5983 467.772 79.7441 467.918C79.89 468.064 79.9629 468.277 79.9629 468.559C79.9629 468.84 79.89 469.056 79.7441 469.207C79.5983 469.353 79.4134 469.426 79.1895 469.426C78.9655 469.426 78.7832 469.353 78.6426 469.207C78.502 469.056 78.4316 468.84 78.4316 468.559ZM79.8379 479.441H78.541V470.879H79.8379V479.441ZM83.9785 470.879H86.4629V471.887H83.9785V476.926C83.9785 477.436 84.0983 477.832 84.3379 478.113C84.5827 478.389 84.916 478.527 85.3379 478.527C85.7598 478.527 86.1556 478.475 86.5254 478.371V479.371C86.4004 479.434 86.1973 479.486 85.916 479.527C85.6348 479.574 85.3848 479.598 85.166 479.598C83.5098 479.598 82.6816 478.725 82.6816 476.98V471.887H81.4551V471.262L82.6816 470.723L83.2285 468.895H83.9785V470.879ZM88.5645 471.473C89.4603 470.983 90.4238 470.738 91.4551 470.738C92.4863 470.738 93.2441 470.967 93.7285 471.426C94.2181 471.879 94.4629 472.603 94.4629 473.598V479.441H93.5098L93.252 478.223H93.1895C92.7624 478.759 92.3353 479.124 91.9082 479.316C91.4863 479.504 90.9577 479.598 90.3223 479.598C89.4733 479.598 88.8066 479.379 88.3223 478.941C87.8379 478.499 87.5957 477.876 87.5957 477.074C87.5957 475.35 88.9811 474.444 91.752 474.355L93.2051 474.309V473.777C93.2051 473.1 93.0592 472.605 92.7676 472.293C92.4811 471.975 91.9967 471.816 91.3145 471.816C90.6322 471.816 89.8483 472.033 88.9629 472.465L88.5645 471.473ZM88.9629 477.09C88.9629 477.553 89.1035 477.91 89.3848 478.16C89.666 478.405 90.0645 478.527 90.5801 478.527C91.3874 478.527 92.0202 478.306 92.4785 477.863C92.9421 477.415 93.1738 476.796 93.1738 476.004V475.23L91.877 475.285C90.8457 475.322 90.1009 475.483 89.6426 475.77C89.1895 476.051 88.9629 476.491 88.9629 477.09ZM98.541 470.879H101.025V471.887H98.541V476.926C98.541 477.436 98.6608 477.832 98.9004 478.113C99.1452 478.389 99.4785 478.527 99.9004 478.527C100.322 478.527 100.718 478.475 101.088 478.371V479.371C100.963 479.434 100.76 479.486 100.479 479.527C100.197 479.574 99.9473 479.598 99.7285 479.598C98.0723 479.598 97.2441 478.725 97.2441 476.98V471.887H96.0176V471.262L97.2441 470.723L97.791 468.895H98.541V470.879ZM106.424 479.598C105.158 479.598 104.158 479.212 103.424 478.441C102.695 477.665 102.33 476.59 102.33 475.215C102.33 473.84 102.669 472.749 103.346 471.941C104.028 471.129 104.924 470.723 106.033 470.723C107.148 470.723 108.015 471.079 108.635 471.793C109.26 472.486 109.572 473.413 109.572 474.574V475.395H103.674C103.7 476.395 103.952 477.158 104.432 477.684C104.911 478.204 105.601 478.465 106.502 478.465C107.403 478.465 108.301 478.272 109.197 477.887V479.043C108.744 479.241 108.309 479.382 107.893 479.465C107.481 479.553 106.992 479.598 106.424 479.598ZM108.182 474.34C108.182 473.527 107.999 472.905 107.635 472.473C107.27 472.035 106.747 471.816 106.064 471.816C105.387 471.816 104.843 472.038 104.432 472.48C104.02 472.923 103.778 473.543 103.705 474.34H108.182ZM118.986 479.598C117.861 479.598 116.992 479.322 116.377 478.77C115.762 478.217 115.455 477.454 115.455 476.48C115.455 475.809 115.635 475.21 115.994 474.684C116.359 474.163 117.01 473.637 117.947 473.105C117.52 472.632 117.223 472.264 117.057 472.004C116.702 471.447 116.525 470.887 116.525 470.324C116.525 469.543 116.781 468.934 117.291 468.496C117.801 468.059 118.494 467.84 119.369 467.84C120.249 467.84 120.929 468.056 121.408 468.488C121.893 468.921 122.135 469.527 122.135 470.309C122.135 470.866 121.96 471.384 121.611 471.863C121.257 472.327 120.671 472.801 119.854 473.285L123.033 476.34C123.518 475.803 123.898 474.949 124.174 473.777H125.486C125.137 475.257 124.604 476.387 123.885 477.168L126.221 479.441H124.432L122.986 478.051C122.367 478.603 121.742 478.999 121.111 479.238C120.486 479.478 119.778 479.598 118.986 479.598ZM120.846 470.285C120.846 469.868 120.71 469.535 120.439 469.285C120.174 469.035 119.812 468.91 119.354 468.91C118.895 468.91 118.523 469.035 118.236 469.285C117.95 469.535 117.807 469.855 117.807 470.246C117.807 470.637 117.898 470.991 118.08 471.309C118.262 471.626 118.585 472.022 119.049 472.496C119.736 472.095 120.208 471.73 120.463 471.402C120.718 471.074 120.846 470.702 120.846 470.285ZM117.4 477.902C117.812 478.257 118.351 478.434 119.018 478.434C120.278 478.434 121.317 478.033 122.135 477.23L118.729 473.918C118.166 474.262 117.765 474.551 117.525 474.785C117.041 475.243 116.799 475.788 116.799 476.418C116.799 477.048 116.999 477.543 117.4 477.902ZM135.697 470.723C136.072 470.723 136.413 470.754 136.721 470.816L136.541 472.02C136.187 471.941 135.874 471.902 135.604 471.902C134.906 471.902 134.312 472.184 133.822 472.746C133.333 473.303 133.088 474.004 133.088 474.848V479.441H131.791V470.879H132.861L133.01 472.465H133.072C133.39 471.902 133.773 471.473 134.221 471.176C134.674 470.874 135.166 470.723 135.697 470.723ZM141.939 479.598C140.674 479.598 139.674 479.212 138.939 478.441C138.21 477.665 137.846 476.59 137.846 475.215C137.846 473.84 138.184 472.749 138.861 471.941C139.544 471.129 140.439 470.723 141.549 470.723C142.663 470.723 143.531 471.079 144.15 471.793C144.775 472.486 145.088 473.413 145.088 474.574V475.395H139.189C139.215 476.395 139.468 477.158 139.947 477.684C140.426 478.204 141.117 478.465 142.018 478.465C142.919 478.465 143.817 478.272 144.713 477.887V479.043C144.26 479.241 143.825 479.382 143.408 479.465C142.997 479.553 142.507 479.598 141.939 479.598ZM143.697 474.34C143.697 473.527 143.515 472.905 143.15 472.473C142.786 472.035 142.262 471.816 141.58 471.816C140.903 471.816 140.359 472.038 139.947 472.48C139.536 472.923 139.294 473.543 139.221 474.34H143.697ZM149.471 478.527C150.877 478.527 151.58 478.09 151.58 477.215C151.58 476.882 151.434 476.598 151.143 476.363C150.856 476.124 150.294 475.842 149.455 475.52C148.653 475.223 148.083 474.962 147.744 474.738C147.411 474.514 147.163 474.264 147.002 473.988C146.84 473.712 146.76 473.376 146.76 472.98C146.76 472.288 147.044 471.738 147.611 471.332C148.179 470.926 148.939 470.723 149.893 470.723C150.846 470.723 151.765 470.91 152.65 471.285L152.189 472.34C151.335 471.991 150.58 471.816 149.924 471.816C149.273 471.816 148.788 471.91 148.471 472.098C148.153 472.285 147.994 472.551 147.994 472.895C147.994 473.124 148.051 473.319 148.166 473.48C148.281 473.642 148.468 473.796 148.729 473.941C148.989 474.087 149.492 474.298 150.236 474.574C151.252 474.944 151.937 475.316 152.291 475.691C152.65 476.066 152.83 476.538 152.83 477.105C152.83 477.902 152.531 478.517 151.932 478.949C151.338 479.382 150.489 479.598 149.385 479.598C148.286 479.598 147.419 479.418 146.783 479.059V477.855C147.669 478.303 148.564 478.527 149.471 478.527ZM158.549 479.598C157.283 479.598 156.283 479.212 155.549 478.441C154.82 477.665 154.455 476.59 154.455 475.215C154.455 473.84 154.794 472.749 155.471 471.941C156.153 471.129 157.049 470.723 158.158 470.723C159.273 470.723 160.14 471.079 160.76 471.793C161.385 472.486 161.697 473.413 161.697 474.574V475.395H155.799C155.825 476.395 156.077 477.158 156.557 477.684C157.036 478.204 157.726 478.465 158.627 478.465C159.528 478.465 160.426 478.272 161.322 477.887V479.043C160.869 479.241 160.434 479.382 160.018 479.465C159.606 479.553 159.117 479.598 158.549 479.598ZM160.307 474.34C160.307 473.527 160.124 472.905 159.76 472.473C159.395 472.035 158.872 471.816 158.189 471.816C157.512 471.816 156.968 472.038 156.557 472.48C156.145 472.923 155.903 473.543 155.83 474.34H160.307ZM165.307 470.879H167.791V471.887H165.307V476.926C165.307 477.436 165.426 477.832 165.666 478.113C165.911 478.389 166.244 478.527 166.666 478.527C167.088 478.527 167.484 478.475 167.854 478.371V479.371C167.729 479.434 167.525 479.486 167.244 479.527C166.963 479.574 166.713 479.598 166.494 479.598C164.838 479.598 164.01 478.725 164.01 476.98V471.887H162.783V471.262L164.01 470.723L164.557 468.895H165.307V470.879ZM182.26 479.441H180.721L179.15 474.418C179.077 474.194 178.893 473.496 178.596 472.324H178.533C178.314 473.267 178.132 473.97 177.986 474.434L176.369 479.441H174.869L172.533 470.879H173.893C174.518 473.285 174.937 474.923 175.15 475.793C175.447 476.949 175.614 477.707 175.65 478.066H175.713C175.76 477.801 175.854 477.415 175.994 476.91C176.135 476.4 176.244 476.027 176.322 475.793L177.893 470.879H179.299L180.83 475.793C181.132 476.725 181.33 477.478 181.424 478.051H181.486C181.512 477.863 181.562 477.608 181.635 477.285C181.708 476.957 182.257 474.822 183.283 470.879H184.627L182.26 479.441ZM186.072 468.559C186.072 468.272 186.143 468.059 186.283 467.918C186.424 467.772 186.606 467.699 186.83 467.699C187.054 467.699 187.239 467.772 187.385 467.918C187.531 468.064 187.604 468.277 187.604 468.559C187.604 468.84 187.531 469.056 187.385 469.207C187.239 469.353 187.054 469.426 186.83 469.426C186.606 469.426 186.424 469.353 186.283 469.207C186.143 469.056 186.072 468.84 186.072 468.559ZM187.479 479.441H186.182V470.879H187.479V479.441ZM191.619 470.879H194.104V471.887H191.619V476.926C191.619 477.436 191.739 477.832 191.979 478.113C192.223 478.389 192.557 478.527 192.979 478.527C193.4 478.527 193.796 478.475 194.166 478.371V479.371C194.041 479.434 193.838 479.486 193.557 479.527C193.275 479.574 193.025 479.598 192.807 479.598C191.15 479.598 190.322 478.725 190.322 476.98V471.887H189.096V471.262L190.322 470.723L190.869 468.895H191.619V470.879ZM197.182 467.285V470.965C197.182 471.397 197.161 471.764 197.119 472.066H197.197C197.452 471.65 197.817 471.324 198.291 471.09C198.765 470.855 199.301 470.738 199.9 470.738C200.958 470.738 201.744 470.991 202.26 471.496C202.781 472.001 203.041 472.788 203.041 473.855V479.441H201.744V473.902C201.744 473.199 201.583 472.678 201.26 472.34C200.942 472.001 200.447 471.832 199.775 471.832C198.864 471.832 198.202 472.077 197.791 472.566C197.385 473.051 197.182 473.85 197.182 474.965V479.441H195.885V467.285H197.182ZM212.033 478.527C213.439 478.527 214.143 478.09 214.143 477.215C214.143 476.882 213.997 476.598 213.705 476.363C213.419 476.124 212.856 475.842 212.018 475.52C211.215 475.223 210.645 474.962 210.307 474.738C209.973 474.514 209.726 474.264 209.564 473.988C209.403 473.712 209.322 473.376 209.322 472.98C209.322 472.288 209.606 471.738 210.174 471.332C210.742 470.926 211.502 470.723 212.455 470.723C213.408 470.723 214.327 470.91 215.213 471.285L214.752 472.34C213.898 471.991 213.143 471.816 212.486 471.816C211.835 471.816 211.351 471.91 211.033 472.098C210.715 472.285 210.557 472.551 210.557 472.895C210.557 473.124 210.614 473.319 210.729 473.48C210.843 473.642 211.031 473.796 211.291 473.941C211.551 474.087 212.054 474.298 212.799 474.574C213.814 474.944 214.499 475.316 214.854 475.691C215.213 476.066 215.393 476.538 215.393 477.105C215.393 477.902 215.093 478.517 214.494 478.949C213.9 479.382 213.051 479.598 211.947 479.598C210.848 479.598 209.981 479.418 209.346 479.059V477.855C210.231 478.303 211.127 478.527 212.033 478.527ZM221.111 479.598C219.846 479.598 218.846 479.212 218.111 478.441C217.382 477.665 217.018 476.59 217.018 475.215C217.018 473.84 217.356 472.749 218.033 471.941C218.715 471.129 219.611 470.723 220.721 470.723C221.835 470.723 222.702 471.079 223.322 471.793C223.947 472.486 224.26 473.413 224.26 474.574V475.395H218.361C218.387 476.395 218.64 477.158 219.119 477.684C219.598 478.204 220.288 478.465 221.189 478.465C222.09 478.465 222.989 478.272 223.885 477.887V479.043C223.432 479.241 222.997 479.382 222.58 479.465C222.169 479.553 221.679 479.598 221.111 479.598ZM222.869 474.34C222.869 473.527 222.687 472.905 222.322 472.473C221.958 472.035 221.434 471.816 220.752 471.816C220.075 471.816 219.531 472.038 219.119 472.48C218.708 472.923 218.465 473.543 218.393 474.34H222.869ZM230.525 470.723C231.567 470.723 232.346 470.975 232.861 471.48C233.377 471.986 233.635 472.777 233.635 473.855V479.441H232.338V473.902C232.338 473.199 232.176 472.678 231.854 472.34C231.536 472.001 231.041 471.832 230.369 471.832C229.468 471.832 228.809 472.074 228.393 472.559C227.981 473.043 227.775 473.84 227.775 474.949V479.441H226.479V470.879H227.533L227.744 472.051H227.807C228.072 471.629 228.442 471.303 228.916 471.074C229.395 470.84 229.932 470.723 230.525 470.723ZM238.471 478.527C239.877 478.527 240.58 478.09 240.58 477.215C240.58 476.882 240.434 476.598 240.143 476.363C239.856 476.124 239.294 475.842 238.455 475.52C237.653 475.223 237.083 474.962 236.744 474.738C236.411 474.514 236.163 474.264 236.002 473.988C235.84 473.712 235.76 473.376 235.76 472.98C235.76 472.288 236.044 471.738 236.611 471.332C237.179 470.926 237.939 470.723 238.893 470.723C239.846 470.723 240.765 470.91 241.65 471.285L241.189 472.34C240.335 471.991 239.58 471.816 238.924 471.816C238.273 471.816 237.788 471.91 237.471 472.098C237.153 472.285 236.994 472.551 236.994 472.895C236.994 473.124 237.051 473.319 237.166 473.48C237.281 473.642 237.468 473.796 237.729 473.941C237.989 474.087 238.492 474.298 239.236 474.574C240.252 474.944 240.937 475.316 241.291 475.691C241.65 476.066 241.83 476.538 241.83 477.105C241.83 477.902 241.531 478.517 240.932 478.949C240.338 479.382 239.489 479.598 238.385 479.598C237.286 479.598 236.419 479.418 235.783 479.059V477.855C236.669 478.303 237.564 478.527 238.471 478.527ZM243.447 475.152C243.447 473.757 243.794 472.671 244.486 471.895C245.184 471.113 246.143 470.723 247.361 470.723C248.585 470.723 249.546 471.121 250.244 471.918C250.958 472.71 251.314 473.796 251.314 475.176C251.314 476.556 250.963 477.639 250.26 478.426C249.557 479.207 248.585 479.598 247.346 479.598C247.325 479.598 247.304 479.598 247.283 479.598C246.153 479.598 245.231 479.197 244.518 478.395C243.804 477.592 243.447 476.548 243.447 475.262C243.447 475.225 243.447 475.189 243.447 475.152ZM247.361 471.832C245.648 471.832 244.791 472.939 244.791 475.152C244.791 476.246 245.01 477.079 245.447 477.652C245.89 478.225 246.533 478.512 247.377 478.512C248.226 478.512 248.869 478.228 249.307 477.66C249.749 477.087 249.971 476.254 249.971 475.16C249.971 474.066 249.749 473.238 249.307 472.676C248.869 472.113 248.221 471.832 247.361 471.832ZM257.51 470.723C257.885 470.723 258.226 470.754 258.533 470.816L258.354 472.02C257.999 471.941 257.687 471.902 257.416 471.902C256.718 471.902 256.124 472.184 255.635 472.746C255.145 473.303 254.9 474.004 254.9 474.848V479.441H253.604V470.879H254.674L254.822 472.465H254.885C255.202 471.902 255.585 471.473 256.033 471.176C256.486 470.874 256.979 470.723 257.51 470.723ZM260.057 483.285C259.671 483.285 259.281 483.241 258.885 483.152V482.113C259.176 482.176 259.497 482.207 259.846 482.207C260.736 482.207 261.372 481.707 261.752 480.707L262.229 479.488L258.775 470.879H260.166L262.041 475.762C262.442 476.845 262.697 477.65 262.807 478.176H262.869C262.942 477.91 263.072 477.493 263.26 476.926C263.447 476.353 264.166 474.337 265.416 470.879H266.807L263.127 480.629C262.752 481.603 262.325 482.285 261.846 482.676C261.361 483.082 260.765 483.285 260.057 483.285ZM113.338 499.598C112.072 499.598 111.072 499.212 110.338 498.441C109.609 497.665 109.244 496.59 109.244 495.215C109.244 493.84 109.583 492.749 110.26 491.941C110.942 491.129 111.838 490.723 112.947 490.723C114.062 490.723 114.929 491.079 115.549 491.793C116.174 492.486 116.486 493.413 116.486 494.574V495.395H110.588C110.614 496.395 110.867 497.158 111.346 497.684C111.825 498.204 112.515 498.465 113.416 498.465C114.317 498.465 115.215 498.272 116.111 497.887V499.043C115.658 499.241 115.223 499.382 114.807 499.465C114.395 499.553 113.906 499.598 113.338 499.598ZM115.096 494.34C115.096 493.527 114.913 492.905 114.549 492.473C114.184 492.035 113.661 491.816 112.979 491.816C112.301 491.816 111.757 492.038 111.346 492.48C110.934 492.923 110.692 493.543 110.619 494.34H115.096ZM122.26 495.059L125.393 499.441H123.924L121.525 495.973L119.104 499.441H117.635L120.768 495.059L117.791 490.879H119.268L121.525 494.16L123.775 490.879H125.236L122.26 495.059ZM128.393 492.051C129.018 491.165 129.903 490.723 131.049 490.723C132.2 490.723 133.085 491.111 133.705 491.887C134.325 492.663 134.635 493.754 134.635 495.16C134.635 496.566 134.32 497.658 133.689 498.434C133.064 499.21 132.179 499.598 131.033 499.598C129.887 499.598 129.007 499.178 128.393 498.34H128.299C128.361 498.84 128.393 499.314 128.393 499.762V503.285H127.096V490.879H128.15L128.33 492.051H128.393ZM128.393 495.152C128.393 496.35 128.593 497.212 128.994 497.738C129.395 498.254 130.038 498.512 130.924 498.512C131.669 498.512 132.247 498.215 132.658 497.621C133.075 497.022 133.283 496.194 133.283 495.137C133.283 494.074 133.075 493.259 132.658 492.691C132.247 492.118 131.658 491.832 130.893 491.832C130.012 491.832 129.377 492.074 128.986 492.559C128.596 493.043 128.398 493.811 128.393 494.863V495.152ZM140.525 499.598C139.26 499.598 138.26 499.212 137.525 498.441C136.796 497.665 136.432 496.59 136.432 495.215C136.432 493.84 136.77 492.749 137.447 491.941C138.13 491.129 139.025 490.723 140.135 490.723C141.249 490.723 142.117 491.079 142.736 491.793C143.361 492.486 143.674 493.413 143.674 494.574V495.395H137.775C137.801 496.395 138.054 497.158 138.533 497.684C139.012 498.204 139.702 498.465 140.604 498.465C141.505 498.465 142.403 498.272 143.299 497.887V499.043C142.846 499.241 142.411 499.382 141.994 499.465C141.583 499.553 141.093 499.598 140.525 499.598ZM142.283 494.34C142.283 493.527 142.101 492.905 141.736 492.473C141.372 492.035 140.848 491.816 140.166 491.816C139.489 491.816 138.945 492.038 138.533 492.48C138.122 492.923 137.88 493.543 137.807 494.34H142.283ZM149.799 490.723C150.174 490.723 150.515 490.754 150.822 490.816L150.643 492.02C150.288 491.941 149.976 491.902 149.705 491.902C149.007 491.902 148.413 492.184 147.924 492.746C147.434 493.303 147.189 494.004 147.189 494.848V499.441H145.893V490.879H146.963L147.111 492.465H147.174C147.492 491.902 147.874 491.473 148.322 491.176C148.775 490.874 149.268 490.723 149.799 490.723ZM152.314 488.559C152.314 488.272 152.385 488.059 152.525 487.918C152.666 487.772 152.848 487.699 153.072 487.699C153.296 487.699 153.481 487.772 153.627 487.918C153.773 488.064 153.846 488.277 153.846 488.559C153.846 488.84 153.773 489.056 153.627 489.207C153.481 489.353 153.296 489.426 153.072 489.426C152.848 489.426 152.666 489.353 152.525 489.207C152.385 489.056 152.314 488.84 152.314 488.559ZM153.721 499.441H152.424V490.879H153.721V499.441ZM160.088 499.598C158.822 499.598 157.822 499.212 157.088 498.441C156.359 497.665 155.994 496.59 155.994 495.215C155.994 493.84 156.333 492.749 157.01 491.941C157.692 491.129 158.588 490.723 159.697 490.723C160.812 490.723 161.679 491.079 162.299 491.793C162.924 492.486 163.236 493.413 163.236 494.574V495.395H157.338C157.364 496.395 157.617 497.158 158.096 497.684C158.575 498.204 159.265 498.465 160.166 498.465C161.067 498.465 161.965 498.272 162.861 497.887V499.043C162.408 499.241 161.973 499.382 161.557 499.465C161.145 499.553 160.656 499.598 160.088 499.598ZM161.846 494.34C161.846 493.527 161.663 492.905 161.299 492.473C160.934 492.035 160.411 491.816 159.729 491.816C159.051 491.816 158.507 492.038 158.096 492.48C157.684 492.923 157.442 493.543 157.369 494.34H161.846ZM169.502 490.723C170.544 490.723 171.322 490.975 171.838 491.48C172.354 491.986 172.611 492.777 172.611 493.855V499.441H171.314V493.902C171.314 493.199 171.153 492.678 170.83 492.34C170.512 492.001 170.018 491.832 169.346 491.832C168.445 491.832 167.786 492.074 167.369 492.559C166.958 493.043 166.752 493.84 166.752 494.949V499.441H165.455V490.879H166.51L166.721 492.051H166.783C167.049 491.629 167.419 491.303 167.893 491.074C168.372 490.84 168.908 490.723 169.502 490.723ZM178.705 499.598C177.465 499.598 176.505 499.217 175.822 498.457C175.145 497.697 174.807 496.608 174.807 495.191C174.807 493.775 175.15 492.676 175.838 491.895C176.531 491.113 177.515 490.723 178.791 490.723C179.187 490.723 179.588 490.767 179.994 490.855C180.406 490.939 180.739 491.043 180.994 491.168L180.596 492.27C180.304 492.155 179.997 492.061 179.674 491.988C179.351 491.915 179.046 491.879 178.76 491.879C177.02 491.879 176.15 492.986 176.15 495.199C176.15 496.257 176.364 497.066 176.791 497.629C177.218 498.186 177.846 498.465 178.674 498.465C179.382 498.465 180.114 498.311 180.869 498.004V499.152C180.286 499.449 179.564 499.598 178.705 499.598ZM186.51 499.598C185.244 499.598 184.244 499.212 183.51 498.441C182.781 497.665 182.416 496.59 182.416 495.215C182.416 493.84 182.755 492.749 183.432 491.941C184.114 491.129 185.01 490.723 186.119 490.723C187.234 490.723 188.101 491.079 188.721 491.793C189.346 492.486 189.658 493.413 189.658 494.574V495.395H183.76C183.786 496.395 184.038 497.158 184.518 497.684C184.997 498.204 185.687 498.465 186.588 498.465C187.489 498.465 188.387 498.272 189.283 497.887V499.043C188.83 499.241 188.395 499.382 187.979 499.465C187.567 499.553 187.077 499.598 186.51 499.598ZM188.268 494.34C188.268 493.527 188.085 492.905 187.721 492.473C187.356 492.035 186.833 491.816 186.15 491.816C185.473 491.816 184.929 492.038 184.518 492.48C184.106 492.923 183.864 493.543 183.791 494.34H188.268ZM194.041 498.527C195.447 498.527 196.15 498.09 196.15 497.215C196.15 496.882 196.005 496.598 195.713 496.363C195.426 496.124 194.864 495.842 194.025 495.52C193.223 495.223 192.653 494.962 192.314 494.738C191.981 494.514 191.734 494.264 191.572 493.988C191.411 493.712 191.33 493.376 191.33 492.98C191.33 492.288 191.614 491.738 192.182 491.332C192.749 490.926 193.51 490.723 194.463 490.723C195.416 490.723 196.335 490.91 197.221 491.285L196.76 492.34C195.906 491.991 195.15 491.816 194.494 491.816C193.843 491.816 193.359 491.91 193.041 492.098C192.723 492.285 192.564 492.551 192.564 492.895C192.564 493.124 192.622 493.319 192.736 493.48C192.851 493.642 193.038 493.796 193.299 493.941C193.559 494.087 194.062 494.298 194.807 494.574C195.822 494.944 196.507 495.316 196.861 495.691C197.221 496.066 197.4 496.538 197.4 497.105C197.4 497.902 197.101 498.517 196.502 498.949C195.908 499.382 195.059 499.598 193.955 499.598C192.856 499.598 191.989 499.418 191.354 499.059V497.855C192.239 498.303 193.135 498.527 194.041 498.527ZM199.314 498.629C199.314 498.275 199.393 498.007 199.549 497.824C199.71 497.642 199.939 497.551 200.236 497.551C200.538 497.551 200.773 497.642 200.939 497.824C201.111 498.007 201.197 498.27 201.197 498.613C201.197 498.952 201.111 499.212 200.939 499.395C200.773 499.577 200.544 499.668 200.252 499.668C199.96 499.668 199.731 499.582 199.564 499.41C199.398 499.238 199.314 498.978 199.314 498.629Z" fill="#5B5F5F"/>
<rect x="16.1055" y="579.441" width="278.527" height="45" rx="22.5" fill="#2B6F71"/>
<path d="M134.704 602.374V604.85H140.01V605.941H133.485V597.702H139.998V598.794H134.704V601.307H139.033V602.374H134.704ZM147.391 599.606L144.674 603.072L142.554 605.941H141.068L143.95 602.285L145.918 599.606H147.391ZM141.068 599.606H142.579L144.674 602.298L147.531 605.941H146.058L143.874 603.085L141.068 599.606ZM152.237 606.081C151.746 606.081 151.335 605.975 151.005 605.764C150.675 605.552 150.417 605.277 150.231 604.938C150.045 604.6 149.909 604.24 149.825 603.859C149.74 603.478 149.698 603.119 149.698 602.78C149.698 602.323 149.736 601.896 149.812 601.498C149.896 601.1 150.032 600.749 150.218 600.444C150.404 600.139 150.662 599.902 150.993 599.733C151.323 599.564 151.737 599.479 152.237 599.479C152.787 599.479 153.282 599.623 153.722 599.911C154.162 600.19 154.514 600.58 154.776 601.079C155.047 601.578 155.182 602.145 155.182 602.78C155.182 603.432 155.047 604.007 154.776 604.507C154.505 604.998 154.145 605.383 153.697 605.662C153.257 605.941 152.77 606.081 152.237 606.081ZM151.894 605.015C152.3 605.015 152.66 604.922 152.973 604.735C153.286 604.541 153.527 604.278 153.697 603.948C153.875 603.61 153.963 603.22 153.963 602.78C153.963 602.128 153.781 601.591 153.417 601.168C153.062 600.745 152.554 600.533 151.894 600.533C151.496 600.533 151.141 600.626 150.828 600.812C150.523 600.998 150.282 601.261 150.104 601.599C149.926 601.938 149.837 602.332 149.837 602.78C149.837 603.203 149.913 603.584 150.066 603.923C150.227 604.253 150.459 604.519 150.764 604.723C151.069 604.917 151.445 605.015 151.894 605.015ZM148.618 599.606H149.786L149.837 601.041V608.481H148.618V599.606ZM156.581 597.067H157.8V605.941H156.581V597.067ZM162.601 606.081C161.983 606.081 161.416 605.95 160.9 605.687C160.384 605.425 159.973 605.048 159.668 604.558C159.364 604.067 159.211 603.478 159.211 602.793C159.211 602.099 159.364 601.506 159.668 601.015C159.973 600.516 160.384 600.135 160.9 599.873C161.416 599.61 161.983 599.479 162.601 599.479C163.219 599.479 163.782 599.61 164.29 599.873C164.797 600.135 165.204 600.516 165.508 601.015C165.813 601.506 165.965 602.099 165.965 602.793C165.965 603.478 165.813 604.067 165.508 604.558C165.204 605.048 164.797 605.425 164.29 605.687C163.782 605.95 163.219 606.081 162.601 606.081ZM162.601 605.027C162.982 605.027 163.333 604.943 163.655 604.773C163.985 604.596 164.247 604.342 164.442 604.012C164.645 603.673 164.747 603.267 164.747 602.793C164.747 602.31 164.645 601.9 164.442 601.561C164.247 601.223 163.985 600.965 163.655 600.787C163.333 600.609 162.982 600.52 162.601 600.52C162.22 600.52 161.865 600.609 161.535 600.787C161.205 600.956 160.938 601.21 160.735 601.549C160.532 601.887 160.43 602.302 160.43 602.793C160.43 603.267 160.527 603.673 160.722 604.012C160.925 604.342 161.192 604.596 161.522 604.773C161.852 604.943 162.212 605.027 162.601 605.027ZM167.241 599.606H168.46V605.941H167.241V599.606ZM170.605 600.685C170.165 600.685 169.788 600.787 169.475 600.99C169.17 601.193 168.925 601.443 168.739 601.739C168.561 602.035 168.443 602.319 168.383 602.59L168.371 601.866C168.379 601.781 168.4 601.65 168.434 601.472C168.476 601.286 168.548 601.079 168.65 600.85C168.752 600.622 168.887 600.406 169.056 600.203C169.226 599.991 169.437 599.818 169.691 599.682C169.945 599.547 170.25 599.479 170.605 599.479V600.685ZM176.592 603.885H177.747C177.68 604.299 177.519 604.672 177.265 605.002C177.011 605.332 176.677 605.594 176.262 605.789C175.847 605.984 175.361 606.081 174.802 606.081C174.142 606.081 173.553 605.941 173.037 605.662C172.521 605.383 172.115 604.998 171.818 604.507C171.522 604.016 171.374 603.445 171.374 602.793C171.374 602.133 171.518 601.557 171.806 601.066C172.093 600.567 172.491 600.177 172.999 599.898C173.507 599.619 174.087 599.479 174.738 599.479C175.424 599.479 176 599.615 176.465 599.885C176.931 600.156 177.273 600.558 177.493 601.092C177.722 601.616 177.815 602.272 177.773 603.059H172.58C172.622 603.44 172.737 603.779 172.923 604.075C173.118 604.371 173.372 604.604 173.685 604.773C174.006 604.943 174.374 605.027 174.789 605.027C175.255 605.027 175.644 604.922 175.957 604.71C176.27 604.498 176.482 604.223 176.592 603.885ZM174.751 600.52C174.201 600.52 173.744 600.668 173.38 600.965C173.016 601.252 172.775 601.637 172.656 602.12H176.554C176.52 601.604 176.334 601.21 175.995 600.939C175.657 600.66 175.242 600.52 174.751 600.52Z" fill="white"/>
<rect opacity="0.1" x="99.625" y="661.676" width="110.962" height="4.14036" rx="2.07018" fill="#2F3131"/>
<path d="M98.8712 159.483C95.8484 173.403 96.3256 188.883 90.0086 201.849C82.1938 217.889 65.1823 221.219 52.8239 232.016C45.927 238.043 40.9526 254.026 39.5758 262.768C37.8231 273.891 40.4135 285 46.0546 294.666C58.4676 315.936 81.9585 327.419 105.357 331.973C118.294 334.491 132.178 336.036 145.372 335.999C188.579 335.881 248.888 328.399 266.967 279.536C271.231 268.009 273.492 254.219 271.717 241.929C269.824 228.812 261.231 218.073 258.493 205.178C254.95 188.496 255.824 171.122 251.695 154.536C245.886 131.208 229.598 119.641 207.457 114.904C178.103 108.623 134.009 111.554 111.929 135.393C106.222 141.553 100.707 151.029 98.8712 159.483Z" fill="#BCE6FB"/>
<path d="M90.0923 201.675C90.0645 201.733 90.0366 201.791 90.0085 201.848C90.0367 201.791 90.0645 201.733 90.0923 201.675ZM90.1753 201.502C90.1559 201.543 90.1363 201.583 90.1169 201.625C90.1367 201.583 90.1559 201.543 90.1753 201.502ZM90.2617 201.32C90.2425 201.361 90.2235 201.401 90.2043 201.441C90.2235 201.401 90.2425 201.36 90.2617 201.32ZM90.357 201.116C90.3336 201.166 90.3096 201.218 90.286 201.268C90.3093 201.218 90.3339 201.166 90.357 201.116ZM90.45 200.915C90.4225 200.975 90.3951 201.034 90.3674 201.094C90.3951 201.034 90.4224 200.975 90.45 200.915ZM90.5305 200.738C90.5077 200.788 90.4851 200.838 90.4623 200.888C90.4848 200.838 90.5079 200.788 90.5305 200.738ZM257.642 200.69C257.886 202.138 258.157 203.582 258.46 205.021C258.157 203.584 257.896 202.139 257.652 200.692C257.649 200.691 257.646 200.691 257.642 200.69ZM90.6128 200.555C90.5923 200.601 90.5711 200.648 90.5502 200.694C90.5709 200.648 90.5926 200.6 90.6128 200.555ZM90.7009 200.357C90.678 200.409 90.6547 200.462 90.6315 200.513C90.6547 200.461 90.6778 200.409 90.7009 200.357ZM90.9493 199.785C90.9264 199.838 90.9039 199.891 90.8811 199.944C90.9039 199.891 90.9264 199.838 90.9493 199.785ZM91.0329 199.587C91.0089 199.644 90.9852 199.7 90.961 199.757C90.985 199.701 91.0092 199.644 91.0329 199.587ZM91.2707 199.011C91.1942 199.2 91.1167 199.388 91.0377 199.576C91.1165 199.388 91.1944 199.199 91.2707 199.011ZM91.3488 198.818C91.3248 198.877 91.3009 198.937 91.2766 198.997C91.3009 198.937 91.3245 198.878 91.3488 198.818ZM96.352 175.991C95.354 183.811 94.2236 191.63 91.3521 198.809C94.2236 191.63 95.3544 183.811 96.3526 175.991L96.352 175.991Z" fill="#BCE6FB"/>
<path d="M96.3524 175.991C95.3541 183.811 94.2234 191.63 91.3519 198.809C91.3509 198.812 91.3497 198.814 91.3486 198.818C91.3243 198.878 91.3007 198.936 91.2764 198.996C91.2747 199.001 91.2725 199.006 91.2706 199.011C91.1943 199.199 91.1164 199.388 91.0376 199.576C91.0361 199.579 91.0345 199.583 91.0329 199.587C91.0092 199.643 90.985 199.701 90.961 199.757C90.9571 199.766 90.9529 199.776 90.9493 199.785C90.9265 199.838 90.9039 199.891 90.8811 199.944C90.8775 199.952 90.8739 199.96 90.8702 199.969C90.8175 200.091 90.7639 200.214 90.71 200.336C90.7071 200.343 90.704 200.35 90.7009 200.357C90.6778 200.409 90.6547 200.461 90.6315 200.513C90.6251 200.527 90.6193 200.54 90.6129 200.555C90.5925 200.6 90.5708 200.648 90.5502 200.694C90.5438 200.708 90.5368 200.724 90.5304 200.738C90.5078 200.787 90.4847 200.838 90.4622 200.888C90.4579 200.896 90.4538 200.906 90.4499 200.914C90.4224 200.974 90.3951 201.034 90.3673 201.094C90.364 201.101 90.3605 201.108 90.357 201.116C90.3339 201.166 90.3093 201.218 90.286 201.268C90.2779 201.285 90.2699 201.303 90.2617 201.32C90.2425 201.36 90.2236 201.401 90.2043 201.441C90.1949 201.461 90.1851 201.482 90.1753 201.502C90.1559 201.543 90.1367 201.583 90.1169 201.624C90.1085 201.642 90.1008 201.658 90.0923 201.675C90.0645 201.733 90.0366 201.791 90.0085 201.848C82.1937 217.889 65.1822 221.218 52.8237 232.016C45.9268 238.043 40.9524 254.026 39.5757 262.768C39.2127 265.071 39.0361 267.373 39.0342 269.662C39.0264 278.429 41.5811 287.001 46.0544 294.666C58.4674 315.936 81.9584 327.419 105.357 331.973C118.144 334.462 131.859 336 144.916 336C145.069 336 145.22 336 145.372 335.999C188.578 335.881 248.888 328.399 266.967 279.536C270.232 270.711 272.322 260.559 272.326 250.769C272.328 247.772 272.133 244.809 271.717 241.929C269.823 228.812 261.23 218.073 258.493 205.178C258.482 205.126 258.471 205.074 258.46 205.022C258.156 203.583 257.886 202.139 257.642 200.69C250.549 199.098 243.898 195.394 237.572 192.023C232.525 189.336 227.465 186.656 222.069 184.724C216.87 182.862 211.456 181.987 206.015 181.987C202.41 181.987 198.794 182.371 195.219 183.107C179.454 186.353 165.679 196.142 149.464 197.53C148.109 197.646 146.752 197.705 145.399 197.705C139.691 197.705 134.035 196.658 128.72 194.444C121.581 191.47 115.313 186.973 108.797 182.88C104.823 180.384 100.705 177.877 96.3524 175.991Z" fill="#88D6F8"/>
<path d="M271.188 239.055C267.032 239.431 262.714 238.884 258.395 237.229C251.546 234.606 246.601 229.434 240.456 225.663C233.313 221.279 224.606 220.463 216.371 221.048C200.67 222.164 186.986 229.802 173.02 236.355C159.672 242.62 145.399 251.945 130.241 245.966C115.584 240.185 104.393 228.067 88.7956 224.187C80.7366 222.183 72.4502 222.021 64.4101 224.017C60.3817 226.383 56.4068 228.886 52.824 232.016C45.9269 238.042 40.9527 254.026 39.5757 262.768C37.8232 273.891 40.4134 285 46.0539 294.665C58.4678 315.935 81.9587 327.419 105.357 331.973C118.293 334.491 132.178 336.035 145.372 335.999C188.579 335.881 248.888 328.398 266.967 279.535C271.232 268.009 273.492 254.219 271.717 241.928C271.577 240.958 271.396 240.002 271.188 239.055Z" fill="#7AC4A6"/>
<path d="M90.2136 223.184C94.6728 231.34 97.0107 240.296 98.7294 249.374C99.748 254.753 100.353 260.32 100.752 265.777C101.118 270.773 100.708 275.75 100.842 280.745C100.857 281.334 102.526 281.336 102.553 280.745C102.779 275.728 103.129 270.804 102.82 265.777C102.481 260.268 101.603 254.807 100.672 249.374C99.1375 240.413 96.3191 230.497 90.9355 223.087C90.8023 222.904 90.0757 222.932 90.2136 223.184Z" fill="#44A59D"/>
<path d="M96.673 235.113C96.1026 231.405 94.9619 228.268 95.8174 224.275C96.1026 221.709 96.9582 219.997 98.3842 218.001C99.2398 216.005 100.951 213.153 101.236 211.156C101.521 215.434 104.659 218.286 102.662 222.849C101.807 224.846 100.666 226.842 99.2399 228.553C98.6695 229.409 95.8175 232.261 96.3879 232.546L96.673 235.113Z" fill="#44A59D"/>
<path d="M97.0991 237.555C94.9858 235.516 94.4711 233.018 91.1635 232.137C89.2351 231.623 87.085 231.936 84.7343 231.899C83.0064 231.735 80.8016 231.147 79.2041 231.607C80.8573 232.047 81.7764 235.244 82.934 236.438C84.3677 237.705 86.0211 238.145 87.6743 238.586C90.9819 239.467 93.6445 237.225 96.8229 237.482L97.0991 237.555Z" fill="#44A59D"/>
<path d="M99.416 243.67C99.9864 240.818 100.557 239.107 102.838 237.11C105.12 235.399 108.542 232.832 109.968 230.266C109.968 233.688 111.109 238.822 109.683 241.674C107.972 244.811 102.553 245.381 99.7012 247.663C99.7012 247.377 99.9864 247.377 99.9864 247.092L99.416 243.67Z" fill="#44A59D"/>
<path d="M99.558 251.969C98.1319 249.688 95.8503 247.406 93.2836 246.55C91.2873 245.98 89.8612 246.836 88.1501 246.836C86.7241 246.836 85.0129 245.98 83.3018 246.265C84.7277 249.973 87.5797 252.254 91.5724 252.54C93.854 252.54 96.4207 251.684 98.7023 251.969L99.558 251.969Z" fill="#44A59D"/>
<path d="M102.194 264.137C101.557 261.634 102.457 257.765 103.594 255.591C105.985 252.09 110.348 250.33 112.457 246.868C111.877 250.98 114.045 254.133 110.728 257.188C109.19 258.554 107.692 260.202 106.076 261.004C104.986 261.444 102.765 262.041 102.319 262.967L102.194 264.137Z" fill="#44A59D"/>
<path d="M103.067 270.669C101.356 268.103 100.5 265.25 97.6479 263.825C94.5108 262.399 91.0884 262.399 87.9512 261.258C87.9512 264.68 92.5143 268.103 95.3663 269.243C97.6479 269.814 100.5 268.673 102.781 269.529L103.067 270.669Z" fill="#44A59D"/>
<path d="M92.8568 225.989C92.0012 226.274 91.4307 225.418 90.8605 225.133C88.2936 223.422 84.8714 222.566 84.0157 219.144C83.1602 216.577 84.8714 213.725 84.5861 210.873C84.5861 208.306 84.0157 205.74 83.4453 203.173C85.1565 204.884 86.2973 207.451 88.0085 209.162C90.0048 211.158 90.5752 212.014 91.1456 214.581C91.716 217.433 91.1456 221.996 92.0012 223.707L92.8568 225.989Z" fill="#44A59D"/>
<path d="M235.633 240.473C231.703 245.933 230.645 252.998 229.527 259.485C228.876 263.256 228.602 267.088 228.563 270.911C228.541 272.997 228.671 275.08 228.863 277.156C229.012 278.756 229.935 280.285 229.931 281.886C229.93 282.193 230.742 282.175 230.804 281.886C231.105 280.482 230.951 279.561 230.606 278.178C230.124 276.248 230.266 273.939 230.23 271.96C230.16 268.125 230.517 264.288 231.072 260.498C232.055 253.782 233.221 246.611 236.509 240.591C236.677 240.286 235.794 240.249 235.633 240.473Z" fill="#44A59D"/>
<path d="M240.919 228.84C240.634 227.414 240.063 225.417 240.063 223.706C238.067 226.273 234.645 229.98 234.074 233.118C233.504 236.255 233.789 239.677 235.215 242.529V242.244C235.215 242.244 241.489 238.109 240.919 228.84Z" fill="#44A59D"/>
<path d="M231.508 249.088C229.226 247.377 226.089 245.38 224.948 242.814C224.093 241.387 224.378 239.962 224.093 238.536C224.093 237.395 223.237 235.684 223.237 234.828C224.378 234.828 224.948 235.399 225.804 235.969C227.8 237.395 229.512 237.965 230.082 240.532C230.367 242.528 230.652 244.525 230.938 246.521C230.938 246.806 231.223 248.803 231.508 247.947V249.088Z" fill="#44A59D"/>
<path d="M231.223 254.222C231.793 252.796 232.649 251.37 233.789 250.514C236.927 247.947 240.349 248.803 243.771 246.807C241.205 248.803 240.634 252.225 238.353 254.222C236.641 255.648 236.071 255.077 234.36 254.507C233.504 254.222 231.793 253.937 231.508 253.652L231.223 254.222Z" fill="#44A59D"/>
<path d="M229.511 261.637C230.082 260.496 227.515 255.933 226.66 255.077C225.233 253.366 223.237 253.081 221.526 252.51C220.1 251.94 218.104 250.799 217.248 249.658C219.244 252.795 217.248 256.788 220.67 259.07C222.667 260.21 226.374 260.781 228.656 260.781L229.511 261.637Z" fill="#44A59D"/>
<path d="M230.082 268.197C230.367 266.486 232.934 263.349 234.36 262.779C235.216 262.208 237.497 261.923 238.638 261.638C240.064 261.638 241.205 261.353 242.631 261.067C241.775 262.493 240.634 263.919 239.779 265.631C238.923 267.627 238.353 267.627 236.356 267.627C234.93 267.627 231.223 267.912 230.082 267.342V268.197Z" fill="#44A59D"/>
<path d="M228.941 273.045C228.085 271.334 226.374 268.197 224.663 267.626C223.522 267.056 221.811 267.341 220.67 267.341C219.53 267.341 218.104 267.056 216.963 266.771C218.104 268.767 220.385 272.474 222.096 273.9C223.808 275.326 226.945 274.756 229.226 274.756C229.226 274.471 229.226 274.471 229.512 274.471L228.941 273.045Z" fill="#44A59D"/>
<path d="M193.234 270.931C196.078 266.746 202.976 265.219 205.168 271.268C210.19 285.135 196.161 289.662 183.032 288.597C178.923 288.263 170.659 284.817 170.292 279.593C169.91 274.169 176.069 272.674 180.315 274.021C180.315 274.021 177.01 267.772 184.178 265.077C184.178 265.077 192.142 262.336 193.234 270.931Z" fill="#44A59D"/>
<path d="M40.6035 281.607C41.8 286.149 43.646 290.54 46.0534 294.666C58.4673 315.936 81.9583 327.42 105.357 331.974C118.293 334.492 132.177 336.036 145.371 335.999C187.96 335.883 247.161 328.609 266.162 281.607H40.6035Z" fill="#9DCEA6"/>
<path d="M181.591 152.051C186.716 150.734 187.999 154.214 192.013 155.483C191.426 150.148 196.061 147.04 201.043 146.643C207.431 146.133 212.154 148.56 212.149 155.381C214.503 152.394 213.607 148.573 219.053 148.061C222.72 147.715 227.373 148.092 228.921 151.785C230.772 156.201 228.131 160.46 224.67 163.298C222.426 165.137 212.702 166.9 212.817 162.254C213.244 172.393 194.618 171.441 191.242 164.004C193.275 168.483 179.874 165.383 178.812 164.772C172.678 161.247 175.081 153.722 181.591 152.051Z" fill="#DFF3FD"/>
<path d="M225.696 306.683C225.696 312.06 193.439 316.419 153.65 316.419C113.859 316.419 81.6045 312.06 81.6045 306.683C81.6045 301.306 113.859 296.946 153.65 296.946C193.439 296.946 225.696 301.306 225.696 306.683Z" fill="#4FBBA6"/>
<path d="M140.522 196.821C138.691 199.645 137.449 202.983 137.608 206.383C137.765 209.729 139.5 212.724 140.164 215.961C140.969 219.875 139.632 222.368 136.961 225.115C134.99 227.14 133.301 230.842 133.736 233.712C134.153 236.467 137.318 237.545 137.575 240.168C137.816 242.616 135.352 244.837 137.307 247.042C139.239 249.221 142.475 248.953 145.067 248.766C149.38 248.456 153.739 248.4 158.038 248.766C161.248 249.039 164.076 248.501 166.29 246.004C168.393 243.632 168.603 240.704 167.34 237.898C166.101 235.146 162.93 231.571 164.456 228.333C165.795 225.488 168.402 225.191 168.449 221.582C168.502 217.544 165.66 215.298 163.415 212.362C160.251 208.225 164.899 206.613 165.073 202.843C165.2 200.105 162.922 195.092 161.055 193.32C158.319 190.725 151.934 190.118 148.699 191.264C145.27 192.477 142.402 193.921 140.522 196.821Z" fill="#094774"/>
<path d="M149.243 220.103C152.146 221.368 155.468 221.448 158.31 219.595C159.642 218.726 161.056 217.504 162.031 216.244C166.954 209.88 166.592 200.096 162.328 194.198C158.48 188.877 150.264 189.192 145.5 193.175C143.869 194.538 142.366 196.605 141.576 198.526C139.536 203.486 140.491 211.244 144.182 216.113C145.487 217.834 147.268 219.243 149.243 220.103Z" fill="#094774"/>
<path d="M148.696 228.234H158.243C156.049 224.679 157.771 219.878 158.023 219.223H148.916C149.169 219.878 150.89 224.679 148.696 228.234Z" fill="#F9B099"/>
<path d="M157.147 223.838C157.17 221.572 157.869 219.623 158.023 219.223H148.916C149.071 219.623 149.769 221.572 149.792 223.838C149.792 223.838 153.283 227.719 157.147 223.838Z" fill="#F6977F"/>
<path d="M159.941 217.978C161.832 216.488 161.959 214.469 161.959 214.469C162.269 211.152 162.417 210.057 162.665 208.363C163.726 201.098 158.495 195.063 153.3 194.985C148.104 195.063 142.873 201.098 143.934 208.363C144.182 210.057 144.33 211.152 144.641 214.469C144.641 214.469 144.868 216.311 146.658 217.978C146.658 217.978 149.347 220.65 152.151 221.681C152.151 221.681 152.606 221.842 153.3 221.854C153.993 221.842 154.448 221.681 154.448 221.681C154.448 221.681 158.504 219.553 159.941 217.978Z" fill="#F9B099"/>
<path d="M159.501 205.098C159.389 205.098 159.277 205.051 159.199 204.959C158.753 204.442 157.862 204.22 157.024 204.794C156.841 204.918 156.593 204.871 156.469 204.689C156.345 204.507 156.391 204.259 156.573 204.134C157.787 203.305 159.144 203.672 159.803 204.438C159.948 204.605 159.929 204.857 159.762 205.001C159.686 205.066 159.593 205.098 159.501 205.098Z" fill="#072552"/>
<path d="M147.521 205.098C147.429 205.098 147.336 205.066 147.26 205.001C147.094 204.857 147.075 204.605 147.219 204.438C147.879 203.672 149.234 203.305 150.45 204.134C150.631 204.259 150.678 204.507 150.554 204.689C150.43 204.871 150.181 204.918 149.998 204.794C149.159 204.22 148.269 204.442 147.824 204.959C147.745 205.051 147.633 205.098 147.521 205.098Z" fill="#072552"/>
<path d="M153.625 213.035C153.454 213.035 153.318 212.897 153.318 212.727C153.318 212.068 152.873 211.786 152.291 211.485C151.959 211.313 151.644 211.15 151.627 210.819C151.609 210.503 151.895 210.269 152.176 210.082L152.278 210.014C152.934 209.581 152.934 209.581 152.934 208.363C152.934 208.193 153.072 208.055 153.242 208.055C153.413 208.055 153.55 208.193 153.55 208.363C153.55 209.803 153.528 209.926 152.618 210.529L152.518 210.595C152.394 210.678 152.323 210.737 152.283 210.776C152.357 210.825 152.479 210.888 152.575 210.938C153.083 211.201 153.933 211.641 153.933 212.727C153.933 212.897 153.796 213.035 153.625 213.035Z" fill="#F6917A"/>
<path d="M153.676 215.094C152.754 215.094 151.698 214.695 151.372 213.767C151.317 213.607 151.402 213.431 151.561 213.375C151.722 213.317 151.899 213.404 151.955 213.564C152.187 214.228 153.093 214.525 153.844 214.472C154.455 214.431 155.154 214.16 155.285 213.523C155.32 213.357 155.486 213.25 155.649 213.284C155.815 213.318 155.923 213.481 155.889 213.648C155.721 214.463 154.953 215.015 153.885 215.087C153.817 215.091 153.746 215.094 153.676 215.094Z" fill="#F6917A"/>
<path d="M157.571 208.185C156.743 208.185 156.069 207.511 156.069 206.682C156.069 206.513 156.206 206.375 156.377 206.375C156.546 206.375 156.683 206.513 156.683 206.682C156.683 207.172 157.081 207.571 157.571 207.571C158.061 207.571 158.46 207.172 158.46 206.682C158.46 206.513 158.597 206.375 158.767 206.375C158.936 206.375 159.073 206.513 159.073 206.682C159.073 207.511 158.4 208.185 157.571 208.185Z" fill="#072552"/>
<path d="M149.028 208.185C148.199 208.185 147.524 207.511 147.524 206.682C147.524 206.513 147.662 206.375 147.831 206.375C148.002 206.375 148.139 206.513 148.139 206.682C148.139 207.172 148.537 207.571 149.028 207.571C149.518 207.571 149.916 207.172 149.916 206.682C149.916 206.513 150.053 206.375 150.223 206.375C150.393 206.375 150.53 206.513 150.53 206.682C150.53 207.511 149.856 208.185 149.028 208.185Z" fill="#072552"/>
<path d="M160.416 210.057C160.416 210.651 159.465 211.132 158.291 211.132C157.117 211.132 156.166 210.651 156.166 210.057C156.166 209.463 157.117 208.981 158.291 208.981C159.465 208.981 160.416 209.463 160.416 210.057Z" fill="#F5908C"/>
<path d="M150.637 210.057C150.637 210.651 149.686 211.132 148.512 211.132C147.339 211.132 146.387 210.651 146.387 210.057C146.387 209.463 147.339 208.981 148.512 208.981C149.686 208.981 150.637 209.463 150.637 210.057Z" fill="#F5908C"/>
<path d="M171.77 245.725C173.962 240.828 173.444 237.52 173.444 237.52C172.317 232.866 165.256 231.253 165.256 231.253C158.205 229.103 157.436 226.979 157.436 226.979H153.47H149.504C149.504 226.979 148.733 229.103 141.683 231.253C141.683 231.253 134.621 232.866 133.495 237.52C133.495 237.52 132.976 240.828 135.168 245.725C135.168 245.725 140.309 258.85 142.506 264.994C142.506 264.994 144.209 268.885 141.683 275.029L138.144 283.426H151.962H154.977H168.793L165.256 275.029C162.729 268.885 164.432 264.994 164.432 264.994C166.63 258.85 171.77 245.725 171.77 245.725Z" fill="#F9B099"/>
<path d="M171.232 287.374C169.387 283.941 166.921 278.984 166.921 278.984C166.627 281.777 154.738 281.93 153.063 281.945C151.467 281.93 141.083 281.752 139.969 279.096C139.969 279.096 137.235 283.965 135.497 287.374C135.497 287.374 132.082 295.491 152.843 296.837V296.865C152.916 296.861 152.986 296.856 153.058 296.851C153.13 296.855 153.199 296.861 153.272 296.865V296.837C174.041 295.491 171.232 287.374 171.232 287.374Z" fill="#597093"/>
<path d="M164.903 211.551C164.749 212.95 163.768 213.991 162.71 213.875C161.653 213.759 160.922 212.53 161.075 211.13C161.229 209.731 162.21 208.691 163.267 208.807C164.324 208.922 165.056 210.151 164.903 211.551Z" fill="#F9B099"/>
<path d="M163.138 212.879C163.047 212.879 162.957 212.838 162.897 212.761C162.791 212.628 162.814 212.434 162.948 212.329C163.25 212.09 163.445 211.449 163.383 210.9C163.346 210.583 163.227 210.355 163.057 210.274C162.902 210.201 162.837 210.018 162.91 209.864C162.982 209.71 163.169 209.645 163.32 209.717C163.693 209.894 163.933 210.289 163.994 210.83C164.068 211.478 163.86 212.392 163.329 212.812C163.273 212.857 163.205 212.879 163.138 212.879Z" fill="#F6917A"/>
<path d="M163.656 211.529C163.578 211.529 163.499 211.499 163.439 211.44C163.324 211.326 163.006 211.285 162.675 211.345C162.51 211.374 162.348 211.264 162.318 211.096C162.287 210.929 162.399 210.769 162.566 210.738C162.772 210.701 163.478 210.61 163.874 211.003C163.994 211.123 163.994 211.318 163.875 211.439C163.815 211.499 163.736 211.529 163.656 211.529Z" fill="#F6917A"/>
<path d="M141.899 211.551C142.053 212.95 143.034 213.991 144.091 213.875C145.148 213.759 145.882 212.53 145.728 211.13C145.575 209.731 144.593 208.691 143.536 208.807C142.479 208.922 141.746 210.151 141.899 211.551Z" fill="#F9B099"/>
<path d="M143.664 212.878C143.597 212.878 143.53 212.857 143.474 212.812C142.942 212.393 142.735 211.478 142.808 210.831C142.87 210.289 143.109 209.894 143.482 209.717C143.636 209.645 143.821 209.71 143.893 209.864C143.966 210.017 143.9 210.201 143.747 210.274C143.575 210.355 143.457 210.583 143.421 210.9C143.358 211.449 143.553 212.09 143.855 212.328C143.989 212.434 144.012 212.628 143.906 212.761C143.846 212.838 143.755 212.878 143.664 212.878Z" fill="#F6917A"/>
<path d="M143.147 211.53C143.068 211.53 142.99 211.5 142.93 211.439C142.809 211.319 142.809 211.124 142.93 211.004C143.324 210.609 144.03 210.702 144.237 210.739C144.405 210.769 144.516 210.929 144.486 211.096C144.455 211.264 144.291 211.375 144.127 211.345C143.797 211.285 143.479 211.326 143.365 211.439C143.305 211.5 143.226 211.53 143.147 211.53Z" fill="#F6917A"/>
<path d="M132.31 240.008C129.964 247.48 125.888 259.222 123.72 266.42C123.72 266.42 128.061 274.698 129.855 271.746C134.572 263.99 134.771 262.77 141.947 245.106C141.947 245.106 144.808 236.836 139.132 232.244C139.132 232.244 134.566 232.972 132.31 240.008Z" fill="#F9B099"/>
<path d="M174.965 240.008C177.312 247.48 181.388 259.222 183.556 266.42C183.556 266.42 179.214 274.698 177.419 271.746C172.703 263.99 172.504 262.77 165.329 245.106C165.329 245.106 162.467 236.836 168.143 232.244C168.143 232.244 172.709 232.972 174.965 240.008Z" fill="#F9B099"/>
<path d="M207.43 275.558C207.43 275.558 187.457 274.265 178.024 272.382C178.024 272.382 175.229 268.906 172.347 262.254C172.347 262.254 176.64 262.7 182.564 263.908C182.564 263.908 202.922 271.035 208.518 272.618L207.43 275.558Z" fill="#F9B099"/>
<path d="M218.34 272.319C218.313 270.706 216.048 270.693 215.16 270.442C215.16 270.442 214.685 271.347 216.33 271.889L215.494 272.603L211.781 272.484C212.17 271.983 212.712 271.59 212.712 271.59C212.393 271.536 214.754 271.873 215.16 270.442C214.278 270.159 212.777 270.09 211.63 270.282C210.611 270.383 208.518 272.62 208.518 272.62L206.403 272.727L205.888 275.348L207.605 276.094C209.25 277.818 213.365 278.485 213.365 278.485C214.263 278.831 217.494 279.127 218.259 278.43C218.086 277.731 216.253 277.498 214.104 276.778C216.378 277.141 220.183 278.151 220.84 277.125C220.595 276.218 216.09 275.962 214.397 275.693C215.455 275.601 221.667 276.551 221.71 275.618C221.48 274.632 216.11 274.365 216.06 274.369L218.34 272.319Z" fill="#F9B099"/>
<path d="M99.8703 275.558C99.8703 275.558 119.843 274.265 129.277 272.382C129.277 272.382 129.819 272.769 134.954 262.254C134.954 262.254 130.66 262.7 124.736 263.908C124.736 263.908 104.378 271.035 98.7822 272.618L99.8703 275.558Z" fill="#F9B099"/>
<path d="M88.9593 272.319C88.987 270.706 91.2517 270.693 92.1402 270.442C92.1402 270.442 92.6153 271.347 90.9693 271.889L91.806 272.603L95.5189 272.484C95.1302 271.983 94.5875 271.59 94.5875 271.59C94.9076 271.536 92.5449 271.873 92.1403 270.442C93.0218 270.159 94.5241 270.09 95.6699 270.282C96.6893 270.383 98.782 272.62 98.782 272.62L100.897 272.727L101.413 275.348L99.6953 276.094C98.0504 277.818 93.9351 278.485 93.9351 278.485C93.0373 278.831 89.8058 279.127 89.0413 278.43C89.2139 277.731 91.0474 277.498 93.196 276.778C90.9214 277.141 87.1162 278.151 86.4599 277.125C86.7047 276.218 91.2093 275.962 92.903 275.693C91.8446 275.601 85.6329 276.551 85.5898 275.618C85.8191 274.632 91.1901 274.365 91.2397 274.369L88.9593 272.319Z" fill="#F9B099"/>
<path d="M166.42 277.852L168.793 283.427H154.977H151.962H137.584L138.805 277.945L138.366 253.97C143.882 243.813 139.343 231.848 139.343 231.848C140.619 231.48 143.227 230.759 143.883 230.514C143.883 230.514 143.432 237.068 153.694 236.863C153.694 236.863 161.637 237.776 162.643 230.356C163.401 230.651 166.401 231.546 167.39 231.848C167.39 231.848 163.77 243.813 168.739 253.543L166.42 277.852Z" fill="#536EA7"/>
<path d="M119.616 300.937H193.302C203.137 302.086 214.881 288.849 206.15 286.685C188.893 282.408 169.439 283.427 169.439 283.427L166.419 277.852C166.419 277.852 154.768 281.485 138.804 277.945C137.809 281.854 137.809 281.854 136.536 284.404C136.536 284.404 111.066 281.202 100.285 290.538C100.285 290.538 104.052 300.937 119.616 300.937Z" fill="#003A54"/>
<path d="M168.272 303.284C168.272 303.284 168.092 306.399 167.044 307.073C167.044 307.073 160.081 308.455 147.28 306.766C145.59 306.683 130.335 308.469 129.974 308.455C119.363 308.049 115.196 309.31 105.41 305.033C101.775 303.444 94.5675 292.98 102.103 289.248C110.816 284.038 130.889 295.883 130.897 295.887C136.385 299.126 142.983 300.377 149.278 300.219C152.833 300.13 168.092 296.695 168.272 303.284Z" fill="#003A54"/>
<path d="M172.75 298.511C169.46 299.219 165.318 299.362 160.483 298.005C158.575 296.843 156.119 297.378 154.454 298.678C154.454 298.678 152.677 302.267 145.816 300.219C145.816 300.219 144.25 300.639 143.987 301.96C143.987 301.96 142.554 304.724 145.215 305.748C145.215 305.748 152.18 307.131 164.98 305.441C165.728 305.405 169.147 305.736 172.749 306.114L172.75 298.511Z" fill="#F9B099"/>
<path d="M210.156 287.924C201.442 282.713 181.363 294.563 181.363 294.563C181.363 294.563 177.207 298.245 170.036 298.929V305.836C175.093 306.339 182.043 307.14 182.285 307.131C192.896 306.725 197.063 307.985 206.85 303.708C210.485 302.12 217.692 291.655 210.156 287.924Z" fill="#003A54"/>
<path d="M153.47 300.072C153.405 300.072 153.34 300.051 153.285 300.01C153.15 299.907 153.123 299.714 153.225 299.579C155.48 296.6 157.91 297.097 160.054 297.535C160.522 297.631 160.964 297.721 161.393 297.773C162.211 297.873 163.019 297.993 163.822 298.113C165.87 298.418 167.81 298.704 169.789 298.643C174.766 298.481 178.694 296.085 182.852 293.548C184.78 292.371 186.775 291.154 188.875 290.188L189.538 289.881C191.838 288.812 194.444 287.6 198.164 287.175C198.328 287.152 198.485 287.276 198.505 287.445C198.524 287.613 198.403 287.766 198.234 287.785C194.612 288.199 192.055 289.389 189.797 290.438L189.131 290.746C187.064 291.697 185.086 292.904 183.171 294.072C179.128 296.539 174.948 299.09 169.809 299.256C167.77 299.327 165.807 299.03 163.731 298.72C162.934 298.602 162.131 298.482 161.318 298.383C160.866 298.328 160.412 298.235 159.931 298.137C157.867 297.716 155.735 297.28 153.715 299.95C153.655 300.03 153.563 300.072 153.47 300.072Z" fill="#072552"/>
<path d="M153.923 237.167C151.604 237.167 149.285 236.907 147.799 236.447C145.4 235.706 143.038 233.355 143.386 230.457C143.406 230.288 143.562 230.17 143.727 230.188C143.896 230.209 144.015 230.361 143.995 230.53C143.699 233.004 145.788 235.183 147.98 235.86C149.89 236.45 153.246 236.701 156.141 236.467C156.31 236.455 156.458 236.58 156.472 236.749C156.486 236.918 156.36 237.066 156.19 237.08C155.455 237.139 154.689 237.167 153.923 237.167Z" fill="#072552"/>
<path d="M154.079 279.941C149.849 279.941 145.716 279.502 141.781 278.632C141.614 278.595 141.51 278.431 141.546 278.265C141.583 278.1 141.745 277.996 141.912 278.032C146.145 278.967 150.611 279.398 155.177 279.317C157.677 279.272 159.715 279.112 161.592 278.814C162.803 278.62 163.818 278.369 164.695 278.044C164.855 277.984 165.03 278.066 165.089 278.225C165.148 278.384 165.067 278.561 164.908 278.62C163.993 278.959 162.939 279.221 161.688 279.42C159.783 279.724 157.717 279.886 155.187 279.932C154.817 279.938 154.448 279.941 154.079 279.941Z" fill="#072552"/>
<path d="M139.343 231.848C139.343 231.848 133.352 232.487 129.896 242.011L125.96 253.293C125.96 253.293 130.818 258.958 138.395 259.47L144.104 244.084C144.104 244.084 146.869 235.969 139.343 231.848Z" fill="#536EA7"/>
<path d="M167.39 231.848C167.39 231.848 173.381 232.487 176.837 242.011L180.773 253.293C180.773 253.293 175.915 258.958 168.338 259.47L162.629 244.084C162.629 244.084 159.864 235.969 167.39 231.848Z" fill="#536EA7"/>
<path d="M149.31 300.159C146.895 300.195 144.438 300.021 142.017 299.609L141.941 307.05C144.532 306.817 146.673 306.651 147.247 306.685C160.029 308.505 167.006 307.194 167.006 307.194C168.062 306.53 168.273 303.418 168.273 303.418C168.16 296.826 152.867 300.106 149.31 300.159Z" fill="#F9B099"/>
<path d="M145.256 300.121C140.241 299.755 135.224 298.441 130.897 295.887C130.89 295.883 110.816 284.038 102.103 289.248C94.5675 292.98 101.775 303.444 105.41 305.033C115.196 309.31 119.363 308.049 129.974 308.455C130.27 308.467 140.644 307.261 145.256 306.878L145.256 300.121Z" fill="#003A54"/>
<path d="M167.039 307.447C166.923 307.447 166.811 307.38 166.76 307.267C166.689 307.113 166.756 306.931 166.91 306.86C167.808 306.447 168.091 305.514 168.169 304.804C168.339 303.256 167.685 301.341 166.741 300.621C165.199 299.448 163.272 299.576 161.41 299.698C161.035 299.723 160.661 299.748 160.292 299.762C159.076 299.811 157.904 299.935 156.663 300.066C155.454 300.194 154.204 300.327 152.92 300.381C148.022 300.586 143.234 300.685 138.522 299.64C135.119 298.886 132.104 297.16 129.189 295.491C127.867 294.735 126.501 293.953 125.128 293.28L124.126 292.786C120.46 290.971 115.892 288.711 111.907 288.86C111.709 288.879 111.596 288.734 111.589 288.565C111.583 288.396 111.716 288.253 111.885 288.247C116.019 288.08 120.671 290.39 124.399 292.235L125.398 292.728C126.789 293.41 128.164 294.197 129.493 294.958C132.369 296.604 135.343 298.306 138.655 299.04C143.295 300.068 148.037 299.97 152.894 299.767C154.159 299.714 155.399 299.582 156.599 299.456C157.795 299.329 159.031 299.198 160.268 299.149C160.632 299.135 160.999 299.11 161.369 299.086C163.347 298.955 165.388 298.82 167.113 300.133C168.226 300.981 168.974 303.106 168.78 304.872C168.644 306.098 168.071 307.002 167.167 307.418L167.039 307.447Z" fill="#072552"/>
<path d="M166.084 302.153C165.648 302.153 165.177 302.117 164.731 302.011C164.565 301.972 164.463 301.806 164.502 301.641C164.541 301.477 164.705 301.374 164.872 301.413C166.122 301.71 167.675 301.385 167.69 301.381C167.858 301.344 168.019 301.452 168.055 301.617C168.09 301.783 167.985 301.947 167.819 301.982C167.772 301.992 167.005 302.153 166.084 302.153Z" fill="#072552"/>
<path d="M166.567 303.701C166.26 303.701 165.92 303.689 165.554 303.656C165.384 303.642 165.259 303.493 165.274 303.324C165.289 303.155 165.44 303.031 165.607 303.044C167.084 303.174 168.108 302.961 168.118 302.959C168.285 302.924 168.447 303.03 168.482 303.196C168.517 303.361 168.412 303.524 168.246 303.56C168.212 303.567 167.573 303.701 166.567 303.701Z" fill="#072552"/>
<path d="M166.364 305.442C166.176 305.442 165.992 305.434 165.82 305.417C165.651 305.401 165.527 305.251 165.543 305.082C165.56 304.913 165.715 304.79 165.88 304.806C166.867 304.902 168.39 304.634 168.405 304.631C168.568 304.601 168.733 304.712 168.762 304.879C168.792 305.046 168.681 305.206 168.514 305.236C168.459 305.245 167.354 305.442 166.364 305.442Z" fill="#072552"/>
<path d="M156.851 197.917C158.751 199.543 160.001 204.379 159.423 206.73C158.963 208.597 157.657 210.176 157.471 212.118C157.166 215.322 160.465 217.334 160.563 220.467C160.673 224.01 158.132 226.749 156.791 229.82C155.322 233.182 156.752 236.627 157.452 239.978C158.001 242.605 156.613 247.444 158.859 249.333C160.169 250.437 162.747 250.747 164.323 250.128C167.149 249.017 166.702 245.526 168.455 243.553C170.164 241.629 174.907 243.011 175.525 240.013C175.974 237.833 173.515 235.599 172.69 233.726C170.765 229.353 174.452 224.762 172.293 220.735C171.184 218.669 169.613 217.216 169.416 214.706C169.235 212.396 170.907 210.282 169.374 208.139C167.721 205.828 166.587 204.747 166.801 201.803C167.297 194.986 163.416 192.374 161.18 191.398C149.556 186.331 149.912 197.942 149.912 197.942C149.912 197.942 152.779 196.392 156.851 197.917Z" fill="#094774"/>
<path d="M146.89 200.588C147.78 199.28 148.971 198.209 150.481 197.725C153.379 196.796 157.208 197.272 159.31 199.743C160.705 201.383 161.58 203.531 161.787 205.658C161.853 206.331 161.893 209.416 163.267 208.807C164.425 208.294 164.276 204.168 164.12 203.252C163.799 201.371 163.344 199.59 162.282 197.928C160.279 194.793 156.818 192.925 153.164 192.626C149.135 192.295 144.996 195.289 143.435 198.954C142.97 200.046 141.478 208.475 143.537 208.807C144.697 208.994 145.005 205.261 145.161 204.605C145.484 203.249 146.055 201.814 146.89 200.588Z" fill="#094774"/>
<path d="M179.97 266.073C179.915 266.073 179.861 266.06 179.812 266.03C179.667 265.943 179.618 265.754 179.706 265.609C180.161 264.848 181.648 263.479 183.17 263.617C183.34 263.632 183.464 263.781 183.45 263.95C183.435 264.12 183.273 264.243 183.117 264.229C181.928 264.124 180.631 265.259 180.234 265.924C180.176 266.02 180.074 266.073 179.97 266.073Z" fill="#072552"/>
<path d="M127.233 265.562C127.146 265.562 127.06 265.525 126.999 265.454C126.303 264.636 125.103 263.982 124.162 264.315C124 264.371 123.827 264.288 123.77 264.128C123.713 263.968 123.797 263.793 123.957 263.736C125.216 263.289 126.66 264.107 127.467 265.055C127.577 265.184 127.562 265.378 127.432 265.488C127.375 265.537 127.304 265.562 127.233 265.562Z" fill="#072552"/>
</g>
<defs>
<filter id="filter0_f_61_33422" x="-384.595" y="-300.102" width="815.299" height="815.299" filterUnits="userSpaceOnUse" color-interpolation-filters="sRGB">
<feFlood flood-opacity="0" result="BackgroundImageFix"/>
<feBlend mode="normal" in="SourceGraphic" in2="BackgroundImageFix" result="shape"/>
<feGaussianBlur stdDeviation="150" result="effect1_foregroundBlur_61_33422"/>
</filter>
<filter id="filter1_f_61_33422" x="-97.2529" y="-368.201" width="815.299" height="815.299" filterUnits="userSpaceOnUse" color-interpolation-filters="sRGB">
<feFlood flood-opacity="0" result="BackgroundImageFix"/>
<feBlend mode="normal" in="SourceGraphic" in2="BackgroundImageFix" result="shape"/>
<feGaussianBlur stdDeviation="150" result="effect1_foregroundBlur_61_33422"/>
</filter>
<filter id="filter2_f_61_33422" x="-384.595" y="-434.473" width="815.299" height="815.299" filterUnits="userSpaceOnUse" color-interpolation-filters="sRGB">
<feFlood flood-opacity="0" result="BackgroundImageFix"/>
<feBlend mode="normal" in="SourceGraphic" in2="BackgroundImageFix" result="shape"/>
<feGaussianBlur stdDeviation="150" result="effect1_foregroundBlur_61_33422"/>
</filter>
<filter id="filter3_f_61_33422" x="-96.7803" y="157.6" width="815.299" height="815.299" filterUnits="userSpaceOnUse" color-interpolation-filters="sRGB">
<feFlood flood-opacity="0" result="BackgroundImageFix"/>
<feBlend mode="normal" in="SourceGraphic" in2="BackgroundImageFix" result="shape"/>
<feGaussianBlur stdDeviation="150" result="effect1_foregroundBlur_61_33422"/>
</filter>
<clipPath id="clip0_61_33422">
<rect x="0.105469" y="0.201172" width="310.527" height="672.395" rx="35.5469" fill="white"/>
</clipPath>
<clipPath id="clip1_61_33422">
<rect width="311" height="673" fill="white" transform="translate(-0.130859 -0.101562)"/>
</clipPath>
</defs>
</svg>
